<svg width="888" height="724" viewBox="0 0 888 724" fill="none" xmlns="http://www.w3.org/2000/svg">
<rect x="82" width="724" height="724" rx="362" fill="white"/>
<path d="M411.863 493.521H40.0003V89.9997C40.0003 40.2941 80.2947 -0.000305176 130 -0.000305176H411.863V493.521Z" fill="#A73A3A"/>
<path d="M476.135 230.479H847.998V634C847.998 683.706 807.703 724 757.998 724H476.135V230.479Z" fill="#4040DA"/>
<rect x="144" y="104" width="600" height="516" rx="72" fill="white"/>
<g filter="url(#filter0_d_4918_1357)">
<rect x="60" y="164" width="768" height="396" rx="24" fill="white" shape-rendering="crispEdges"/>
<rect x="78" y="182" width="732" height="60" fill="#F1F1FF"/>
<path d="M108.203 218H106.891V209.312H106.836L103.242 217.922H102.055L98.4609 209.312H98.4062V218H97.0938V206.727H98.7266L102.617 216.133H102.68L106.57 206.727H108.203V218ZM113.438 210.914C112.164 210.914 111.273 211.891 111.188 213.242H115.602C115.57 211.883 114.719 210.914 113.438 210.914ZM115.57 215.672H116.906C116.672 217.094 115.297 218.141 113.523 218.141C111.195 218.141 109.781 216.523 109.781 213.969C109.781 211.445 111.219 209.734 113.461 209.734C115.656 209.734 117.008 211.328 117.008 213.789V214.305H111.18V214.383C111.18 215.938 112.094 216.961 113.555 216.961C114.586 216.961 115.344 216.438 115.57 215.672ZM121.062 216.984C122.344 216.984 123.328 216.086 123.328 214.914V214.25L121.156 214.383C120.062 214.453 119.438 214.938 119.438 215.703C119.438 216.477 120.086 216.984 121.062 216.984ZM120.758 218.141C119.141 218.141 118.055 217.164 118.055 215.703C118.055 214.312 119.125 213.438 121 213.328L123.328 213.195V212.516C123.328 211.523 122.672 210.93 121.547 210.93C120.5 210.93 119.844 211.422 119.672 212.219H118.359C118.453 210.812 119.656 209.734 121.578 209.734C123.484 209.734 124.688 210.766 124.688 212.383V218H123.398V216.602H123.367C122.883 217.531 121.852 218.141 120.758 218.141ZM126.273 212.117C126.273 210.727 127.516 209.734 129.305 209.734C130.984 209.734 132.219 210.734 132.281 212.109H130.984C130.891 211.328 130.258 210.844 129.258 210.844C128.266 210.844 127.609 211.336 127.609 212.047C127.609 212.609 128.039 212.984 128.961 213.219L130.219 213.523C131.859 213.938 132.453 214.531 132.453 215.727C132.453 217.141 131.117 218.141 129.219 218.141C127.438 218.141 126.195 217.172 126.055 215.734H127.414C127.562 216.578 128.203 217.031 129.305 217.031C130.406 217.031 131.086 216.562 131.086 215.828C131.086 215.25 130.75 214.938 129.836 214.695L128.406 214.328C126.977 213.961 126.273 213.227 126.273 212.117ZM140.539 209.875V218H139.25V216.68H139.219C138.734 217.617 137.891 218.141 136.641 218.141C134.867 218.141 133.828 216.992 133.828 215.148V209.875H135.188V214.906C135.188 216.227 135.805 216.938 137.062 216.938C138.383 216.938 139.18 216.031 139.18 214.648V209.875H140.539ZM142.305 218V209.875H143.586V211.203H143.617C143.883 210.305 144.633 209.734 145.586 209.734C145.82 209.734 146.023 209.773 146.133 209.789V211.109C146.023 211.07 145.734 211.031 145.406 211.031C144.352 211.031 143.664 211.789 143.664 212.938V218H142.305ZM150.109 210.914C148.836 210.914 147.945 211.891 147.859 213.242H152.273C152.242 211.883 151.391 210.914 150.109 210.914ZM152.242 215.672H153.578C153.344 217.094 151.969 218.141 150.195 218.141C147.867 218.141 146.453 216.523 146.453 213.969C146.453 211.445 147.891 209.734 150.133 209.734C152.328 209.734 153.68 211.328 153.68 213.789V214.305H147.852V214.383C147.852 215.938 148.766 216.961 150.227 216.961C151.258 216.961 152.016 216.438 152.242 215.672Z" fill="#4040DA"/>
<path d="M398.555 214.898H399.969C400.102 216.117 401.258 216.922 402.867 216.922C404.391 216.922 405.5 216.117 405.5 215.008C405.5 214.055 404.836 213.469 403.32 213.078L401.875 212.703C399.797 212.172 398.875 211.258 398.875 209.727C398.875 207.852 400.516 206.539 402.859 206.539C405.102 206.539 406.727 207.867 406.789 209.758H405.383C405.258 208.547 404.281 207.805 402.812 207.805C401.352 207.805 400.336 208.562 400.336 209.664C400.336 210.516 400.961 211.023 402.492 211.422L403.672 211.734C406.008 212.32 406.953 213.219 406.953 214.836C406.953 216.898 405.328 218.188 402.734 218.188C400.344 218.188 398.688 216.891 398.555 214.898ZM408.453 218V209.875H409.812V218H408.453ZM409.133 208.508C408.672 208.508 408.289 208.125 408.289 207.664C408.289 207.195 408.672 206.82 409.133 206.82C409.602 206.82 409.984 207.195 409.984 207.664C409.984 208.125 409.602 208.508 409.133 208.508ZM411.648 218V209.875H412.93V211.172H412.961C413.414 210.297 414.281 209.734 415.539 209.734C417.32 209.734 418.352 210.883 418.352 212.727V218H416.992V212.969C416.992 211.656 416.375 210.938 415.125 210.938C413.844 210.938 413.008 211.844 413.008 213.219V218H411.648ZM426.836 212.539H425.508C425.312 211.656 424.625 210.93 423.43 210.93C422.023 210.93 421.07 212.094 421.07 213.938C421.07 215.828 422.039 216.945 423.445 216.945C424.555 216.945 425.281 216.359 425.516 215.383H426.852C426.641 217 425.281 218.141 423.438 218.141C421.188 218.141 419.688 216.555 419.688 213.938C419.688 211.375 421.18 209.734 423.422 209.734C425.453 209.734 426.664 211.078 426.836 212.539ZM431.359 210.914C430.086 210.914 429.195 211.891 429.109 213.242H433.523C433.492 211.883 432.641 210.914 431.359 210.914ZM433.492 215.672H434.828C434.594 217.094 433.219 218.141 431.445 218.141C429.117 218.141 427.703 216.523 427.703 213.969C427.703 211.445 429.141 209.734 431.383 209.734C433.578 209.734 434.93 211.328 434.93 213.789V214.305H429.102V214.383C429.102 215.938 430.016 216.961 431.477 216.961C432.508 216.961 433.266 216.438 433.492 215.672ZM441.203 218H439.797V206.727H441.203V218ZM443.18 218V209.875H444.461V211.172H444.492C444.945 210.297 445.812 209.734 447.07 209.734C448.852 209.734 449.883 210.883 449.883 212.727V218H448.523V212.969C448.523 211.656 447.906 210.938 446.656 210.938C445.375 210.938 444.539 211.844 444.539 213.219V218H443.18ZM451.477 212.117C451.477 210.727 452.719 209.734 454.508 209.734C456.188 209.734 457.422 210.734 457.484 212.109H456.188C456.094 211.328 455.461 210.844 454.461 210.844C453.469 210.844 452.812 211.336 452.812 212.047C452.812 212.609 453.242 212.984 454.164 213.219L455.422 213.523C457.062 213.938 457.656 214.531 457.656 215.727C457.656 217.141 456.32 218.141 454.422 218.141C452.641 218.141 451.398 217.172 451.258 215.734H452.617C452.766 216.578 453.406 217.031 454.508 217.031C455.609 217.031 456.289 216.562 456.289 215.828C456.289 215.25 455.953 214.938 455.039 214.695L453.609 214.328C452.18 213.961 451.477 213.227 451.477 212.117ZM463.016 209.734C465.086 209.734 466.492 211.391 466.492 213.938C466.492 216.484 465.094 218.141 463.047 218.141C461.883 218.141 460.945 217.57 460.461 216.68H460.43V220.711H459.07V209.875H460.359V211.25H460.391C460.891 210.336 461.836 209.734 463.016 209.734ZM462.75 216.945C464.195 216.945 465.102 215.781 465.102 213.938C465.102 212.102 464.195 210.93 462.75 210.93C461.359 210.93 460.422 212.133 460.422 213.938C460.422 215.75 461.359 216.945 462.75 216.945ZM471.125 210.914C469.852 210.914 468.961 211.891 468.875 213.242H473.289C473.258 211.883 472.406 210.914 471.125 210.914ZM473.258 215.672H474.594C474.359 217.094 472.984 218.141 471.211 218.141C468.883 218.141 467.469 216.523 467.469 213.969C467.469 211.445 468.906 209.734 471.148 209.734C473.344 209.734 474.695 211.328 474.695 213.789V214.305H468.867V214.383C468.867 215.938 469.781 216.961 471.242 216.961C472.273 216.961 473.031 216.438 473.258 215.672ZM482.82 212.539H481.492C481.297 211.656 480.609 210.93 479.414 210.93C478.008 210.93 477.055 212.094 477.055 213.938C477.055 215.828 478.023 216.945 479.43 216.945C480.539 216.945 481.266 216.359 481.5 215.383H482.836C482.625 217 481.266 218.141 479.422 218.141C477.172 218.141 475.672 216.555 475.672 213.938C475.672 211.375 477.164 209.734 479.406 209.734C481.438 209.734 482.648 211.078 482.82 212.539ZM484.523 207.914H485.883V209.875H487.461V210.992H485.883V215.82C485.883 216.562 486.195 216.898 486.891 216.898C487.047 216.898 487.359 216.875 487.453 216.859V218C487.289 218.039 486.914 218.062 486.594 218.062C485.102 218.062 484.523 217.453 484.523 215.891V210.992H483.312V209.875H484.523V207.914ZM488.984 218V209.875H490.344V218H488.984ZM489.664 208.508C489.203 208.508 488.82 208.125 488.82 207.664C488.82 207.195 489.203 206.82 489.664 206.82C490.133 206.82 490.516 207.195 490.516 207.664C490.516 208.125 490.133 208.508 489.664 208.508ZM495.547 218.141C493.297 218.141 491.781 216.523 491.781 213.938C491.781 211.344 493.297 209.734 495.547 209.734C497.789 209.734 499.305 211.344 499.305 213.938C499.305 216.523 497.789 218.141 495.547 218.141ZM495.547 216.945C496.984 216.945 497.922 215.852 497.922 213.938C497.922 212.023 496.984 210.93 495.547 210.93C494.109 210.93 493.164 212.023 493.164 213.938C493.164 215.852 494.109 216.945 495.547 216.945ZM500.68 218V209.875H501.961V211.172H501.992C502.445 210.297 503.312 209.734 504.57 209.734C506.352 209.734 507.383 210.883 507.383 212.727V218H506.023V212.969C506.023 211.656 505.406 210.938 504.156 210.938C502.875 210.938 502.039 211.844 502.039 213.219V218H500.68Z" fill="#4040DA"/>
<path d="M581.789 218V208.219H581.758L578.773 210.367V208.883L581.773 206.727H583.148V218H581.789ZM585.938 209.977C585.938 208.008 587.531 206.539 589.656 206.539C591.672 206.539 593.258 207.906 593.258 209.633C593.258 210.891 592.688 211.828 590.805 213.773L587.953 216.719V216.75H593.445V218H586.008V217.031L589.977 212.852C591.492 211.258 591.852 210.656 591.852 209.719C591.852 208.633 590.859 207.766 589.617 207.766C588.297 207.766 587.297 208.719 587.297 209.977V209.984H585.938V209.977ZM609.641 218H608.328V209.312H608.273L604.68 217.922H603.492L599.898 209.312H599.844V218H598.531V206.727H600.164L604.055 216.133H604.117L608.008 206.727H609.641V218ZM614.984 218.141C612.734 218.141 611.219 216.523 611.219 213.938C611.219 211.344 612.734 209.734 614.984 209.734C617.227 209.734 618.742 211.344 618.742 213.938C618.742 216.523 617.227 218.141 614.984 218.141ZM614.984 216.945C616.422 216.945 617.359 215.852 617.359 213.938C617.359 212.023 616.422 210.93 614.984 210.93C613.547 210.93 612.602 212.023 612.602 213.938C612.602 215.852 613.547 216.945 614.984 216.945ZM620.117 218V209.875H621.398V211.172H621.43C621.883 210.297 622.75 209.734 624.008 209.734C625.789 209.734 626.82 210.883 626.82 212.727V218H625.461V212.969C625.461 211.656 624.844 210.938 623.594 210.938C622.312 210.938 621.477 211.844 621.477 213.219V218H620.117ZM628.992 207.914H630.352V209.875H631.93V210.992H630.352V215.82C630.352 216.562 630.664 216.898 631.359 216.898C631.516 216.898 631.828 216.875 631.922 216.859V218C631.758 218.039 631.383 218.062 631.062 218.062C629.57 218.062 628.992 217.453 628.992 215.891V210.992H627.781V209.875H628.992V207.914ZM633.453 218V206.727H634.812V211.172H634.844C635.297 210.266 636.188 209.734 637.422 209.734C639.203 209.734 640.281 210.938 640.281 212.75V218H638.922V213C638.922 211.711 638.273 210.938 637 210.938C635.648 210.938 634.812 211.859 634.812 213.266V218H633.453ZM641.867 212.117C641.867 210.727 643.109 209.734 644.898 209.734C646.578 209.734 647.812 210.734 647.875 212.109H646.578C646.484 211.328 645.852 210.844 644.852 210.844C643.859 210.844 643.203 211.336 643.203 212.047C643.203 212.609 643.633 212.984 644.555 213.219L645.812 213.523C647.453 213.938 648.047 214.531 648.047 215.727C648.047 217.141 646.711 218.141 644.812 218.141C643.031 218.141 641.789 217.172 641.648 215.734H643.008C643.156 216.578 643.797 217.031 644.898 217.031C646 217.031 646.68 216.562 646.68 215.828C646.68 215.25 646.344 214.938 645.43 214.695L644 214.328C642.57 213.961 641.867 213.227 641.867 212.117Z" fill="#4040DA"/>
<path d="M710.992 218.195C709.305 218.195 707.961 217.281 707.266 215.656C706.891 214.789 706.711 213.773 706.711 212.555C706.711 208.758 708.328 206.531 711.086 206.531C713 206.531 714.469 207.68 714.828 209.453H713.398C713.094 208.43 712.188 207.773 711.07 207.773C709.188 207.773 708.117 209.445 708.07 212.445H708.094C708.602 211.344 709.844 210.617 711.242 210.617C713.391 210.617 714.984 212.203 714.984 214.344C714.984 216.57 713.305 218.195 710.992 218.195ZM710.977 216.945C712.414 216.945 713.555 215.812 713.555 214.391C713.555 212.914 712.492 211.852 711 211.852C709.508 211.852 708.406 212.914 708.406 214.352C708.406 215.797 709.531 216.945 710.977 216.945ZM731.062 218H729.75V209.312H729.695L726.102 217.922H724.914L721.32 209.312H721.266V218H719.953V206.727H721.586L725.477 216.133H725.539L729.43 206.727H731.062V218ZM736.406 218.141C734.156 218.141 732.641 216.523 732.641 213.938C732.641 211.344 734.156 209.734 736.406 209.734C738.648 209.734 740.164 211.344 740.164 213.938C740.164 216.523 738.648 218.141 736.406 218.141ZM736.406 216.945C737.844 216.945 738.781 215.852 738.781 213.938C738.781 212.023 737.844 210.93 736.406 210.93C734.969 210.93 734.023 212.023 734.023 213.938C734.023 215.852 734.969 216.945 736.406 216.945ZM741.539 218V209.875H742.82V211.172H742.852C743.305 210.297 744.172 209.734 745.43 209.734C747.211 209.734 748.242 210.883 748.242 212.727V218H746.883V212.969C746.883 211.656 746.266 210.938 745.016 210.938C743.734 210.938 742.898 211.844 742.898 213.219V218H741.539ZM750.414 207.914H751.773V209.875H753.352V210.992H751.773V215.82C751.773 216.562 752.086 216.898 752.781 216.898C752.938 216.898 753.25 216.875 753.344 216.859V218C753.18 218.039 752.805 218.062 752.484 218.062C750.992 218.062 750.414 217.453 750.414 215.891V210.992H749.203V209.875H750.414V207.914ZM754.875 218V206.727H756.234V211.172H756.266C756.719 210.266 757.609 209.734 758.844 209.734C760.625 209.734 761.703 210.938 761.703 212.75V218H760.344V213C760.344 211.711 759.695 210.938 758.422 210.938C757.07 210.938 756.234 211.859 756.234 213.266V218H754.875ZM763.289 212.117C763.289 210.727 764.531 209.734 766.32 209.734C768 209.734 769.234 210.734 769.297 212.109H768C767.906 211.328 767.273 210.844 766.273 210.844C765.281 210.844 764.625 211.336 764.625 212.047C764.625 212.609 765.055 212.984 765.977 213.219L767.234 213.523C768.875 213.938 769.469 214.531 769.469 215.727C769.469 217.141 768.133 218.141 766.234 218.141C764.453 218.141 763.211 217.172 763.07 215.734H764.43C764.578 216.578 765.219 217.031 766.32 217.031C767.422 217.031 768.102 216.562 768.102 215.828C768.102 215.25 767.766 214.938 766.852 214.695L765.422 214.328C763.992 213.961 763.289 213.227 763.289 212.117Z" fill="#4040DA"/>
<mask id="path-11-inside-1_4918_1357" fill="white">
<path d="M78 242H810V302H78V242Z"/>
</mask>
<path d="M78 242H810V302H78V242Z" fill="white"/>
<path d="M810 301H78V303H810V301Z" fill="#E1E1E1" mask="url(#path-11-inside-1_4918_1357)"/>
<path d="M104.422 273L103.289 269.773H98.8047L97.6719 273H96.1953L100.352 261.727H101.742L105.898 273H104.422ZM101.023 263.438L99.2188 268.578H102.875L101.07 263.438H101.023ZM106.977 273V264.875H108.258V266.172H108.289C108.742 265.297 109.609 264.734 110.867 264.734C112.648 264.734 113.68 265.883 113.68 267.727V273H112.32V267.969C112.32 266.656 111.703 265.938 110.453 265.938C109.172 265.938 108.336 266.844 108.336 268.219V273H106.977ZM115.414 273V264.875H116.695V266.172H116.727C117.18 265.297 118.047 264.734 119.305 264.734C121.086 264.734 122.117 265.883 122.117 267.727V273H120.758V267.969C120.758 266.656 120.141 265.938 118.891 265.938C117.609 265.938 116.773 266.844 116.773 268.219V273H115.414ZM130.523 264.875V273H129.234V271.68H129.203C128.719 272.617 127.875 273.141 126.625 273.141C124.852 273.141 123.812 271.992 123.812 270.148V264.875H125.172V269.906C125.172 271.227 125.789 271.938 127.047 271.938C128.367 271.938 129.164 271.031 129.164 269.648V264.875H130.523ZM134.969 271.984C136.25 271.984 137.234 271.086 137.234 269.914V269.25L135.062 269.383C133.969 269.453 133.344 269.938 133.344 270.703C133.344 271.477 133.992 271.984 134.969 271.984ZM134.664 273.141C133.047 273.141 131.961 272.164 131.961 270.703C131.961 269.312 133.031 268.438 134.906 268.328L137.234 268.195V267.516C137.234 266.523 136.578 265.93 135.453 265.93C134.406 265.93 133.75 266.422 133.578 267.219H132.266C132.359 265.812 133.562 264.734 135.484 264.734C137.391 264.734 138.594 265.766 138.594 267.383V273H137.305V271.602H137.273C136.789 272.531 135.758 273.141 134.664 273.141ZM140.391 273V261.727H141.75V273H140.391ZM143.656 273V264.875H145.016V273H143.656ZM144.336 263.508C143.875 263.508 143.492 263.125 143.492 262.664C143.492 262.195 143.875 261.82 144.336 261.82C144.805 261.82 145.188 262.195 145.188 262.664C145.188 263.125 144.805 263.508 144.336 263.508ZM146.68 273V272.031L151.18 266.016V265.992H146.688V264.875H152.719V265.867L148.25 271.859V271.883H152.742V273H146.68ZM157.281 265.914C156.008 265.914 155.117 266.891 155.031 268.242H159.445C159.414 266.883 158.562 265.914 157.281 265.914ZM159.414 270.672H160.75C160.516 272.094 159.141 273.141 157.367 273.141C155.039 273.141 153.625 271.523 153.625 268.969C153.625 266.445 155.062 264.734 157.305 264.734C159.5 264.734 160.852 266.328 160.852 268.789V269.305H155.023V269.383C155.023 270.938 155.938 271.961 157.398 271.961C158.43 271.961 159.188 271.438 159.414 270.672ZM165.305 273.141C163.234 273.141 161.828 271.484 161.828 268.938C161.828 266.391 163.227 264.734 165.273 264.734C166.438 264.734 167.375 265.305 167.859 266.195H167.891V261.727H169.25V273H167.953V271.625H167.93C167.406 272.562 166.477 273.141 165.305 273.141ZM165.562 265.93C164.125 265.93 163.219 267.102 163.219 268.938C163.219 270.781 164.125 271.945 165.562 271.945C166.961 271.945 167.898 270.758 167.898 268.938C167.898 267.125 166.961 265.93 165.562 265.93ZM175.969 273H174.578V261.727H175.945L182.117 270.578H182.188V261.727H183.578V273H182.211L176.039 264.18H175.969V273ZM188.812 265.914C187.539 265.914 186.648 266.891 186.562 268.242H190.977C190.945 266.883 190.094 265.914 188.812 265.914ZM190.945 270.672H192.281C192.047 272.094 190.672 273.141 188.898 273.141C186.57 273.141 185.156 271.523 185.156 268.969C185.156 266.445 186.594 264.734 188.836 264.734C191.031 264.734 192.383 266.328 192.383 268.789V269.305H186.555V269.383C186.555 270.938 187.469 271.961 188.93 271.961C189.961 271.961 190.719 271.438 190.945 270.672ZM194.195 262.914H195.555V264.875H197.133V265.992H195.555V270.82C195.555 271.562 195.867 271.898 196.562 271.898C196.719 271.898 197.031 271.875 197.125 271.859V273C196.961 273.039 196.586 273.062 196.266 273.062C194.773 273.062 194.195 272.453 194.195 270.891V265.992H192.984V264.875H194.195V262.914ZM203.484 262.977V267.297H206.18C207.625 267.297 208.445 266.516 208.445 265.133C208.445 263.781 207.57 262.977 206.117 262.977H203.484ZM203.484 268.539V273H202.078V261.727H206.305C208.477 261.727 209.898 263.055 209.898 265.086C209.898 266.656 209.047 267.875 207.633 268.32L210.242 273H208.594L206.18 268.539H203.484ZM214.719 265.914C213.445 265.914 212.555 266.891 212.469 268.242H216.883C216.852 266.883 216 265.914 214.719 265.914ZM216.852 270.672H218.188C217.953 272.094 216.578 273.141 214.805 273.141C212.477 273.141 211.062 271.523 211.062 268.969C211.062 266.445 212.5 264.734 214.742 264.734C216.938 264.734 218.289 266.328 218.289 268.789V269.305H212.461V269.383C212.461 270.938 213.375 271.961 214.836 271.961C215.867 271.961 216.625 271.438 216.852 270.672ZM220.102 262.914H221.461V264.875H223.039V265.992H221.461V270.82C221.461 271.562 221.773 271.898 222.469 271.898C222.625 271.898 222.938 271.875 223.031 271.859V273C222.867 273.039 222.492 273.062 222.172 273.062C220.68 273.062 220.102 272.453 220.102 270.891V265.992H218.891V264.875H220.102V262.914ZM231.164 264.875V273H229.875V271.68H229.844C229.359 272.617 228.516 273.141 227.266 273.141C225.492 273.141 224.453 271.992 224.453 270.148V264.875H225.812V269.906C225.812 271.227 226.43 271.938 227.688 271.938C229.008 271.938 229.805 271.031 229.805 269.648V264.875H231.164ZM232.93 273V264.875H234.211V266.203H234.242C234.508 265.305 235.258 264.734 236.211 264.734C236.445 264.734 236.648 264.773 236.758 264.789V266.109C236.648 266.07 236.359 266.031 236.031 266.031C234.977 266.031 234.289 266.789 234.289 267.938V273H232.93ZM237.867 273V264.875H239.148V266.172H239.18C239.633 265.297 240.5 264.734 241.758 264.734C243.539 264.734 244.57 265.883 244.57 267.727V273H243.211V267.969C243.211 266.656 242.594 265.938 241.344 265.938C240.062 265.938 239.227 266.844 239.227 268.219V273H237.867ZM246.164 267.117C246.164 265.727 247.406 264.734 249.195 264.734C250.875 264.734 252.109 265.734 252.172 267.109H250.875C250.781 266.328 250.148 265.844 249.148 265.844C248.156 265.844 247.5 266.336 247.5 267.047C247.5 267.609 247.93 267.984 248.852 268.219L250.109 268.523C251.75 268.938 252.344 269.531 252.344 270.727C252.344 272.141 251.008 273.141 249.109 273.141C247.328 273.141 246.086 272.172 245.945 270.734H247.305C247.453 271.578 248.094 272.031 249.195 272.031C250.297 272.031 250.977 271.562 250.977 270.828C250.977 270.25 250.641 269.938 249.727 269.695L248.297 269.328C246.867 268.961 246.164 268.227 246.164 267.117Z" fill="#24242E"/>
<path d="M401.789 273V263.219H401.758L398.773 265.297V263.883L401.773 261.727H403.148V273H401.789ZM408.883 273V263.219H408.852L405.867 265.297V263.883L408.867 261.727H410.242V273H408.883ZM413.516 273.109C413.016 273.109 412.625 272.719 412.625 272.219C412.625 271.719 413.016 271.328 413.516 271.328C414.016 271.328 414.406 271.719 414.406 272.219C414.406 272.719 414.016 273.109 413.516 273.109ZM420.031 273.188C417.641 273.188 415.938 271.844 415.938 269.953V269.938C415.938 268.547 416.914 267.391 418.359 267.055V267.023C417.125 266.641 416.344 265.703 416.344 264.516V264.5C416.344 262.797 417.898 261.539 420.031 261.539C422.164 261.539 423.719 262.797 423.719 264.5V264.516C423.719 265.703 422.938 266.641 421.703 267.023V267.055C423.148 267.391 424.125 268.547 424.125 269.938V269.953C424.125 271.844 422.422 273.188 420.031 273.188ZM420.031 266.5C421.391 266.5 422.32 265.727 422.32 264.633V264.617C422.32 263.523 421.391 262.75 420.031 262.75C418.672 262.75 417.742 263.523 417.742 264.617V264.633C417.742 265.727 418.672 266.5 420.031 266.5ZM420.031 271.961C421.586 271.961 422.695 271.086 422.695 269.867V269.852C422.695 268.617 421.594 267.734 420.031 267.734C418.469 267.734 417.367 268.617 417.367 269.852V269.867C417.367 271.086 418.477 271.961 420.031 271.961ZM429.672 273.188C427.078 273.188 425.539 270.945 425.539 267.367V267.352C425.539 263.773 427.078 261.539 429.672 261.539C432.266 261.539 433.82 263.773 433.82 267.352V267.367C433.82 270.945 432.266 273.188 429.672 273.188ZM429.672 271.961C431.391 271.961 432.406 270.195 432.406 267.367V267.352C432.406 264.523 431.391 262.773 429.672 262.773C427.953 262.773 426.953 264.523 426.953 267.352V267.367C426.953 270.195 427.953 271.961 429.672 271.961ZM437.523 267.289C436.102 267.289 435.242 266.203 435.242 264.461V264.453C435.242 262.719 436.102 261.633 437.523 261.633C438.945 261.633 439.805 262.719 439.805 264.453V264.461C439.805 266.203 438.945 267.289 437.523 267.289ZM438.031 273H436.75L443.984 261.727H445.25L438.031 273ZM437.523 266.352C438.281 266.352 438.719 265.648 438.719 264.461V264.453C438.719 263.266 438.281 262.57 437.523 262.57C436.766 262.57 436.328 263.266 436.328 264.453V264.461C436.328 265.648 436.766 266.352 437.523 266.352ZM444.469 273.094C443.047 273.094 442.188 272.008 442.188 270.266V270.258C442.188 268.523 443.047 267.438 444.469 267.438C445.891 267.438 446.75 268.523 446.75 270.258V270.266C446.75 272.008 445.891 273.094 444.469 273.094ZM444.469 272.156C445.227 272.156 445.664 271.453 445.664 270.266V270.258C445.664 269.07 445.227 268.375 444.469 268.375C443.711 268.375 443.273 269.07 443.273 270.258V270.266C443.273 271.453 443.711 272.156 444.469 272.156Z" fill="#24242E"/>
<path d="M581.789 273V263.219H581.758L578.773 265.297V263.883L581.773 261.727H583.148V273H581.789ZM589.805 273.188C587.477 273.188 585.969 271.891 585.82 270.109L585.812 270.016H587.164L587.172 270.094C587.289 271.203 588.305 271.969 589.805 271.969C591.281 271.969 592.289 271.141 592.289 269.945V269.93C592.289 268.547 591.297 267.773 589.719 267.773H588.305V266.586H589.656C591 266.586 591.938 265.758 591.938 264.633V264.617C591.938 263.438 591.164 262.758 589.789 262.758C588.461 262.758 587.516 263.461 587.398 264.602L587.391 264.68H586.039L586.047 264.602C586.227 262.766 587.68 261.539 589.789 261.539C591.938 261.539 593.352 262.734 593.352 264.445V264.461C593.352 265.852 592.367 266.805 590.961 267.102V267.133C592.602 267.273 593.719 268.297 593.719 269.898V269.914C593.719 271.797 592.062 273.188 589.805 273.188ZM596.047 273.109C595.547 273.109 595.156 272.719 595.156 272.219C595.156 271.719 595.547 271.328 596.047 271.328C596.547 271.328 596.938 271.719 596.938 272.219C596.938 272.719 596.547 273.109 596.047 273.109ZM602.609 273.188C600.016 273.188 598.477 270.945 598.477 267.367V267.352C598.477 263.773 600.016 261.539 602.609 261.539C605.203 261.539 606.758 263.773 606.758 267.352V267.367C606.758 270.945 605.203 273.188 602.609 273.188ZM602.609 271.961C604.328 271.961 605.344 270.195 605.344 267.367V267.352C605.344 264.523 604.328 262.773 602.609 262.773C600.891 262.773 599.891 264.523 599.891 267.352V267.367C599.891 270.195 600.891 271.961 602.609 271.961ZM612.18 273.188C609.852 273.188 608.344 271.891 608.195 270.109L608.188 270.016H609.539L609.547 270.094C609.664 271.203 610.68 271.969 612.18 271.969C613.656 271.969 614.664 271.141 614.664 269.945V269.93C614.664 268.547 613.672 267.773 612.094 267.773H610.68V266.586H612.031C613.375 266.586 614.312 265.758 614.312 264.633V264.617C614.312 263.438 613.539 262.758 612.164 262.758C610.836 262.758 609.891 263.461 609.773 264.602L609.766 264.68H608.414L608.422 264.602C608.602 262.766 610.055 261.539 612.164 261.539C614.312 261.539 615.727 262.734 615.727 264.445V264.461C615.727 265.852 614.742 266.805 613.336 267.102V267.133C614.977 267.273 616.094 268.297 616.094 269.898V269.914C616.094 271.797 614.438 273.188 612.18 273.188ZM619.93 267.289C618.508 267.289 617.648 266.203 617.648 264.461V264.453C617.648 262.719 618.508 261.633 619.93 261.633C621.352 261.633 622.211 262.719 622.211 264.453V264.461C622.211 266.203 621.352 267.289 619.93 267.289ZM620.438 273H619.156L626.391 261.727H627.656L620.438 273ZM619.93 266.352C620.688 266.352 621.125 265.648 621.125 264.461V264.453C621.125 263.266 620.688 262.57 619.93 262.57C619.172 262.57 618.734 263.266 618.734 264.453V264.461C618.734 265.648 619.172 266.352 619.93 266.352ZM626.875 273.094C625.453 273.094 624.594 272.008 624.594 270.266V270.258C624.594 268.523 625.453 267.438 626.875 267.438C628.297 267.438 629.156 268.523 629.156 270.258V270.266C629.156 272.008 628.297 273.094 626.875 273.094ZM626.875 272.156C627.633 272.156 628.07 271.453 628.07 270.266V270.258C628.07 269.07 627.633 268.375 626.875 268.375C626.117 268.375 625.68 269.07 625.68 270.258V270.266C625.68 271.453 626.117 272.156 626.875 272.156Z" fill="#24242E"/>
<path d="M709.789 273V263.219H709.758L706.773 265.297V263.883L709.773 261.727H711.148V273H709.789ZM714.008 273V272.031L717.977 267.891C719.5 266.305 719.852 265.695 719.852 264.758V264.742C719.844 263.594 718.977 262.766 717.75 262.766C716.344 262.766 715.297 263.734 715.297 264.945V264.984H713.938V264.938C713.938 262.984 715.625 261.539 717.727 261.539C719.766 261.539 721.258 262.906 721.258 264.672V264.688C721.258 265.922 720.688 266.852 718.617 268.969L715.938 271.719V271.75H721.445V273H714.008ZM723.875 273.109C723.375 273.109 722.984 272.719 722.984 272.219C722.984 271.719 723.375 271.328 723.875 271.328C724.375 271.328 724.766 271.719 724.766 272.219C724.766 272.719 724.375 273.109 723.875 273.109ZM726.508 273V272.031L730.477 267.891C732 266.305 732.352 265.695 732.352 264.758V264.742C732.344 263.594 731.477 262.766 730.25 262.766C728.844 262.766 727.797 263.734 727.797 264.945V264.984H726.438V264.938C726.438 262.984 728.125 261.539 730.227 261.539C732.266 261.539 733.758 262.906 733.758 264.672V264.688C733.758 265.922 733.188 266.852 731.117 268.969L728.438 271.719V271.75H733.945V273H726.508ZM736.219 273L741.32 263.008V262.977H735.25V261.727H742.711V263.031L737.695 273H736.219ZM746.398 267.289C744.977 267.289 744.117 266.203 744.117 264.461V264.453C744.117 262.719 744.977 261.633 746.398 261.633C747.82 261.633 748.68 262.719 748.68 264.453V264.461C748.68 266.203 747.82 267.289 746.398 267.289ZM746.906 273H745.625L752.859 261.727H754.125L746.906 273ZM746.398 266.352C747.156 266.352 747.594 265.648 747.594 264.461V264.453C747.594 263.266 747.156 262.57 746.398 262.57C745.641 262.57 745.203 263.266 745.203 264.453V264.461C745.203 265.648 745.641 266.352 746.398 266.352ZM753.344 273.094C751.922 273.094 751.062 272.008 751.062 270.266V270.258C751.062 268.523 751.922 267.438 753.344 267.438C754.766 267.438 755.625 268.523 755.625 270.258V270.266C755.625 272.008 754.766 273.094 753.344 273.094ZM753.344 272.156C754.102 272.156 754.539 271.453 754.539 270.266V270.258C754.539 269.07 754.102 268.375 753.344 268.375C752.586 268.375 752.148 269.07 752.148 270.258V270.266C752.148 271.453 752.586 272.156 753.344 272.156Z" fill="#24242E"/>
<mask id="path-17-inside-2_4918_1357" fill="white">
<path d="M78 302H810V362H78V302Z"/>
</mask>
<path d="M78 302H810V362H78V302Z" fill="white"/>
<path d="M810 361H78V363H810V361Z" fill="#E1E1E1" mask="url(#path-17-inside-2_4918_1357)"/>
<path d="M104.078 336.734V338H97.0938V326.727H104.078V327.992H98.5V331.609H103.789V332.859H98.5V336.734H104.078ZM108.602 334.906H108.57L106.609 338H105.102L107.867 333.938L105.148 329.875H106.664L108.617 332.922H108.648L110.578 329.875H112.094L109.352 333.883L112.055 338H110.547L108.602 334.906ZM119.836 332.539H118.508C118.312 331.656 117.625 330.93 116.43 330.93C115.023 330.93 114.07 332.094 114.07 333.938C114.07 335.828 115.039 336.945 116.445 336.945C117.555 336.945 118.281 336.359 118.516 335.383H119.852C119.641 337 118.281 338.141 116.438 338.141C114.188 338.141 112.688 336.555 112.688 333.938C112.688 331.375 114.18 329.734 116.422 329.734C118.453 329.734 119.664 331.078 119.836 332.539ZM124.359 330.914C123.086 330.914 122.195 331.891 122.109 333.242H126.523C126.492 331.883 125.641 330.914 124.359 330.914ZM126.492 335.672H127.828C127.594 337.094 126.219 338.141 124.445 338.141C122.117 338.141 120.703 336.523 120.703 333.969C120.703 331.445 122.141 329.734 124.383 329.734C126.578 329.734 127.93 331.328 127.93 333.789V334.305H122.102V334.383C122.102 335.938 123.016 336.961 124.477 336.961C125.508 336.961 126.266 336.438 126.492 335.672ZM129.164 332.117C129.164 330.727 130.406 329.734 132.195 329.734C133.875 329.734 135.109 330.734 135.172 332.109H133.875C133.781 331.328 133.148 330.844 132.148 330.844C131.156 330.844 130.5 331.336 130.5 332.047C130.5 332.609 130.93 332.984 131.852 333.219L133.109 333.523C134.75 333.938 135.344 334.531 135.344 335.727C135.344 337.141 134.008 338.141 132.109 338.141C130.328 338.141 129.086 337.172 128.945 335.734H130.305C130.453 336.578 131.094 337.031 132.195 337.031C133.297 337.031 133.977 336.562 133.977 335.828C133.977 335.25 133.641 334.938 132.727 334.695L131.297 334.328C129.867 333.961 129.164 333.227 129.164 332.117ZM136.617 332.117C136.617 330.727 137.859 329.734 139.648 329.734C141.328 329.734 142.562 330.734 142.625 332.109H141.328C141.234 331.328 140.602 330.844 139.602 330.844C138.609 330.844 137.953 331.336 137.953 332.047C137.953 332.609 138.383 332.984 139.305 333.219L140.562 333.523C142.203 333.938 142.797 334.531 142.797 335.727C142.797 337.141 141.461 338.141 139.562 338.141C137.781 338.141 136.539 337.172 136.398 335.734H137.758C137.906 336.578 138.547 337.031 139.648 337.031C140.75 337.031 141.43 336.562 141.43 335.828C141.43 335.25 141.094 334.938 140.18 334.695L138.75 334.328C137.32 333.961 136.617 333.227 136.617 332.117ZM149.109 327.977V332.297H151.805C153.25 332.297 154.07 331.516 154.07 330.133C154.07 328.781 153.195 327.977 151.742 327.977H149.109ZM149.109 333.539V338H147.703V326.727H151.93C154.102 326.727 155.523 328.055 155.523 330.086C155.523 331.656 154.672 332.875 153.258 333.32L155.867 338H154.219L151.805 333.539H149.109ZM160.344 330.914C159.07 330.914 158.18 331.891 158.094 333.242H162.508C162.477 331.883 161.625 330.914 160.344 330.914ZM162.477 335.672H163.812C163.578 337.094 162.203 338.141 160.43 338.141C158.102 338.141 156.688 336.523 156.688 333.969C156.688 331.445 158.125 329.734 160.367 329.734C162.562 329.734 163.914 331.328 163.914 333.789V334.305H158.086V334.383C158.086 335.938 159 336.961 160.461 336.961C161.492 336.961 162.25 336.438 162.477 335.672ZM165.727 327.914H167.086V329.875H168.664V330.992H167.086V335.82C167.086 336.562 167.398 336.898 168.094 336.898C168.25 336.898 168.562 336.875 168.656 336.859V338C168.492 338.039 168.117 338.062 167.797 338.062C166.305 338.062 165.727 337.453 165.727 335.891V330.992H164.516V329.875H165.727V327.914ZM176.789 329.875V338H175.5V336.68H175.469C174.984 337.617 174.141 338.141 172.891 338.141C171.117 338.141 170.078 336.992 170.078 335.148V329.875H171.438V334.906C171.438 336.227 172.055 336.938 173.312 336.938C174.633 336.938 175.43 336.031 175.43 334.648V329.875H176.789ZM178.555 338V329.875H179.836V331.203H179.867C180.133 330.305 180.883 329.734 181.836 329.734C182.07 329.734 182.273 329.773 182.383 329.789V331.109C182.273 331.07 181.984 331.031 181.656 331.031C180.602 331.031 179.914 331.789 179.914 332.938V338H178.555ZM183.492 338V329.875H184.773V331.172H184.805C185.258 330.297 186.125 329.734 187.383 329.734C189.164 329.734 190.195 330.883 190.195 332.727V338H188.836V332.969C188.836 331.656 188.219 330.938 186.969 330.938C185.688 330.938 184.852 331.844 184.852 333.219V338H183.492ZM200.18 326.539C203.375 326.539 205.375 328.789 205.375 332.367C205.375 335.945 203.375 338.188 200.18 338.188C196.984 338.188 194.984 335.945 194.984 332.367C194.984 328.789 196.984 326.539 200.18 326.539ZM200.18 327.836C197.875 327.836 196.43 329.586 196.43 332.367C196.43 335.141 197.875 336.891 200.18 336.891C202.484 336.891 203.93 335.141 203.93 332.367C203.93 329.586 202.484 327.836 200.18 327.836ZM213.578 329.875L210.594 338H209.203L206.211 329.875H207.641L209.883 336.555H209.914L212.164 329.875H213.578ZM217.672 330.914C216.398 330.914 215.508 331.891 215.422 333.242H219.836C219.805 331.883 218.953 330.914 217.672 330.914ZM219.805 335.672H221.141C220.906 337.094 219.531 338.141 217.758 338.141C215.43 338.141 214.016 336.523 214.016 333.969C214.016 331.445 215.453 329.734 217.695 329.734C219.891 329.734 221.242 331.328 221.242 333.789V334.305H215.414V334.383C215.414 335.938 216.328 336.961 217.789 336.961C218.82 336.961 219.578 336.438 219.805 335.672ZM222.617 338V329.875H223.898V331.203H223.93C224.195 330.305 224.945 329.734 225.898 329.734C226.133 329.734 226.336 329.773 226.445 329.789V331.109C226.336 331.07 226.047 331.031 225.719 331.031C224.664 331.031 223.977 331.789 223.977 332.938V338H222.617ZM232.453 327.977V332.297H235.148C236.594 332.297 237.414 331.516 237.414 330.133C237.414 328.781 236.539 327.977 235.086 327.977H232.453ZM232.453 333.539V338H231.047V326.727H235.273C237.445 326.727 238.867 328.055 238.867 330.086C238.867 331.656 238.016 332.875 236.602 333.32L239.211 338H237.562L235.148 333.539H232.453ZM240.5 338V329.875H241.859V338H240.5ZM241.18 328.508C240.719 328.508 240.336 328.125 240.336 327.664C240.336 327.195 240.719 326.82 241.18 326.82C241.648 326.82 242.031 327.195 242.031 327.664C242.031 328.125 241.648 328.508 241.18 328.508ZM243.555 332.117C243.555 330.727 244.797 329.734 246.586 329.734C248.266 329.734 249.5 330.734 249.562 332.109H248.266C248.172 331.328 247.539 330.844 246.539 330.844C245.547 330.844 244.891 331.336 244.891 332.047C244.891 332.609 245.32 332.984 246.242 333.219L247.5 333.523C249.141 333.938 249.734 334.531 249.734 335.727C249.734 337.141 248.398 338.141 246.5 338.141C244.719 338.141 243.477 337.172 243.336 335.734H244.695C244.844 336.578 245.484 337.031 246.586 337.031C247.688 337.031 248.367 336.562 248.367 335.828C248.367 335.25 248.031 334.938 247.117 334.695L245.688 334.328C244.258 333.961 243.555 333.227 243.555 332.117ZM252.578 333.484L256.172 329.875H257.82L254.297 333.383L257.93 338H256.352L253.336 334.219L252.578 334.938V338H251.219V326.727H252.578V333.484ZM263.812 338H262.406V326.727H269.25V327.992H263.812V331.867H268.805V333.117H263.812V338ZM270.648 338V329.875H271.93V331.203H271.961C272.227 330.305 272.977 329.734 273.93 329.734C274.164 329.734 274.367 329.773 274.477 329.789V331.109C274.367 331.07 274.078 331.031 273.75 331.031C272.695 331.031 272.008 331.789 272.008 332.938V338H270.648ZM278.453 330.914C277.18 330.914 276.289 331.891 276.203 333.242H280.617C280.586 331.883 279.734 330.914 278.453 330.914ZM280.586 335.672H281.922C281.688 337.094 280.312 338.141 278.539 338.141C276.211 338.141 274.797 336.523 274.797 333.969C274.797 331.445 276.234 329.734 278.477 329.734C280.672 329.734 282.023 331.328 282.023 333.789V334.305H276.195V334.383C276.195 335.938 277.109 336.961 278.57 336.961C279.602 336.961 280.359 336.438 280.586 335.672ZM286.656 330.914C285.383 330.914 284.492 331.891 284.406 333.242H288.82C288.789 331.883 287.938 330.914 286.656 330.914ZM288.789 335.672H290.125C289.891 337.094 288.516 338.141 286.742 338.141C284.414 338.141 283 336.523 283 333.969C283 331.445 284.438 329.734 286.68 329.734C288.875 329.734 290.227 331.328 290.227 333.789V334.305H284.398V334.383C284.398 335.938 285.312 336.961 286.773 336.961C287.805 336.961 288.562 336.438 288.789 335.672Z" fill="#24242E"/>
<path d="M404.273 338V335.656H398.609V334.383L403.555 326.727H405.633V334.422H407.227V335.656H405.633V338H404.273ZM400 334.422H404.273V327.93H404.227L400 334.391V334.422ZM409.391 338.109C408.891 338.109 408.5 337.719 408.5 337.219C408.5 336.719 408.891 336.328 409.391 336.328C409.891 336.328 410.281 336.719 410.281 337.219C410.281 337.719 409.891 338.109 409.391 338.109ZM412.203 338L417.305 328.008V327.977H411.234V326.727H418.695V328.031L413.68 338H412.203ZM424.18 338.188C422.023 338.188 420.484 336.844 420.32 335.008L420.312 334.922H421.695L421.703 334.984C421.844 336.102 422.844 336.953 424.195 336.953C425.727 336.953 426.789 335.891 426.789 334.375V334.359C426.781 332.875 425.711 331.812 424.219 331.812C423.453 331.812 422.797 332.039 422.297 332.492C422.094 332.68 421.914 332.898 421.766 333.156H420.523L421.102 326.727H427.555V327.977H422.258L421.875 331.766H421.906C422.438 331.008 423.375 330.602 424.469 330.602C426.633 330.602 428.195 332.172 428.195 334.336V334.352C428.188 336.609 426.523 338.188 424.18 338.188ZM431.742 332.289C430.32 332.289 429.461 331.203 429.461 329.461V329.453C429.461 327.719 430.32 326.633 431.742 326.633C433.164 326.633 434.023 327.719 434.023 329.453V329.461C434.023 331.203 433.164 332.289 431.742 332.289ZM432.25 338H430.969L438.203 326.727H439.469L432.25 338ZM431.742 331.352C432.5 331.352 432.938 330.648 432.938 329.461V329.453C432.938 328.266 432.5 327.57 431.742 327.57C430.984 327.57 430.547 328.266 430.547 329.453V329.461C430.547 330.648 430.984 331.352 431.742 331.352ZM438.688 338.094C437.266 338.094 436.406 337.008 436.406 335.266V335.258C436.406 333.523 437.266 332.438 438.688 332.438C440.109 332.438 440.969 333.523 440.969 335.258V335.266C440.969 337.008 440.109 338.094 438.688 338.094ZM438.688 337.156C439.445 337.156 439.883 336.453 439.883 335.266V335.258C439.883 334.07 439.445 333.375 438.688 333.375C437.93 333.375 437.492 334.07 437.492 335.258V335.266C437.492 336.453 437.93 337.156 438.688 337.156Z" fill="#24242E"/>
<path d="M582.789 338.188C580.633 338.188 579.094 336.844 578.93 335.008L578.922 334.922H580.305L580.312 334.984C580.453 336.102 581.453 336.953 582.805 336.953C584.336 336.953 585.398 335.891 585.398 334.375V334.359C585.391 332.875 584.32 331.812 582.828 331.812C582.062 331.812 581.406 332.039 580.906 332.492C580.703 332.68 580.523 332.898 580.375 333.156H579.133L579.711 326.727H586.164V327.977H580.867L580.484 331.766H580.516C581.047 331.008 581.984 330.602 583.078 330.602C585.242 330.602 586.805 332.172 586.805 334.336V334.352C586.797 336.609 585.133 338.188 582.789 338.188ZM589.078 338.109C588.578 338.109 588.188 337.719 588.188 337.219C588.188 336.719 588.578 336.328 589.078 336.328C589.578 336.328 589.969 336.719 589.969 337.219C589.969 337.719 589.578 338.109 589.078 338.109ZM595.742 338.188C593.586 338.188 592.047 336.844 591.883 335.008L591.875 334.922H593.258L593.266 334.984C593.406 336.102 594.406 336.953 595.758 336.953C597.289 336.953 598.352 335.891 598.352 334.375V334.359C598.344 332.875 597.273 331.812 595.781 331.812C595.016 331.812 594.359 332.039 593.859 332.492C593.656 332.68 593.477 332.898 593.328 333.156H592.086L592.664 326.727H599.117V327.977H593.82L593.438 331.766H593.469C594 331.008 594.938 330.602 596.031 330.602C598.195 330.602 599.758 332.172 599.758 334.336V334.352C599.75 336.609 598.086 338.188 595.742 338.188ZM605.156 338.188C602.562 338.188 601.023 335.945 601.023 332.367V332.352C601.023 328.773 602.562 326.539 605.156 326.539C607.75 326.539 609.305 328.773 609.305 332.352V332.367C609.305 335.945 607.75 338.188 605.156 338.188ZM605.156 336.961C606.875 336.961 607.891 335.195 607.891 332.367V332.352C607.891 329.523 606.875 327.773 605.156 327.773C603.438 327.773 602.438 329.523 602.438 332.352V332.367C602.438 335.195 603.438 336.961 605.156 336.961ZM613.008 332.289C611.586 332.289 610.727 331.203 610.727 329.461V329.453C610.727 327.719 611.586 326.633 613.008 326.633C614.43 326.633 615.289 327.719 615.289 329.453V329.461C615.289 331.203 614.43 332.289 613.008 332.289ZM613.516 338H612.234L619.469 326.727H620.734L613.516 338ZM613.008 331.352C613.766 331.352 614.203 330.648 614.203 329.461V329.453C614.203 328.266 613.766 327.57 613.008 327.57C612.25 327.57 611.812 328.266 611.812 329.453V329.461C611.812 330.648 612.25 331.352 613.008 331.352ZM619.953 338.094C618.531 338.094 617.672 337.008 617.672 335.266V335.258C617.672 333.523 618.531 332.438 619.953 332.438C621.375 332.438 622.234 333.523 622.234 335.258V335.266C622.234 337.008 621.375 338.094 619.953 338.094ZM619.953 337.156C620.711 337.156 621.148 336.453 621.148 335.266V335.258C621.148 334.07 620.711 333.375 619.953 333.375C619.195 333.375 618.758 334.07 618.758 335.258V335.266C618.758 336.453 619.195 337.156 619.953 337.156Z" fill="#24242E"/>
<path d="M713.273 338V335.656H707.609V334.383L712.555 326.727H714.633V334.422H716.227V335.656H714.633V338H713.273ZM709 334.422H713.273V327.93H713.227L709 334.391V334.422ZM718.391 338.109C717.891 338.109 717.5 337.719 717.5 337.219C717.5 336.719 717.891 336.328 718.391 336.328C718.891 336.328 719.281 336.719 719.281 337.219C719.281 337.719 718.891 338.109 718.391 338.109ZM725.148 326.539C727.227 326.539 729.43 327.977 729.43 332.156V332.172C729.43 335.969 727.812 338.188 725.055 338.188C723.141 338.188 721.711 337.094 721.336 335.453L721.312 335.352H722.742L722.773 335.438C723.109 336.367 723.914 336.945 725.07 336.945C727.172 336.945 728 334.906 728.062 332.539C728.07 332.461 728.07 332.383 728.07 332.297H728.039C727.586 333.297 726.43 334.109 724.898 334.109C722.75 334.109 721.156 332.523 721.156 330.383V330.367C721.156 328.148 722.844 326.539 725.148 326.539ZM725.141 332.875C726.617 332.875 727.734 331.828 727.734 330.391V330.383C727.734 328.938 726.609 327.789 725.164 327.789C723.727 327.789 722.586 328.914 722.586 330.336V330.352C722.586 331.82 723.656 332.875 725.141 332.875ZM731.391 338L736.492 328.008V327.977H730.422V326.727H737.883V328.031L732.867 338H731.391ZM741.57 332.289C740.148 332.289 739.289 331.203 739.289 329.461V329.453C739.289 327.719 740.148 326.633 741.57 326.633C742.992 326.633 743.852 327.719 743.852 329.453V329.461C743.852 331.203 742.992 332.289 741.57 332.289ZM742.078 338H740.797L748.031 326.727H749.297L742.078 338ZM741.57 331.352C742.328 331.352 742.766 330.648 742.766 329.461V329.453C742.766 328.266 742.328 327.57 741.57 327.57C740.812 327.57 740.375 328.266 740.375 329.453V329.461C740.375 330.648 740.812 331.352 741.57 331.352ZM748.516 338.094C747.094 338.094 746.234 337.008 746.234 335.266V335.258C746.234 333.523 747.094 332.438 748.516 332.438C749.938 332.438 750.797 333.523 750.797 335.258V335.266C750.797 337.008 749.938 338.094 748.516 338.094ZM748.516 337.156C749.273 337.156 749.711 336.453 749.711 335.266V335.258C749.711 334.07 749.273 333.375 748.516 333.375C747.758 333.375 747.32 334.07 747.32 335.258V335.266C747.32 336.453 747.758 337.156 748.516 337.156Z" fill="#24242E"/>
<mask id="path-23-inside-3_4918_1357" fill="white">
<path d="M78 362H810V422H78V362Z"/>
</mask>
<path d="M78 362H810V422H78V362Z" fill="white"/>
<path d="M810 421H78V423H810V421Z" fill="#E1E1E1" mask="url(#path-23-inside-3_4918_1357)"/>
<path d="M101.734 398.188C98.625 398.188 96.6562 395.93 96.6562 392.359C96.6562 388.82 98.6484 386.539 101.734 386.539C104.188 386.539 106.055 388.031 106.414 390.281H104.992C104.633 388.805 103.344 387.836 101.734 387.836C99.5312 387.836 98.1016 389.617 98.1016 392.359C98.1016 395.125 99.5156 396.891 101.742 396.891C103.398 396.891 104.586 396.094 104.992 394.719H106.414C105.898 396.945 104.227 398.188 101.734 398.188ZM107.867 398V389.875H109.148V391.203H109.18C109.445 390.305 110.195 389.734 111.148 389.734C111.383 389.734 111.586 389.773 111.695 389.789V391.109C111.586 391.07 111.297 391.031 110.969 391.031C109.914 391.031 109.227 391.789 109.227 392.938V398H107.867ZM112.875 398V389.875H114.234V398H112.875ZM113.555 388.508C113.094 388.508 112.711 388.125 112.711 387.664C112.711 387.195 113.094 386.82 113.555 386.82C114.023 386.82 114.406 387.195 114.406 387.664C114.406 388.125 114.023 388.508 113.555 388.508ZM115.93 392.117C115.93 390.727 117.172 389.734 118.961 389.734C120.641 389.734 121.875 390.734 121.938 392.109H120.641C120.547 391.328 119.914 390.844 118.914 390.844C117.922 390.844 117.266 391.336 117.266 392.047C117.266 392.609 117.695 392.984 118.617 393.219L119.875 393.523C121.516 393.938 122.109 394.531 122.109 395.727C122.109 397.141 120.773 398.141 118.875 398.141C117.094 398.141 115.852 397.172 115.711 395.734H117.07C117.219 396.578 117.859 397.031 118.961 397.031C120.062 397.031 120.742 396.562 120.742 395.828C120.742 395.25 120.406 394.938 119.492 394.695L118.062 394.328C116.633 393.961 115.93 393.227 115.93 392.117ZM123.594 398V389.875H124.953V398H123.594ZM124.273 388.508C123.812 388.508 123.43 388.125 123.43 387.664C123.43 387.195 123.812 386.82 124.273 386.82C124.742 386.82 125.125 387.195 125.125 387.664C125.125 388.125 124.742 388.508 124.273 388.508ZM126.859 398V386.727H128.219V398H126.859ZM138.188 398.188C135.078 398.188 133.109 395.93 133.109 392.359C133.109 388.82 135.102 386.539 138.188 386.539C140.641 386.539 142.508 388.031 142.867 390.281H141.445C141.086 388.805 139.797 387.836 138.188 387.836C135.984 387.836 134.555 389.617 134.555 392.359C134.555 395.125 135.969 396.891 138.195 396.891C139.852 396.891 141.039 396.094 141.445 394.719H142.867C142.352 396.945 140.68 398.188 138.188 398.188ZM147.688 398.141C145.438 398.141 143.922 396.523 143.922 393.938C143.922 391.344 145.438 389.734 147.688 389.734C149.93 389.734 151.445 391.344 151.445 393.938C151.445 396.523 149.93 398.141 147.688 398.141ZM147.688 396.945C149.125 396.945 150.062 395.852 150.062 393.938C150.062 392.023 149.125 390.93 147.688 390.93C146.25 390.93 145.305 392.023 145.305 393.938C145.305 395.852 146.25 396.945 147.688 396.945ZM152.82 398V389.875H154.102V391.172H154.133C154.516 390.312 155.344 389.734 156.438 389.734C157.547 389.734 158.367 390.297 158.719 391.281H158.75C159.203 390.312 160.156 389.734 161.297 389.734C162.906 389.734 163.945 390.781 163.945 392.391V398H162.586V392.703C162.586 391.594 161.969 390.938 160.898 390.938C159.82 390.938 159.062 391.734 159.062 392.836V398H157.703V392.555C157.703 391.578 157.047 390.938 156.039 390.938C154.961 390.938 154.18 391.781 154.18 392.906V398H152.82ZM169.625 389.734C171.695 389.734 173.102 391.391 173.102 393.938C173.102 396.484 171.703 398.141 169.656 398.141C168.492 398.141 167.555 397.57 167.07 396.68H167.039V400.711H165.68V389.875H166.969V391.25H167C167.5 390.336 168.445 389.734 169.625 389.734ZM169.359 396.945C170.805 396.945 171.711 395.781 171.711 393.938C171.711 392.102 170.805 390.93 169.359 390.93C167.969 390.93 167.031 392.133 167.031 393.938C167.031 395.75 167.969 396.945 169.359 396.945ZM177.844 398.141C175.594 398.141 174.078 396.523 174.078 393.938C174.078 391.344 175.594 389.734 177.844 389.734C180.086 389.734 181.602 391.344 181.602 393.938C181.602 396.523 180.086 398.141 177.844 398.141ZM177.844 396.945C179.281 396.945 180.219 395.852 180.219 393.938C180.219 392.023 179.281 390.93 177.844 390.93C176.406 390.93 175.461 392.023 175.461 393.938C175.461 395.852 176.406 396.945 177.844 396.945ZM182.836 392.117C182.836 390.727 184.078 389.734 185.867 389.734C187.547 389.734 188.781 390.734 188.844 392.109H187.547C187.453 391.328 186.82 390.844 185.82 390.844C184.828 390.844 184.172 391.336 184.172 392.047C184.172 392.609 184.602 392.984 185.523 393.219L186.781 393.523C188.422 393.938 189.016 394.531 189.016 395.727C189.016 397.141 187.68 398.141 185.781 398.141C184 398.141 182.758 397.172 182.617 395.734H183.977C184.125 396.578 184.766 397.031 185.867 397.031C186.969 397.031 187.648 396.562 187.648 395.828C187.648 395.25 187.312 394.938 186.398 394.695L184.969 394.328C183.539 393.961 182.836 393.227 182.836 392.117ZM190.5 398V389.875H191.859V398H190.5ZM191.18 388.508C190.719 388.508 190.336 388.125 190.336 387.664C190.336 387.195 190.719 386.82 191.18 386.82C191.648 386.82 192.031 387.195 192.031 387.664C192.031 388.125 191.648 388.508 191.18 388.508ZM194.133 387.914H195.492V389.875H197.07V390.992H195.492V395.82C195.492 396.562 195.805 396.898 196.5 396.898C196.656 396.898 196.969 396.875 197.062 396.859V398C196.898 398.039 196.523 398.062 196.203 398.062C194.711 398.062 194.133 397.453 194.133 395.891V390.992H192.922V389.875H194.133V387.914ZM201.547 390.914C200.273 390.914 199.383 391.891 199.297 393.242H203.711C203.68 391.883 202.828 390.914 201.547 390.914ZM203.68 395.672H205.016C204.781 397.094 203.406 398.141 201.633 398.141C199.305 398.141 197.891 396.523 197.891 393.969C197.891 391.445 199.328 389.734 201.57 389.734C203.766 389.734 205.117 391.328 205.117 393.789V394.305H199.289V394.383C199.289 395.938 200.203 396.961 201.664 396.961C202.695 396.961 203.453 396.438 203.68 395.672ZM214.242 398H209.984V386.727H214.258C216.188 386.727 217.492 387.852 217.492 389.539C217.492 390.711 216.633 391.805 215.547 392V392.062C217.078 392.258 218.062 393.336 218.062 394.836C218.062 396.82 216.641 398 214.242 398ZM211.391 387.969V391.586H213.5C215.164 391.586 216.07 390.922 216.07 389.703C216.07 388.586 215.305 387.969 213.938 387.969H211.391ZM211.391 396.758H214.031C215.727 396.758 216.617 396.07 216.617 394.766C216.617 393.461 215.695 392.797 213.898 392.797H211.391V396.758ZM222.812 398.141C220.562 398.141 219.047 396.523 219.047 393.938C219.047 391.344 220.562 389.734 222.812 389.734C225.055 389.734 226.57 391.344 226.57 393.938C226.57 396.523 225.055 398.141 222.812 398.141ZM222.812 396.945C224.25 396.945 225.188 395.852 225.188 393.938C225.188 392.023 224.25 390.93 222.812 390.93C221.375 390.93 220.43 392.023 220.43 393.938C220.43 395.852 221.375 396.945 222.812 396.945ZM227.945 398V389.875H229.227V391.172H229.258C229.711 390.297 230.578 389.734 231.836 389.734C233.617 389.734 234.648 390.883 234.648 392.727V398H233.289V392.969C233.289 391.656 232.672 390.938 231.422 390.938C230.141 390.938 229.305 391.844 229.305 393.219V398H227.945ZM239.461 398.141C237.391 398.141 235.984 396.484 235.984 393.938C235.984 391.391 237.383 389.734 239.43 389.734C240.594 389.734 241.531 390.305 242.016 391.195H242.047V386.727H243.406V398H242.109V396.625H242.086C241.562 397.562 240.633 398.141 239.461 398.141ZM239.719 390.93C238.281 390.93 237.375 392.102 237.375 393.938C237.375 395.781 238.281 396.945 239.719 396.945C241.117 396.945 242.055 395.758 242.055 393.938C242.055 392.125 241.117 390.93 239.719 390.93ZM250.141 398H248.734V386.727H255.578V387.992H250.141V391.867H255.133V393.117H250.141V398ZM263.648 389.875V398H262.359V396.68H262.328C261.844 397.617 261 398.141 259.75 398.141C257.977 398.141 256.938 396.992 256.938 395.148V389.875H258.297V394.906C258.297 396.227 258.914 396.938 260.172 396.938C261.492 396.938 262.289 396.031 262.289 394.648V389.875H263.648ZM265.414 398V389.875H266.695V391.172H266.727C267.18 390.297 268.047 389.734 269.305 389.734C271.086 389.734 272.117 390.883 272.117 392.727V398H270.758V392.969C270.758 391.656 270.141 390.938 268.891 390.938C267.609 390.938 266.773 391.844 266.773 393.219V398H265.414ZM276.93 398.141C274.859 398.141 273.453 396.484 273.453 393.938C273.453 391.391 274.852 389.734 276.898 389.734C278.062 389.734 279 390.305 279.484 391.195H279.516V386.727H280.875V398H279.578V396.625H279.555C279.031 397.562 278.102 398.141 276.93 398.141ZM277.188 390.93C275.75 390.93 274.844 392.102 274.844 393.938C274.844 395.781 275.75 396.945 277.188 396.945C278.586 396.945 279.523 395.758 279.523 393.938C279.523 392.125 278.586 390.93 277.188 390.93ZM287.609 398H286.203V386.727H287.609V398ZM289.586 398V389.875H290.867V391.172H290.898C291.352 390.297 292.219 389.734 293.477 389.734C295.258 389.734 296.289 390.883 296.289 392.727V398H294.93V392.969C294.93 391.656 294.312 390.938 293.062 390.938C291.781 390.938 290.945 391.844 290.945 393.219V398H289.586ZM301.102 398.141C299.031 398.141 297.625 396.484 297.625 393.938C297.625 391.391 299.023 389.734 301.07 389.734C302.234 389.734 303.172 390.305 303.656 391.195H303.688V386.727H305.047V398H303.75V396.625H303.727C303.203 397.562 302.273 398.141 301.102 398.141ZM301.359 390.93C299.922 390.93 299.016 392.102 299.016 393.938C299.016 395.781 299.922 396.945 301.359 396.945C302.758 396.945 303.695 395.758 303.695 393.938C303.695 392.125 302.758 390.93 301.359 390.93ZM310.141 390.914C308.867 390.914 307.977 391.891 307.891 393.242H312.305C312.273 391.883 311.422 390.914 310.141 390.914ZM312.273 395.672H313.609C313.375 397.094 312 398.141 310.227 398.141C307.898 398.141 306.484 396.523 306.484 393.969C306.484 391.445 307.922 389.734 310.164 389.734C312.359 389.734 313.711 391.328 313.711 393.789V394.305H307.883V394.383C307.883 395.938 308.797 396.961 310.258 396.961C311.289 396.961 312.047 396.438 312.273 395.672ZM317.805 394.906H317.773L315.812 398H314.305L317.07 393.938L314.352 389.875H315.867L317.82 392.922H317.852L319.781 389.875H321.297L318.555 393.883L321.258 398H319.75L317.805 394.906Z" fill="#24242E"/>
<path d="M402.711 398.188C400.383 398.188 398.875 396.891 398.727 395.109L398.719 395.016H400.07L400.078 395.094C400.195 396.203 401.211 396.969 402.711 396.969C404.188 396.969 405.195 396.141 405.195 394.945V394.93C405.195 393.547 404.203 392.773 402.625 392.773H401.211V391.586H402.562C403.906 391.586 404.844 390.758 404.844 389.633V389.617C404.844 388.438 404.07 387.758 402.695 387.758C401.367 387.758 400.422 388.461 400.305 389.602L400.297 389.68H398.945L398.953 389.602C399.133 387.766 400.586 386.539 402.695 386.539C404.844 386.539 406.258 387.734 406.258 389.445V389.461C406.258 390.852 405.273 391.805 403.867 392.102V392.133C405.508 392.273 406.625 393.297 406.625 394.898V394.914C406.625 396.797 404.969 398.188 402.711 398.188ZM408.953 398.109C408.453 398.109 408.062 397.719 408.062 397.219C408.062 396.719 408.453 396.328 408.953 396.328C409.453 396.328 409.844 396.719 409.844 397.219C409.844 397.719 409.453 398.109 408.953 398.109ZM411.766 398L416.867 388.008V387.977H410.797V386.727H418.258V388.031L413.242 398H411.766ZM423.664 398.188C421.336 398.188 419.828 396.891 419.68 395.109L419.672 395.016H421.023L421.031 395.094C421.148 396.203 422.164 396.969 423.664 396.969C425.141 396.969 426.148 396.141 426.148 394.945V394.93C426.148 393.547 425.156 392.773 423.578 392.773H422.164V391.586H423.516C424.859 391.586 425.797 390.758 425.797 389.633V389.617C425.797 388.438 425.023 387.758 423.648 387.758C422.32 387.758 421.375 388.461 421.258 389.602L421.25 389.68H419.898L419.906 389.602C420.086 387.766 421.539 386.539 423.648 386.539C425.797 386.539 427.211 387.734 427.211 389.445V389.461C427.211 390.852 426.227 391.805 424.82 392.102V392.133C426.461 392.273 427.578 393.297 427.578 394.898V394.914C427.578 396.797 425.922 398.188 423.664 398.188ZM431.414 392.289C429.992 392.289 429.133 391.203 429.133 389.461V389.453C429.133 387.719 429.992 386.633 431.414 386.633C432.836 386.633 433.695 387.719 433.695 389.453V389.461C433.695 391.203 432.836 392.289 431.414 392.289ZM431.922 398H430.641L437.875 386.727H439.141L431.922 398ZM431.414 391.352C432.172 391.352 432.609 390.648 432.609 389.461V389.453C432.609 388.266 432.172 387.57 431.414 387.57C430.656 387.57 430.219 388.266 430.219 389.453V389.461C430.219 390.648 430.656 391.352 431.414 391.352ZM438.359 398.094C436.938 398.094 436.078 397.008 436.078 395.266V395.258C436.078 393.523 436.938 392.438 438.359 392.438C439.781 392.438 440.641 393.523 440.641 395.258V395.266C440.641 397.008 439.781 398.094 438.359 398.094ZM438.359 397.156C439.117 397.156 439.555 396.453 439.555 395.266V395.258C439.555 394.07 439.117 393.375 438.359 393.375C437.602 393.375 437.164 394.07 437.164 395.258V395.266C437.164 396.453 437.602 397.156 438.359 397.156Z" fill="#24242E"/>
<path d="M582.711 398.188C580.383 398.188 578.875 396.891 578.727 395.109L578.719 395.016H580.07L580.078 395.094C580.195 396.203 581.211 396.969 582.711 396.969C584.188 396.969 585.195 396.141 585.195 394.945V394.93C585.195 393.547 584.203 392.773 582.625 392.773H581.211V391.586H582.562C583.906 391.586 584.844 390.758 584.844 389.633V389.617C584.844 388.438 584.07 387.758 582.695 387.758C581.367 387.758 580.422 388.461 580.305 389.602L580.297 389.68H578.945L578.953 389.602C579.133 387.766 580.586 386.539 582.695 386.539C584.844 386.539 586.258 387.734 586.258 389.445V389.461C586.258 390.852 585.273 391.805 583.867 392.102V392.133C585.508 392.273 586.625 393.297 586.625 394.898V394.914C586.625 396.797 584.969 398.188 582.711 398.188ZM588.953 398.109C588.453 398.109 588.062 397.719 588.062 397.219C588.062 396.719 588.453 396.328 588.953 396.328C589.453 396.328 589.844 396.719 589.844 397.219C589.844 397.719 589.453 398.109 588.953 398.109ZM595.516 398.188C592.922 398.188 591.383 395.945 591.383 392.367V392.352C591.383 388.773 592.922 386.539 595.516 386.539C598.109 386.539 599.664 388.773 599.664 392.352V392.367C599.664 395.945 598.109 398.188 595.516 398.188ZM595.516 396.961C597.234 396.961 598.25 395.195 598.25 392.367V392.352C598.25 389.523 597.234 387.773 595.516 387.773C593.797 387.773 592.797 389.523 592.797 392.352V392.367C592.797 395.195 593.797 396.961 595.516 396.961ZM605.164 398.188C603.008 398.188 601.469 396.844 601.305 395.008L601.297 394.922H602.68L602.688 394.984C602.828 396.102 603.828 396.953 605.18 396.953C606.711 396.953 607.773 395.891 607.773 394.375V394.359C607.766 392.875 606.695 391.812 605.203 391.812C604.438 391.812 603.781 392.039 603.281 392.492C603.078 392.68 602.898 392.898 602.75 393.156H601.508L602.086 386.727H608.539V387.977H603.242L602.859 391.766H602.891C603.422 391.008 604.359 390.602 605.453 390.602C607.617 390.602 609.18 392.172 609.18 394.336V394.352C609.172 396.609 607.508 398.188 605.164 398.188ZM612.727 392.289C611.305 392.289 610.445 391.203 610.445 389.461V389.453C610.445 387.719 611.305 386.633 612.727 386.633C614.148 386.633 615.008 387.719 615.008 389.453V389.461C615.008 391.203 614.148 392.289 612.727 392.289ZM613.234 398H611.953L619.188 386.727H620.453L613.234 398ZM612.727 391.352C613.484 391.352 613.922 390.648 613.922 389.461V389.453C613.922 388.266 613.484 387.57 612.727 387.57C611.969 387.57 611.531 388.266 611.531 389.453V389.461C611.531 390.648 611.969 391.352 612.727 391.352ZM619.672 398.094C618.25 398.094 617.391 397.008 617.391 395.266V395.258C617.391 393.523 618.25 392.438 619.672 392.438C621.094 392.438 621.953 393.523 621.953 395.258V395.266C621.953 397.008 621.094 398.094 619.672 398.094ZM619.672 397.156C620.43 397.156 620.867 396.453 620.867 395.266V395.258C620.867 394.07 620.43 393.375 619.672 393.375C618.914 393.375 618.477 394.07 618.477 395.258V395.266C618.477 396.453 618.914 397.156 619.672 397.156Z" fill="#24242E"/>
<path d="M710.789 398V388.219H710.758L707.773 390.297V388.883L710.773 386.727H712.148V398H710.789ZM715.422 398.109C714.922 398.109 714.531 397.719 714.531 397.219C714.531 396.719 714.922 396.328 715.422 396.328C715.922 396.328 716.312 396.719 716.312 397.219C716.312 397.719 715.922 398.109 715.422 398.109ZM722.133 398.188C720.055 398.188 717.852 396.75 717.852 392.57V392.555C717.852 388.758 719.469 386.539 722.227 386.539C724.141 386.539 725.57 387.633 725.945 389.273L725.969 389.375H724.539L724.508 389.289C724.172 388.359 723.367 387.781 722.211 387.781C720.109 387.781 719.281 389.82 719.219 392.188C719.211 392.266 719.211 392.344 719.211 392.43H719.242C719.695 391.43 720.852 390.617 722.383 390.617C724.531 390.617 726.125 392.203 726.125 394.344V394.359C726.125 396.578 724.438 398.188 722.133 398.188ZM719.547 394.344C719.547 395.789 720.672 396.938 722.117 396.938C723.555 396.938 724.695 395.812 724.695 394.391V394.375C724.695 392.906 723.625 391.852 722.141 391.852C720.664 391.852 719.547 392.898 719.547 394.336V394.344ZM731.859 398.188C729.266 398.188 727.727 395.945 727.727 392.367V392.352C727.727 388.773 729.266 386.539 731.859 386.539C734.453 386.539 736.008 388.773 736.008 392.352V392.367C736.008 395.945 734.453 398.188 731.859 398.188ZM731.859 396.961C733.578 396.961 734.594 395.195 734.594 392.367V392.352C734.594 389.523 733.578 387.773 731.859 387.773C730.141 387.773 729.141 389.523 729.141 392.352V392.367C729.141 395.195 730.141 396.961 731.859 396.961ZM739.711 392.289C738.289 392.289 737.43 391.203 737.43 389.461V389.453C737.43 387.719 738.289 386.633 739.711 386.633C741.133 386.633 741.992 387.719 741.992 389.453V389.461C741.992 391.203 741.133 392.289 739.711 392.289ZM740.219 398H738.938L746.172 386.727H747.438L740.219 398ZM739.711 391.352C740.469 391.352 740.906 390.648 740.906 389.461V389.453C740.906 388.266 740.469 387.57 739.711 387.57C738.953 387.57 738.516 388.266 738.516 389.453V389.461C738.516 390.648 738.953 391.352 739.711 391.352ZM746.656 398.094C745.234 398.094 744.375 397.008 744.375 395.266V395.258C744.375 393.523 745.234 392.438 746.656 392.438C748.078 392.438 748.938 393.523 748.938 395.258V395.266C748.938 397.008 748.078 398.094 746.656 398.094ZM746.656 397.156C747.414 397.156 747.852 396.453 747.852 395.266V395.258C747.852 394.07 747.414 393.375 746.656 393.375C745.898 393.375 745.461 394.07 745.461 395.258V395.266C745.461 396.453 745.898 397.156 746.656 397.156Z" fill="#24242E"/>
<mask id="path-29-inside-4_4918_1357" fill="white">
<path d="M78 422H810V482H78V422Z"/>
</mask>
<path d="M78 422H810V482H78V422Z" fill="white"/>
<path d="M810 481H78V483H810V481Z" fill="#E1E1E1" mask="url(#path-29-inside-4_4918_1357)"/>
<path d="M96.5547 454.898H97.9688C98.1016 456.117 99.2578 456.922 100.867 456.922C102.391 456.922 103.5 456.117 103.5 455.008C103.5 454.055 102.836 453.469 101.32 453.078L99.875 452.703C97.7969 452.172 96.875 451.258 96.875 449.727C96.875 447.852 98.5156 446.539 100.859 446.539C103.102 446.539 104.727 447.867 104.789 449.758H103.383C103.258 448.547 102.281 447.805 100.812 447.805C99.3516 447.805 98.3359 448.562 98.3359 449.664C98.3359 450.516 98.9609 451.023 100.492 451.422L101.672 451.734C104.008 452.32 104.953 453.219 104.953 454.836C104.953 456.898 103.328 458.188 100.734 458.188C98.3438 458.188 96.6875 456.891 96.5547 454.898ZM106.82 447.914H108.18V449.875H109.758V450.992H108.18V455.82C108.18 456.562 108.492 456.898 109.188 456.898C109.344 456.898 109.656 456.875 109.75 456.859V458C109.586 458.039 109.211 458.062 108.891 458.062C107.398 458.062 106.82 457.453 106.82 455.891V450.992H105.609V449.875H106.82V447.914ZM113.734 456.984C115.016 456.984 116 456.086 116 454.914V454.25L113.828 454.383C112.734 454.453 112.109 454.938 112.109 455.703C112.109 456.477 112.758 456.984 113.734 456.984ZM113.43 458.141C111.812 458.141 110.727 457.164 110.727 455.703C110.727 454.312 111.797 453.438 113.672 453.328L116 453.195V452.516C116 451.523 115.344 450.93 114.219 450.93C113.172 450.93 112.516 451.422 112.344 452.219H111.031C111.125 450.812 112.328 449.734 114.25 449.734C116.156 449.734 117.359 450.766 117.359 452.383V458H116.07V456.602H116.039C115.555 457.531 114.523 458.141 113.43 458.141ZM119.086 458V449.875H120.367V451.172H120.398C120.852 450.297 121.719 449.734 122.977 449.734C124.758 449.734 125.789 450.883 125.789 452.727V458H124.43V452.969C124.43 451.656 123.812 450.938 122.562 450.938C121.281 450.938 120.445 451.844 120.445 453.219V458H119.086ZM130.602 458.141C128.531 458.141 127.125 456.484 127.125 453.938C127.125 451.391 128.523 449.734 130.57 449.734C131.734 449.734 132.672 450.305 133.156 451.195H133.188V446.727H134.547V458H133.25V456.625H133.227C132.703 457.562 131.773 458.141 130.602 458.141ZM130.859 450.93C129.422 450.93 128.516 452.102 128.516 453.938C128.516 455.781 129.422 456.945 130.859 456.945C132.258 456.945 133.195 455.758 133.195 453.938C133.195 452.125 132.258 450.93 130.859 450.93ZM139.062 456.984C140.344 456.984 141.328 456.086 141.328 454.914V454.25L139.156 454.383C138.062 454.453 137.438 454.938 137.438 455.703C137.438 456.477 138.086 456.984 139.062 456.984ZM138.758 458.141C137.141 458.141 136.055 457.164 136.055 455.703C136.055 454.312 137.125 453.438 139 453.328L141.328 453.195V452.516C141.328 451.523 140.672 450.93 139.547 450.93C138.5 450.93 137.844 451.422 137.672 452.219H136.359C136.453 450.812 137.656 449.734 139.578 449.734C141.484 449.734 142.688 450.766 142.688 452.383V458H141.398V456.602H141.367C140.883 457.531 139.852 458.141 138.758 458.141ZM144.414 458V449.875H145.695V451.203H145.727C145.992 450.305 146.742 449.734 147.695 449.734C147.93 449.734 148.133 449.773 148.242 449.789V451.109C148.133 451.07 147.844 451.031 147.516 451.031C146.461 451.031 145.773 451.789 145.773 452.938V458H144.414ZM152.039 458.141C149.969 458.141 148.562 456.484 148.562 453.938C148.562 451.391 149.961 449.734 152.008 449.734C153.172 449.734 154.109 450.305 154.594 451.195H154.625V446.727H155.984V458H154.688V456.625H154.664C154.141 457.562 153.211 458.141 152.039 458.141ZM152.297 450.93C150.859 450.93 149.953 452.102 149.953 453.938C149.953 455.781 150.859 456.945 152.297 456.945C153.695 456.945 154.633 455.758 154.633 453.938C154.633 452.125 153.695 450.93 152.297 450.93ZM161.312 446.727H165.102C168.445 446.727 170.422 448.812 170.422 452.359C170.422 455.914 168.453 458 165.102 458H161.312V446.727ZM162.719 447.992V456.734H165.008C167.562 456.734 168.984 455.172 168.984 452.375C168.984 449.555 167.57 447.992 165.008 447.992H162.719ZM175.219 450.914C173.945 450.914 173.055 451.891 172.969 453.242H177.383C177.352 451.883 176.5 450.914 175.219 450.914ZM177.352 455.672H178.688C178.453 457.094 177.078 458.141 175.305 458.141C172.977 458.141 171.562 456.523 171.562 453.969C171.562 451.445 173 449.734 175.242 449.734C177.438 449.734 178.789 451.328 178.789 453.789V454.305H172.961V454.383C172.961 455.938 173.875 456.961 175.336 456.961C176.367 456.961 177.125 456.438 177.352 455.672ZM186.828 449.875L183.844 458H182.453L179.461 449.875H180.891L183.133 456.555H183.164L185.414 449.875H186.828ZM187.969 458V449.875H189.328V458H187.969ZM188.648 448.508C188.188 448.508 187.805 448.125 187.805 447.664C187.805 447.195 188.188 446.82 188.648 446.82C189.117 446.82 189.5 447.195 189.5 447.664C189.5 448.125 189.117 448.508 188.648 448.508ZM193.844 456.984C195.125 456.984 196.109 456.086 196.109 454.914V454.25L193.938 454.383C192.844 454.453 192.219 454.938 192.219 455.703C192.219 456.477 192.867 456.984 193.844 456.984ZM193.539 458.141C191.922 458.141 190.836 457.164 190.836 455.703C190.836 454.312 191.906 453.438 193.781 453.328L196.109 453.195V452.516C196.109 451.523 195.453 450.93 194.328 450.93C193.281 450.93 192.625 451.422 192.453 452.219H191.141C191.234 450.812 192.438 449.734 194.359 449.734C196.266 449.734 197.469 450.766 197.469 452.383V458H196.18V456.602H196.148C195.664 457.531 194.633 458.141 193.539 458.141ZM199.633 447.914H200.992V449.875H202.57V450.992H200.992V455.82C200.992 456.562 201.305 456.898 202 456.898C202.156 456.898 202.469 456.875 202.562 456.859V458C202.398 458.039 202.023 458.062 201.703 458.062C200.211 458.062 199.633 457.453 199.633 455.891V450.992H198.422V449.875H199.633V447.914ZM204.094 458V449.875H205.453V458H204.094ZM204.773 448.508C204.312 448.508 203.93 448.125 203.93 447.664C203.93 447.195 204.312 446.82 204.773 446.82C205.242 446.82 205.625 447.195 205.625 447.664C205.625 448.125 205.242 448.508 204.773 448.508ZM210.656 458.141C208.406 458.141 206.891 456.523 206.891 453.938C206.891 451.344 208.406 449.734 210.656 449.734C212.898 449.734 214.414 451.344 214.414 453.938C214.414 456.523 212.898 458.141 210.656 458.141ZM210.656 456.945C212.094 456.945 213.031 455.852 213.031 453.938C213.031 452.023 212.094 450.93 210.656 450.93C209.219 450.93 208.273 452.023 208.273 453.938C208.273 455.852 209.219 456.945 210.656 456.945ZM215.789 458V449.875H217.07V451.172H217.102C217.555 450.297 218.422 449.734 219.68 449.734C221.461 449.734 222.492 450.883 222.492 452.727V458H221.133V452.969C221.133 451.656 220.516 450.938 219.266 450.938C217.984 450.938 217.148 451.844 217.148 453.219V458H215.789Z" fill="#24242E"/>
<path d="M401.789 458V448.219H401.758L398.773 450.297V448.883L401.773 446.727H403.148V458H401.789ZM406.422 458.109C405.922 458.109 405.531 457.719 405.531 457.219C405.531 456.719 405.922 456.328 406.422 456.328C406.922 456.328 407.312 456.719 407.312 457.219C407.312 457.719 406.922 458.109 406.422 458.109ZM413.133 458.188C411.055 458.188 408.852 456.75 408.852 452.57V452.555C408.852 448.758 410.469 446.539 413.227 446.539C415.141 446.539 416.57 447.633 416.945 449.273L416.969 449.375H415.539L415.508 449.289C415.172 448.359 414.367 447.781 413.211 447.781C411.109 447.781 410.281 449.82 410.219 452.188C410.211 452.266 410.211 452.344 410.211 452.43H410.242C410.695 451.43 411.852 450.617 413.383 450.617C415.531 450.617 417.125 452.203 417.125 454.344V454.359C417.125 456.578 415.438 458.188 413.133 458.188ZM410.547 454.344C410.547 455.789 411.672 456.938 413.117 456.938C414.555 456.938 415.695 455.812 415.695 454.391V454.375C415.695 452.906 414.625 451.852 413.141 451.852C411.664 451.852 410.547 452.898 410.547 454.336V454.344ZM422.898 446.539C424.977 446.539 427.18 447.977 427.18 452.156V452.172C427.18 455.969 425.562 458.188 422.805 458.188C420.891 458.188 419.461 457.094 419.086 455.453L419.062 455.352H420.492L420.523 455.438C420.859 456.367 421.664 456.945 422.82 456.945C424.922 456.945 425.75 454.906 425.812 452.539C425.82 452.461 425.82 452.383 425.82 452.297H425.789C425.336 453.297 424.18 454.109 422.648 454.109C420.5 454.109 418.906 452.523 418.906 450.383V450.367C418.906 448.148 420.594 446.539 422.898 446.539ZM422.891 452.875C424.367 452.875 425.484 451.828 425.484 450.391V450.383C425.484 448.938 424.359 447.789 422.914 447.789C421.477 447.789 420.336 448.914 420.336 450.336V450.352C420.336 451.82 421.406 452.875 422.891 452.875ZM430.883 452.289C429.461 452.289 428.602 451.203 428.602 449.461V449.453C428.602 447.719 429.461 446.633 430.883 446.633C432.305 446.633 433.164 447.719 433.164 449.453V449.461C433.164 451.203 432.305 452.289 430.883 452.289ZM431.391 458H430.109L437.344 446.727H438.609L431.391 458ZM430.883 451.352C431.641 451.352 432.078 450.648 432.078 449.461V449.453C432.078 448.266 431.641 447.57 430.883 447.57C430.125 447.57 429.688 448.266 429.688 449.453V449.461C429.688 450.648 430.125 451.352 430.883 451.352ZM437.828 458.094C436.406 458.094 435.547 457.008 435.547 455.266V455.258C435.547 453.523 436.406 452.438 437.828 452.438C439.25 452.438 440.109 453.523 440.109 455.258V455.266C440.109 457.008 439.25 458.094 437.828 458.094ZM437.828 457.156C438.586 457.156 439.023 456.453 439.023 455.266V455.258C439.023 454.07 438.586 453.375 437.828 453.375C437.07 453.375 436.633 454.07 436.633 455.258V455.266C436.633 456.453 437.07 457.156 437.828 457.156Z" fill="#24242E"/>
<path d="M578.914 458V457.031L582.883 452.891C584.406 451.305 584.758 450.695 584.758 449.758V449.742C584.75 448.594 583.883 447.766 582.656 447.766C581.25 447.766 580.203 448.734 580.203 449.945V449.984H578.844V449.938C578.844 447.984 580.531 446.539 582.633 446.539C584.672 446.539 586.164 447.906 586.164 449.672V449.688C586.164 450.922 585.594 451.852 583.523 453.969L580.844 456.719V456.75H586.352V458H578.914ZM588.781 458.109C588.281 458.109 587.891 457.719 587.891 457.219C587.891 456.719 588.281 456.328 588.781 456.328C589.281 456.328 589.672 456.719 589.672 457.219C589.672 457.719 589.281 458.109 588.781 458.109ZM595.344 458.188C592.75 458.188 591.211 455.945 591.211 452.367V452.352C591.211 448.773 592.75 446.539 595.344 446.539C597.938 446.539 599.492 448.773 599.492 452.352V452.367C599.492 455.945 597.938 458.188 595.344 458.188ZM595.344 456.961C597.062 456.961 598.078 455.195 598.078 452.367V452.352C598.078 449.523 597.062 447.773 595.344 447.773C593.625 447.773 592.625 449.523 592.625 452.352V452.367C592.625 455.195 593.625 456.961 595.344 456.961ZM604.992 458.188C602.836 458.188 601.297 456.844 601.133 455.008L601.125 454.922H602.508L602.516 454.984C602.656 456.102 603.656 456.953 605.008 456.953C606.539 456.953 607.602 455.891 607.602 454.375V454.359C607.594 452.875 606.523 451.812 605.031 451.812C604.266 451.812 603.609 452.039 603.109 452.492C602.906 452.68 602.727 452.898 602.578 453.156H601.336L601.914 446.727H608.367V447.977H603.07L602.688 451.766H602.719C603.25 451.008 604.188 450.602 605.281 450.602C607.445 450.602 609.008 452.172 609.008 454.336V454.352C609 456.609 607.336 458.188 604.992 458.188ZM612.555 452.289C611.133 452.289 610.273 451.203 610.273 449.461V449.453C610.273 447.719 611.133 446.633 612.555 446.633C613.977 446.633 614.836 447.719 614.836 449.453V449.461C614.836 451.203 613.977 452.289 612.555 452.289ZM613.062 458H611.781L619.016 446.727H620.281L613.062 458ZM612.555 451.352C613.312 451.352 613.75 450.648 613.75 449.461V449.453C613.75 448.266 613.312 447.57 612.555 447.57C611.797 447.57 611.359 448.266 611.359 449.453V449.461C611.359 450.648 611.797 451.352 612.555 451.352ZM619.5 458.094C618.078 458.094 617.219 457.008 617.219 455.266V455.258C617.219 453.523 618.078 452.438 619.5 452.438C620.922 452.438 621.781 453.523 621.781 455.258V455.266C621.781 457.008 620.922 458.094 619.5 458.094ZM619.5 457.156C620.258 457.156 620.695 456.453 620.695 455.266V455.258C620.695 454.07 620.258 453.375 619.5 453.375C618.742 453.375 618.305 454.07 618.305 455.258V455.266C618.305 456.453 618.742 457.156 619.5 457.156Z" fill="#24242E"/>
<path d="M707.914 458V457.031L711.883 452.891C713.406 451.305 713.758 450.695 713.758 449.758V449.742C713.75 448.594 712.883 447.766 711.656 447.766C710.25 447.766 709.203 448.734 709.203 449.945V449.984H707.844V449.938C707.844 447.984 709.531 446.539 711.633 446.539C713.672 446.539 715.164 447.906 715.164 449.672V449.688C715.164 450.922 714.594 451.852 712.523 453.969L709.844 456.719V456.75H715.352V458H707.914ZM717.781 458.109C717.281 458.109 716.891 457.719 716.891 457.219C716.891 456.719 717.281 456.328 717.781 456.328C718.281 456.328 718.672 456.719 718.672 457.219C718.672 457.719 718.281 458.109 717.781 458.109ZM725.773 458V455.656H720.109V454.383L725.055 446.727H727.133V454.422H728.727V455.656H727.133V458H725.773ZM721.5 454.422H725.773V447.93H725.727L721.5 454.391V454.422ZM735.445 458V455.656H729.781V454.383L734.727 446.727H736.805V454.422H738.398V455.656H736.805V458H735.445ZM731.172 454.422H735.445V447.93H735.398L731.172 454.391V454.422ZM741.836 452.289C740.414 452.289 739.555 451.203 739.555 449.461V449.453C739.555 447.719 740.414 446.633 741.836 446.633C743.258 446.633 744.117 447.719 744.117 449.453V449.461C744.117 451.203 743.258 452.289 741.836 452.289ZM742.344 458H741.062L748.297 446.727H749.562L742.344 458ZM741.836 451.352C742.594 451.352 743.031 450.648 743.031 449.461V449.453C743.031 448.266 742.594 447.57 741.836 447.57C741.078 447.57 740.641 448.266 740.641 449.453V449.461C740.641 450.648 741.078 451.352 741.836 451.352ZM748.781 458.094C747.359 458.094 746.5 457.008 746.5 455.266V455.258C746.5 453.523 747.359 452.438 748.781 452.438C750.203 452.438 751.062 453.523 751.062 455.258V455.266C751.062 457.008 750.203 458.094 748.781 458.094ZM748.781 457.156C749.539 457.156 749.977 456.453 749.977 455.266V455.258C749.977 454.07 749.539 453.375 748.781 453.375C748.023 453.375 747.586 454.07 747.586 455.258V455.266C747.586 456.453 748.023 457.156 748.781 457.156Z" fill="#24242E"/>
<mask id="path-35-inside-5_4918_1357" fill="white">
<path d="M78 482H810V542H78V482Z"/>
</mask>
<path d="M78 482H810V542H78V482Z" fill="white"/>
<path d="M810 541H78V543H810V541Z" fill="#E1E1E1" mask="url(#path-35-inside-5_4918_1357)"/>
<path d="M96.5547 514.898H97.9688C98.1016 516.117 99.2578 516.922 100.867 516.922C102.391 516.922 103.5 516.117 103.5 515.008C103.5 514.055 102.836 513.469 101.32 513.078L99.875 512.703C97.7969 512.172 96.875 511.258 96.875 509.727C96.875 507.852 98.5156 506.539 100.859 506.539C103.102 506.539 104.727 507.867 104.789 509.758H103.383C103.258 508.547 102.281 507.805 100.812 507.805C99.3516 507.805 98.3359 508.562 98.3359 509.664C98.3359 510.516 98.9609 511.023 100.492 511.422L101.672 511.734C104.008 512.32 104.953 513.219 104.953 514.836C104.953 516.898 103.328 518.188 100.734 518.188C98.3438 518.188 96.6875 516.891 96.5547 514.898ZM106.453 518V506.727H107.812V511.172H107.844C108.297 510.266 109.188 509.734 110.422 509.734C112.203 509.734 113.281 510.938 113.281 512.75V518H111.922V513C111.922 511.711 111.273 510.938 110 510.938C108.648 510.938 107.812 511.859 107.812 513.266V518H106.453ZM117.688 516.984C118.969 516.984 119.953 516.086 119.953 514.914V514.25L117.781 514.383C116.688 514.453 116.062 514.938 116.062 515.703C116.062 516.477 116.711 516.984 117.688 516.984ZM117.383 518.141C115.766 518.141 114.68 517.164 114.68 515.703C114.68 514.312 115.75 513.438 117.625 513.328L119.953 513.195V512.516C119.953 511.523 119.297 510.93 118.172 510.93C117.125 510.93 116.469 511.422 116.297 512.219H114.984C115.078 510.812 116.281 509.734 118.203 509.734C120.109 509.734 121.312 510.766 121.312 512.383V518H120.023V516.602H119.992C119.508 517.531 118.477 518.141 117.383 518.141ZM123.039 518V509.875H124.32V511.203H124.352C124.617 510.305 125.367 509.734 126.32 509.734C126.555 509.734 126.758 509.773 126.867 509.789V511.109C126.758 511.07 126.469 511.031 126.141 511.031C125.086 511.031 124.398 511.789 124.398 512.938V518H123.039ZM131.922 509.734C133.992 509.734 135.398 511.391 135.398 513.938C135.398 516.484 134 518.141 131.953 518.141C130.789 518.141 129.852 517.57 129.367 516.68H129.336V520.711H127.977V509.875H129.266V511.25H129.297C129.797 510.336 130.742 509.734 131.922 509.734ZM131.656 516.945C133.102 516.945 134.008 515.781 134.008 513.938C134.008 512.102 133.102 510.93 131.656 510.93C130.266 510.93 129.328 512.133 129.328 513.938C129.328 515.75 130.266 516.945 131.656 516.945ZM140.031 510.914C138.758 510.914 137.867 511.891 137.781 513.242H142.195C142.164 511.883 141.312 510.914 140.031 510.914ZM142.164 515.672H143.5C143.266 517.094 141.891 518.141 140.117 518.141C137.789 518.141 136.375 516.523 136.375 513.969C136.375 511.445 137.812 509.734 140.055 509.734C142.25 509.734 143.602 511.328 143.602 513.789V514.305H137.773V514.383C137.773 515.938 138.688 516.961 140.148 516.961C141.18 516.961 141.938 516.438 142.164 515.672ZM149.875 507.977V512.297H152.57C154.016 512.297 154.836 511.516 154.836 510.133C154.836 508.781 153.961 507.977 152.508 507.977H149.875ZM149.875 513.539V518H148.469V506.727H152.695C154.867 506.727 156.289 508.055 156.289 510.086C156.289 511.656 155.438 512.875 154.023 513.32L156.633 518H154.984L152.57 513.539H149.875ZM160.531 516.984C161.812 516.984 162.797 516.086 162.797 514.914V514.25L160.625 514.383C159.531 514.453 158.906 514.938 158.906 515.703C158.906 516.477 159.555 516.984 160.531 516.984ZM160.227 518.141C158.609 518.141 157.523 517.164 157.523 515.703C157.523 514.312 158.594 513.438 160.469 513.328L162.797 513.195V512.516C162.797 511.523 162.141 510.93 161.016 510.93C159.969 510.93 159.312 511.422 159.141 512.219H157.828C157.922 510.812 159.125 509.734 161.047 509.734C162.953 509.734 164.156 510.766 164.156 512.383V518H162.867V516.602H162.836C162.352 517.531 161.32 518.141 160.227 518.141ZM166.32 507.914H167.68V509.875H169.258V510.992H167.68V515.82C167.68 516.562 167.992 516.898 168.688 516.898C168.844 516.898 169.156 516.875 169.25 516.859V518C169.086 518.039 168.711 518.062 168.391 518.062C166.898 518.062 166.32 517.453 166.32 515.891V510.992H165.109V509.875H166.32V507.914ZM170.781 518V509.875H172.141V518H170.781ZM171.461 508.508C171 508.508 170.617 508.125 170.617 507.664C170.617 507.195 171 506.82 171.461 506.82C171.93 506.82 172.312 507.195 172.312 507.664C172.312 508.125 171.93 508.508 171.461 508.508ZM177.344 518.141C175.094 518.141 173.578 516.523 173.578 513.938C173.578 511.344 175.094 509.734 177.344 509.734C179.586 509.734 181.102 511.344 181.102 513.938C181.102 516.523 179.586 518.141 177.344 518.141ZM177.344 516.945C178.781 516.945 179.719 515.852 179.719 513.938C179.719 512.023 178.781 510.93 177.344 510.93C175.906 510.93 174.961 512.023 174.961 513.938C174.961 515.852 175.906 516.945 177.344 516.945Z" fill="#24242E"/>
<path d="M398.914 518V517.031L402.883 512.891C404.406 511.305 404.758 510.695 404.758 509.758V509.742C404.75 508.594 403.883 507.766 402.656 507.766C401.25 507.766 400.203 508.734 400.203 509.945V509.984H398.844V509.938C398.844 507.984 400.531 506.539 402.633 506.539C404.672 506.539 406.164 507.906 406.164 509.672V509.688C406.164 510.922 405.594 511.852 403.523 513.969L400.844 516.719V516.75H406.352V518H398.914ZM408.781 518.109C408.281 518.109 407.891 517.719 407.891 517.219C407.891 516.719 408.281 516.328 408.781 516.328C409.281 516.328 409.672 516.719 409.672 517.219C409.672 517.719 409.281 518.109 408.781 518.109ZM411.414 518V517.031L415.383 512.891C416.906 511.305 417.258 510.695 417.258 509.758V509.742C417.25 508.594 416.383 507.766 415.156 507.766C413.75 507.766 412.703 508.734 412.703 509.945V509.984H411.344V509.938C411.344 507.984 413.031 506.539 415.133 506.539C417.172 506.539 418.664 507.906 418.664 509.672V509.688C418.664 510.922 418.094 511.852 416.023 513.969L413.344 516.719V516.75H418.852V518H411.414ZM424.406 518.188C421.812 518.188 420.273 515.945 420.273 512.367V512.352C420.273 508.773 421.812 506.539 424.406 506.539C427 506.539 428.555 508.773 428.555 512.352V512.367C428.555 515.945 427 518.188 424.406 518.188ZM424.406 516.961C426.125 516.961 427.141 515.195 427.141 512.367V512.352C427.141 509.523 426.125 507.773 424.406 507.773C422.688 507.773 421.688 509.523 421.688 512.352V512.367C421.688 515.195 422.688 516.961 424.406 516.961Z" fill="#24242E"/>
<path d="M581.789 518V508.219H581.758L578.773 510.297V508.883L581.773 506.727H583.148V518H581.789ZM586.422 518.109C585.922 518.109 585.531 517.719 585.531 517.219C585.531 516.719 585.922 516.328 586.422 516.328C586.922 516.328 587.312 516.719 587.312 517.219C587.312 517.719 586.922 518.109 586.422 518.109ZM594.414 518V515.656H588.75V514.383L593.695 506.727H595.773V514.422H597.367V515.656H595.773V518H594.414ZM590.141 514.422H594.414V507.93H594.367L590.141 514.391V514.422ZM602.695 506.539C604.773 506.539 606.977 507.977 606.977 512.156V512.172C606.977 515.969 605.359 518.188 602.602 518.188C600.688 518.188 599.258 517.094 598.883 515.453L598.859 515.352H600.289L600.32 515.438C600.656 516.367 601.461 516.945 602.617 516.945C604.719 516.945 605.547 514.906 605.609 512.539C605.617 512.461 605.617 512.383 605.617 512.297H605.586C605.133 513.297 603.977 514.109 602.445 514.109C600.297 514.109 598.703 512.523 598.703 510.383V510.367C598.703 508.148 600.391 506.539 602.695 506.539ZM602.688 512.875C604.164 512.875 605.281 511.828 605.281 510.391V510.383C605.281 508.938 604.156 507.789 602.711 507.789C601.273 507.789 600.133 508.914 600.133 510.336V510.352C600.133 511.82 601.203 512.875 602.688 512.875Z" fill="#24242E"/>
<path d="M711.844 518.188C709.25 518.188 707.711 515.945 707.711 512.367V512.352C707.711 508.773 709.25 506.539 711.844 506.539C714.438 506.539 715.992 508.773 715.992 512.352V512.367C715.992 515.945 714.438 518.188 711.844 518.188ZM711.844 516.961C713.562 516.961 714.578 515.195 714.578 512.367V512.352C714.578 509.523 713.562 507.773 711.844 507.773C710.125 507.773 709.125 509.523 709.125 512.352V512.367C709.125 515.195 710.125 516.961 711.844 516.961ZM718.109 518.109C717.609 518.109 717.219 517.719 717.219 517.219C717.219 516.719 717.609 516.328 718.109 516.328C718.609 516.328 719 516.719 719 517.219C719 517.719 718.609 518.109 718.109 518.109ZM724.82 518.188C722.742 518.188 720.539 516.75 720.539 512.57V512.555C720.539 508.758 722.156 506.539 724.914 506.539C726.828 506.539 728.258 507.633 728.633 509.273L728.656 509.375H727.227L727.195 509.289C726.859 508.359 726.055 507.781 724.898 507.781C722.797 507.781 721.969 509.82 721.906 512.188C721.898 512.266 721.898 512.344 721.898 512.43H721.93C722.383 511.43 723.539 510.617 725.07 510.617C727.219 510.617 728.812 512.203 728.812 514.344V514.359C728.812 516.578 727.125 518.188 724.82 518.188ZM722.234 514.344C722.234 515.789 723.359 516.938 724.805 516.938C726.242 516.938 727.383 515.812 727.383 514.391V514.375C727.383 512.906 726.312 511.852 724.828 511.852C723.352 511.852 722.234 512.898 722.234 514.336V514.344ZM734.492 518.188C732.336 518.188 730.797 516.844 730.633 515.008L730.625 514.922H732.008L732.016 514.984C732.156 516.102 733.156 516.953 734.508 516.953C736.039 516.953 737.102 515.891 737.102 514.375V514.359C737.094 512.875 736.023 511.812 734.531 511.812C733.766 511.812 733.109 512.039 732.609 512.492C732.406 512.68 732.227 512.898 732.078 513.156H730.836L731.414 506.727H737.867V507.977H732.57L732.188 511.766H732.219C732.75 511.008 733.688 510.602 734.781 510.602C736.945 510.602 738.508 512.172 738.508 514.336V514.352C738.5 516.609 736.836 518.188 734.492 518.188Z" fill="#24242E"/>
</g>
<defs>
<filter id="filter0_d_4918_1357" x="0" y="140" width="888" height="516" filterUnits="userSpaceOnUse" color-interpolation-filters="sRGB">
<feFlood flood-opacity="0" result="BackgroundImageFix"/>
<feColorMatrix in="SourceAlpha" type="matrix" values="0 0 0 0 0 0 0 0 0 0 0 0 0 0 0 0 0 0 127 0" result="hardAlpha"/>
<feOffset dy="36"/>
<feGaussianBlur stdDeviation="30"/>
<feComposite in2="hardAlpha" operator="out"/>
<feColorMatrix type="matrix" values="0 0 0 0 0.369345 0 0 0 0 0.369345 0 0 0 0 0.369345 0 0 0 0.12 0"/>
<feBlend mode="normal" in2="BackgroundImageFix" result="effect1_dropShadow_4918_1357"/>
<feBlend mode="normal" in="SourceGraphic" in2="effect1_dropShadow_4918_1357" result="shape"/>
</filter>
</defs>
</svg>
