<svg width="46" height="46" viewBox="0 0 46 46" fill="none" xmlns="http://www.w3.org/2000/svg">
<g clip-path="url(#clip0_4918_1504)">
<path d="M44.1804 38.8825C44.9114 38.8825 45.5039 39.4751 45.5039 40.2061C45.5039 40.9371 44.9114 41.5296 44.1804 41.5296H1.82745C1.09646 41.5296 0.503906 40.937 0.503906 40.2061C0.503906 39.4751 1.09646 38.8825 1.82745 38.8825H44.1804ZM7.12154 15.059H19.0333C19.7643 15.059 20.3568 15.6515 20.3568 16.3825V36.2354H5.798V16.3825C5.798 15.6515 6.39056 15.059 7.12154 15.059ZM26.9745 4.4707H38.8862C39.6172 4.4707 40.2097 5.06326 40.2097 5.79425V36.2354H25.651V5.79425C25.651 5.06335 26.2436 4.4707 26.9745 4.4707Z" fill="#A73A3A"/>
</g>
<defs>
<clipPath id="clip0_4918_1504">
<rect width="45" height="45" fill="white" transform="translate(0.503906 0.5)"/>
</clipPath>
</defs>
</svg>
