<svg width="24" height="24" viewBox="0 0 24 24" fill="none" xmlns="http://www.w3.org/2000/svg">
<g clip-path="url(#clip0_4918_1868)">
<path d="M20.9021 13.2481C20.6379 13.2481 20.3618 13.1638 20.0976 13.1035C19.5631 12.9837 19.0375 12.8267 18.5246 12.6338C17.9676 12.4306 17.3553 12.4411 16.8056 12.6635C16.2558 12.8858 15.8075 13.3042 15.5468 13.8382L15.2827 14.3922C14.1165 13.7289 13.0392 12.9195 12.0767 11.9835C11.1435 11.018 10.3366 9.93747 9.67521 8.76781L10.2276 8.51489C10.7599 8.25344 11.1771 7.80375 11.3987 7.25234C11.6204 6.70094 11.6309 6.08678 11.4283 5.52806C11.2376 5.00901 11.0812 4.47794 10.96 3.93829C10.9 3.67333 10.8519 3.39632 10.8159 3.13136C10.6701 2.28303 10.2271 1.51479 9.56669 0.964988C8.90628 0.41519 8.07186 0.119966 7.2137 0.132481H3.59948C3.09187 0.131814 2.58985 0.238764 2.12632 0.44632C1.6628 0.653876 1.24824 0.957351 0.909835 1.33685C0.564407 1.72665 0.307203 2.18683 0.155896 2.68579C0.00458905 3.18474 -0.0372351 3.71063 0.0332971 4.22734C0.686002 9.24009 2.96935 13.8968 6.52928 17.4754C10.0971 21.0461 14.7398 23.3364 19.7374 23.991C19.8933 24.003 20.0498 24.003 20.2057 23.991C21.0911 23.9923 21.946 23.6665 22.6071 23.0757C22.9855 22.7363 23.2881 22.3205 23.495 21.8556C23.7019 21.3906 23.8085 20.8871 23.8079 20.3779V16.7648C23.8014 15.9327 23.5087 15.1282 22.9793 14.4875C22.4499 13.8467 21.7161 13.4089 20.9021 13.2481ZM21.4905 20.4743C21.4901 20.6423 21.4546 20.8085 21.3864 20.962C21.3181 21.1154 21.2186 21.2529 21.0942 21.3655C20.9626 21.4858 20.806 21.5752 20.6357 21.6273C20.4654 21.6793 20.2857 21.6928 20.1096 21.6666C15.6288 21.0796 11.4646 19.0314 8.25834 15.8375C5.04934 12.6187 2.98955 8.42742 2.39875 3.9142C2.37266 3.73756 2.38606 3.55731 2.43798 3.38651C2.4899 3.2157 2.57903 3.05862 2.69893 2.92662C2.81255 2.80034 2.95154 2.69964 3.10676 2.63113C3.26198 2.56263 3.42991 2.52788 3.59948 2.52918H7.20169C7.47926 2.52237 7.7506 2.61226 7.96952 2.78354C8.18845 2.95482 8.34143 3.1969 8.40243 3.46858C8.40243 3.79376 8.5105 4.13099 8.58254 4.45617C8.72132 5.08709 8.90592 5.70699 9.13488 6.3109L7.45385 7.10578C7.16491 7.23882 6.94037 7.48137 6.82947 7.78023C6.70937 8.07345 6.70937 8.40233 6.82947 8.69555C8.55757 12.4083 11.533 15.3928 15.2346 17.1261C15.527 17.2466 15.8548 17.2466 16.1472 17.1261C16.4451 17.0149 16.687 16.7897 16.8196 16.4999L17.5761 14.8137C18.1955 15.0403 18.8293 15.2254 19.4732 15.3678C19.7854 15.44 20.1216 15.5002 20.4458 15.5484C20.7167 15.6096 20.958 15.763 21.1288 15.9826C21.2996 16.2022 21.3892 16.4744 21.3824 16.7528L21.4905 20.4743ZM14.4061 0C14.1299 0 13.8418 0 13.5656 0C13.2471 0.0271506 12.9525 0.180078 12.7464 0.425139C12.5404 0.670201 12.4399 0.987322 12.4669 1.30674C12.494 1.62616 12.6465 1.92171 12.8908 2.12838C13.1351 2.33504 13.4513 2.43589 13.7697 2.40874H14.4061C16.3168 2.40874 18.1493 3.17007 19.5004 4.52525C20.8515 5.88043 21.6105 7.71845 21.6105 9.63496C21.6105 9.85174 21.6105 10.0565 21.6105 10.2733C21.5839 10.591 21.684 10.9063 21.8888 11.1502C22.0936 11.394 22.3865 11.5464 22.7032 11.574H22.7993C23.0998 11.5752 23.39 11.4633 23.6123 11.2604C23.8346 11.0575 23.9729 10.7783 24 10.478C24 10.201 24 9.91196 24 9.63496C24 7.08169 22.9896 4.63283 21.1907 2.82627C19.3919 1.01971 16.9517 0.00319158 14.4061 0ZM16.8076 9.63496C16.8076 9.95438 16.9341 10.2607 17.1593 10.4866C17.3845 10.7124 17.6899 10.8393 18.0083 10.8393C18.3268 10.8393 18.6322 10.7124 18.8574 10.4866C19.0826 10.2607 19.2091 9.95438 19.2091 9.63496C19.2091 8.35728 18.703 7.13194 17.8023 6.22849C16.9016 5.32503 15.6799 4.81748 14.4061 4.81748C14.0877 4.81748 13.7822 4.94437 13.5571 5.17023C13.3319 5.39609 13.2054 5.70243 13.2054 6.02185C13.2054 6.34127 13.3319 6.6476 13.5571 6.87347C13.7822 7.09933 14.0877 7.22622 14.4061 7.22622C15.043 7.22622 15.6538 7.48 16.1042 7.93172C16.5546 8.38345 16.8076 8.99612 16.8076 9.63496Z" fill="white"/>
</g>
<defs>
<clipPath id="clip0_4918_1868">
<rect width="24" height="24" fill="white"/>
</clipPath>
</defs>
</svg>
