<svg width="60" height="60" viewBox="0 0 60 60" fill="none" xmlns="http://www.w3.org/2000/svg">
<path d="M46.2163 17.0579C45.6109 13.1851 43.6415 9.65604 40.6633 7.10735C37.6851 4.55865 33.8942 3.15806 29.9743 3.1582C26.0544 3.15834 22.2636 4.55921 19.2856 7.10812C16.3076 9.65703 14.3384 13.1862 13.7332 17.0591C10.8626 17.141 8.13967 18.3498 6.15352 20.4241C4.16737 22.4983 3.07773 25.2711 3.12035 28.1425C3.16296 31.014 4.33442 33.7532 6.38125 35.7676C8.42808 37.782 11.1857 38.9094 14.0575 38.9061H23.9071V24.5721C23.9071 24.3235 24.0059 24.085 24.1817 23.9092C24.3575 23.7334 24.596 23.6346 24.8446 23.6346C25.0932 23.6346 25.3317 23.7334 25.5075 23.9092C25.6833 24.085 25.7821 24.3235 25.7821 24.5721V38.9061H29.0633V24.5721C29.0633 24.3235 29.1621 24.085 29.3379 23.9092C29.5138 23.7334 29.7522 23.6346 30.0008 23.6346C30.2495 23.6346 30.4879 23.7334 30.6638 23.9092C30.8396 24.085 30.9383 24.3235 30.9383 24.5721V38.9061H34.2196V24.5721C34.2196 24.3235 34.3184 24.085 34.4942 23.9092C34.67 23.7334 34.9085 23.6346 35.1571 23.6346C35.4057 23.6346 35.6442 23.7334 35.82 23.9092C35.9958 24.085 36.0946 24.3235 36.0946 24.5721V38.9061H46.0114C52.0446 38.9061 56.9194 33.9384 56.8782 27.9052C56.8544 25.0675 55.7292 22.3501 53.74 20.3263C51.7507 18.3025 49.0531 17.1306 46.2163 17.0579Z" fill="white"/>
<path d="M29.0642 49.3757C28.1643 49.6042 27.3788 50.1535 26.8555 50.9203C26.3321 51.6872 26.1068 52.6188 26.2219 53.5401C26.337 54.4613 26.7847 55.3089 27.4807 55.9233C28.1768 56.5378 29.0732 56.8769 30.0017 56.8769C30.9301 56.8769 31.8266 56.5378 32.5226 55.9233C33.2187 55.3089 33.6663 54.4613 33.7815 53.5401C33.8966 52.6188 33.6713 51.6872 33.1479 50.9203C32.6245 50.1535 31.8391 49.6042 30.9392 49.3757V38.9062H29.0642V49.3757ZM23.9079 43.3594H18.9341C18.8161 43.3555 18.6985 43.376 18.5887 43.4196C18.4789 43.4633 18.3794 43.5291 18.2962 43.613C18.2131 43.6969 18.1482 43.7971 18.1056 43.9073C18.0629 44.0175 18.0435 44.1353 18.0486 44.2533V48.7298C17.3708 48.8875 16.7519 49.2347 16.264 49.731C15.7338 50.2637 15.3733 50.9416 15.228 51.6791C15.0827 52.4165 15.1591 53.1805 15.4476 53.8746C15.7361 54.5686 16.2237 55.1617 16.8489 55.5789C17.4741 55.9961 18.2089 56.2188 18.9605 56.2188C19.7121 56.2188 20.4469 55.9961 21.0721 55.5789C21.6973 55.1617 22.185 54.5686 22.4734 53.8746C22.7619 53.1805 22.8383 52.4165 22.693 51.6791C22.5477 50.9416 22.1872 50.2637 21.657 49.731C21.1706 49.2593 20.5751 48.9153 19.9236 48.7295V45.2344H24.7914C25.0501 45.2266 25.2963 45.1211 25.4803 44.939C25.6643 44.7569 25.7724 44.5119 25.7829 44.2533V38.9062H23.9079V43.3594ZM34.2204 44.2533C34.2309 44.5119 34.3391 44.7569 34.5231 44.939C34.7071 45.1211 34.9532 45.2266 35.212 45.2344H40.0798V48.7295C39.4286 48.9152 38.8334 49.2591 38.3473 49.7306C37.8099 50.2646 37.4432 50.9461 37.2937 51.6887C37.1441 52.4314 37.2184 53.2017 37.5072 53.902C37.796 54.6024 38.2863 55.2012 38.9158 55.6226C39.5453 56.0439 40.2858 56.2689 41.0434 56.2689C41.8009 56.2689 42.5414 56.0439 43.171 55.6226C43.8005 55.2012 44.2908 54.6024 44.5795 53.902C44.8683 53.2017 44.9427 52.4314 44.7931 51.6887C44.6435 50.9461 44.2768 50.2646 43.7395 49.7306C43.2516 49.2344 42.6326 48.8872 41.9548 48.7295V44.2529C41.9598 44.1349 41.9403 44.0172 41.8977 43.9071C41.855 43.797 41.7901 43.6968 41.707 43.6129C41.6238 43.5291 41.5243 43.4633 41.4145 43.4196C41.3048 43.376 41.1872 43.3555 41.0692 43.3594H36.0954V38.9062H34.2204V44.2533Z" fill="white"/>
</svg>
