<svg width="60" height="60" viewBox="0 0 60 60" fill="none" xmlns="http://www.w3.org/2000/svg">
<path d="M19.6875 14.0625C20.9819 14.0625 22.0312 13.0132 22.0312 11.7188C22.0312 10.4243 20.9819 9.375 19.6875 9.375C18.3931 9.375 17.3438 10.4243 17.3438 11.7188C17.3438 13.0132 18.3931 14.0625 19.6875 14.0625Z" fill="white"/>
<path d="M38.4375 6.5625C39.7319 6.5625 40.7812 5.51317 40.7812 4.21875C40.7812 2.92433 39.7319 1.875 38.4375 1.875C37.1431 1.875 36.0938 2.92433 36.0938 4.21875C36.0938 5.51317 37.1431 6.5625 38.4375 6.5625Z" fill="white"/>
<path d="M4.6875 2.8125C4.43886 2.8125 4.2004 2.91127 4.02459 3.08709C3.84877 3.2629 3.75 3.50136 3.75 3.75V4.6875H2.8125C2.56386 4.6875 2.3254 4.78627 2.14959 4.96209C1.97377 5.1379 1.875 5.37636 1.875 5.625C1.875 5.87364 1.97377 6.1121 2.14959 6.28791C2.3254 6.46373 2.56386 6.5625 2.8125 6.5625H3.75V7.5C3.75 7.74864 3.84877 7.9871 4.02459 8.16291C4.2004 8.33873 4.43886 8.4375 4.6875 8.4375C4.93614 8.4375 5.1746 8.33873 5.35041 8.16291C5.52623 7.9871 5.625 7.74864 5.625 7.5V6.5625H6.5625C6.81114 6.5625 7.0496 6.46373 7.22541 6.28791C7.40123 6.1121 7.5 5.87364 7.5 5.625C7.5 5.37636 7.40123 5.1379 7.22541 4.96209C7.0496 4.78627 6.81114 4.6875 6.5625 4.6875H5.625V3.75C5.625 3.50136 5.52623 3.2629 5.35041 3.08709C5.1746 2.91127 4.93614 2.8125 4.6875 2.8125ZM57.1875 11.25H56.25V10.3125C56.25 10.0639 56.1512 9.8254 55.9754 9.64959C55.7996 9.47377 55.5611 9.375 55.3125 9.375C55.0639 9.375 54.8254 9.47377 54.6496 9.64959C54.4738 9.8254 54.375 10.0639 54.375 10.3125V11.25H53.4375C53.1889 11.25 52.9504 11.3488 52.7746 11.5246C52.5988 11.7004 52.5 11.9389 52.5 12.1875C52.5 12.4361 52.5988 12.6746 52.7746 12.8504C52.9504 13.0262 53.1889 13.125 53.4375 13.125H54.375V14.0625C54.375 14.3111 54.4738 14.5496 54.6496 14.7254C54.8254 14.9012 55.0639 15 55.3125 15C55.5611 15 55.7996 14.9012 55.9754 14.7254C56.1512 14.5496 56.25 14.3111 56.25 14.0625V13.125H57.1875C57.4361 13.125 57.6746 13.0262 57.8504 12.8504C58.0262 12.6746 58.125 12.4361 58.125 12.1875C58.125 11.9389 58.0262 11.7004 57.8504 11.5246C57.6746 11.3488 57.4361 11.25 57.1875 11.25ZM49.6875 22.5C49.4389 22.5 49.2004 22.5988 49.0246 22.7746C48.8488 22.9504 48.75 23.1889 48.75 23.4375V30C48.75 30.2486 48.8488 30.4871 49.0246 30.6629C49.2004 30.8387 49.4389 30.9375 49.6875 30.9375C49.9361 30.9375 50.1746 30.8387 50.3504 30.6629C50.5262 30.4871 50.625 30.2486 50.625 30V23.4375C50.625 23.1889 50.5262 22.9504 50.3504 22.7746C50.1746 22.5988 49.9361 22.5 49.6875 22.5Z" fill="white"/>
<path d="M49.6875 34.6875C50.2053 34.6875 50.625 34.2678 50.625 33.75C50.625 33.2322 50.2053 32.8125 49.6875 32.8125C49.1697 32.8125 48.75 33.2322 48.75 33.75C48.75 34.2678 49.1697 34.6875 49.6875 34.6875Z" fill="white"/>
<path d="M57.1875 50.625H54.375V20.625C54.375 19.8791 54.0787 19.1637 53.5512 18.6363C53.0238 18.1088 52.3084 17.8125 51.5625 17.8125H8.4375C7.69158 17.8125 6.97621 18.1088 6.44876 18.6363C5.92132 19.1637 5.625 19.8791 5.625 20.625V50.625H2.8125C2.56386 50.625 2.3254 50.7238 2.14959 50.8996C1.97377 51.0754 1.875 51.3139 1.875 51.5625C1.87699 53.3024 2.56903 54.9704 3.7993 56.2007C5.02958 57.431 6.69763 58.123 8.4375 58.125H51.5625C53.3024 58.123 54.9704 57.431 56.2007 56.2007C57.431 54.9704 58.123 53.3024 58.125 51.5625C58.125 51.3139 58.0262 51.0754 57.8504 50.8996C57.6746 50.7238 57.4361 50.625 57.1875 50.625ZM35.625 54.375H24.375C23.5772 54.375 22.8844 53.5781 22.6191 52.5H37.3809C37.1156 53.5781 36.4228 54.375 35.625 54.375ZM52.5 50.625H7.5V20.625C7.5 20.3764 7.59877 20.1379 7.77459 19.9621C7.9504 19.7863 8.18886 19.6875 8.4375 19.6875H51.5625C51.8111 19.6875 52.0496 19.7863 52.2254 19.9621C52.4012 20.1379 52.5 20.3764 52.5 20.625V50.625Z" fill="white"/>
<path d="M49.6875 46.875H47.3438V40.3125C47.3438 40.0639 47.245 39.8254 47.0692 39.6496C46.8933 39.4738 46.6549 39.375 46.4062 39.375H41.7188C41.4701 39.375 41.2317 39.4738 41.0558 39.6496C40.88 39.8254 40.7812 40.0639 40.7812 40.3125V46.875H37.9688V36.5625C37.9688 36.3139 37.87 36.0754 37.6942 35.8996C37.5183 35.7238 37.2799 35.625 37.0312 35.625H32.3438C32.0951 35.625 31.8567 35.7238 31.6808 35.8996C31.505 36.0754 31.4062 36.3139 31.4062 36.5625V46.875H28.5938V30.9375C28.5938 30.6889 28.495 30.4504 28.3192 30.2746C28.1433 30.0988 27.9049 30 27.6562 30H22.9688C22.7201 30 22.4817 30.0988 22.3058 30.2746C22.13 30.4504 22.0312 30.6889 22.0312 30.9375V46.875H19.2188V24.375C19.2188 24.1264 19.12 23.8879 18.9442 23.7121C18.7683 23.5363 18.5299 23.4375 18.2812 23.4375H13.5938C13.3451 23.4375 13.1067 23.5363 12.9308 23.7121C12.755 23.8879 12.6562 24.1264 12.6562 24.375V46.875H10.3125C10.0639 46.875 9.8254 46.9738 9.64959 47.1496C9.47377 47.3254 9.375 47.5639 9.375 47.8125C9.375 48.0611 9.47377 48.2996 9.64959 48.4754C9.8254 48.6512 10.0639 48.75 10.3125 48.75H49.6875C49.9361 48.75 50.1746 48.6512 50.3504 48.4754C50.5262 48.2996 50.625 48.0611 50.625 47.8125C50.625 47.5639 50.5262 47.3254 50.3504 47.1496C50.1746 46.9738 49.9361 46.875 49.6875 46.875ZM31.875 29.0625C32.1236 29.0624 32.362 28.9636 32.5378 28.7878L34.1381 27.1875H44.0625C44.3111 27.1875 44.5496 27.0887 44.7254 26.9129C44.9012 26.7371 45 26.4986 45 26.25C45 26.0014 44.9012 25.7629 44.7254 25.5871C44.5496 25.4113 44.3111 25.3125 44.0625 25.3125H33.75C33.5014 25.3126 33.263 25.4114 33.0872 25.5872L31.2122 27.4622C31.0811 27.5933 30.9919 27.7603 30.9557 27.9422C30.9195 28.124 30.9381 28.3125 31.0091 28.4837C31.08 28.655 31.2001 28.8014 31.3543 28.9044C31.5084 29.0075 31.6896 29.0625 31.875 29.0625ZM38.4375 23.4375H44.0625C44.3111 23.4375 44.5496 23.3387 44.7254 23.1629C44.9012 22.9871 45 22.7486 45 22.5C45 22.2514 44.9012 22.0129 44.7254 21.8371C44.5496 21.6613 44.3111 21.5625 44.0625 21.5625H38.4375C38.1889 21.5625 37.9504 21.6613 37.7746 21.8371C37.5988 22.0129 37.5 22.2514 37.5 22.5C37.5 22.7486 37.5988 22.9871 37.7746 23.1629C37.9504 23.3387 38.1889 23.4375 38.4375 23.4375Z" fill="white"/>
</svg>
