<svg width="24" height="25" viewBox="0 0 24 25" fill="none" xmlns="http://www.w3.org/2000/svg">
<path d="M22.7427 17.3411C21.3455 15.9483 19.65 14.8368 17.7629 14.0765C15.8759 13.3163 13.8382 12.9238 11.7782 12.9238C9.71817 12.9238 7.68047 13.3163 5.79343 14.0765C3.90638 14.8368 2.21088 15.9483 0.813717 17.3411C0.598007 17.5605 0.477342 17.8452 0.474609 18.1411V22.9411C0.479182 23.2565 0.61861 23.5577 0.862712 23.7793C1.10681 24.0009 1.43595 24.1251 1.77887 24.1251H21.7775C22.1234 24.1251 22.4552 23.9986 22.6998 23.7736C22.9444 23.5486 23.0818 23.2433 23.0818 22.9251V18.1251C23.0748 17.8347 22.9544 17.5564 22.7427 17.3411Z" fill="black"/>
<path d="M17.8645 5.725C17.8645 6.83258 17.5075 7.91528 16.8387 8.83619C16.1699 9.75711 15.2193 10.4749 14.1072 10.8987C12.995 11.3226 11.7712 11.4335 10.5905 11.2174C9.40985 11.0013 8.32533 10.468 7.47412 9.6848C6.6229 8.90162 6.04321 7.9038 5.80836 6.81751C5.57351 5.73121 5.69404 4.60524 6.15472 3.58197C6.6154 2.55871 7.39552 1.68411 8.39645 1.06877C9.39738 0.453434 10.5741 0.125 11.778 0.125C12.5772 0.125 13.3687 0.269848 14.1072 0.551275C14.8456 0.832701 15.5166 1.24519 16.0818 1.7652C16.647 2.28521 17.0953 2.90255 17.4012 3.58197C17.7071 4.2614 17.8645 4.9896 17.8645 5.725Z" fill="black"/>
</svg>
