<svg width="25" height="16" viewBox="0 0 25 16" fill="none" xmlns="http://www.w3.org/2000/svg">
<path d="M1.52836 1.79655C2.16745 2.14355 11.044 7.11855 11.3755 7.29655C11.7382 7.4883 12.1534 7.5793 12.5711 7.55855C12.9888 7.57942 13.4041 7.48841 13.7667 7.29655C14.0927 7.11755 22.9758 2.14155 23.6138 1.79655C23.8518 1.67055 24.2529 1.44355 24.3399 1.18755C24.4779 0.733547 24.3192 0.560547 23.6736 0.560547H1.4588C0.814281 0.560547 0.651249 0.739547 0.806673 1.18755C0.892537 1.44955 1.29034 1.67155 1.52836 1.79655Z" fill="black"/>
<path d="M24.1331 2.06559C23.6549 2.31659 19.3683 5.44659 16.5315 7.32859L21.3192 12.8536C21.4355 12.9736 21.4877 13.1156 21.4279 13.1886C21.3681 13.2616 21.2105 13.2186 21.0844 13.1056L15.3414 8.13559C14.4718 8.70859 13.8621 9.10359 13.7578 9.16259C13.3962 9.35682 12.9801 9.448 12.5622 9.42459C12.1443 9.448 11.7282 9.35682 11.3666 9.16259C11.2579 9.10359 10.6504 8.70859 9.78304 8.13559L4.03886 13.1036C3.92257 13.2236 3.76497 13.2586 3.69541 13.1866C3.62585 13.1146 3.67802 12.9716 3.79432 12.8516L8.5766 7.32659C5.73875 5.44559 1.40644 2.31159 0.928207 2.06459C0.415198 1.79659 0.384766 2.11259 0.384766 2.35759V14.6016C0.441305 14.9157 0.603936 15.2054 0.84957 15.4296C1.0952 15.6538 1.41136 15.8011 1.75315 15.8506H23.3658C23.6937 15.796 23.9934 15.6445 24.2193 15.4191C24.4452 15.1937 24.5852 14.9067 24.6179 14.6016V2.35759C24.6179 2.10659 24.6527 1.79559 24.1342 2.06459L24.1331 2.06559Z" fill="black"/>
</svg>
