<svg width="21" height="28" viewBox="0 0 21 28" fill="none" xmlns="http://www.w3.org/2000/svg">
<path d="M13.9064 27.7632C12.2141 27.1172 10.7248 26.0915 9.57426 24.7796C7.24048 22.5463 5.28841 20.0003 3.78468 17.2283C2.1778 14.4962 1.07435 11.538 0.519221 8.47381C-0.3096 4.45255 0.669089 2.7685 1.32775 2.12008C2.07166 1.41828 3.02308 0.932806 4.06405 0.72384C4.67237 0.571471 5.29465 0.47101 5.92301 0.423732L6.09782 0.407649C6.31446 0.366982 6.53804 0.369254 6.75365 0.414313C6.96927 0.459372 7.17197 0.546184 7.34826 0.668967C7.721 0.996593 8.01608 1.39158 8.215 1.82913C8.94655 3.36172 9.44927 4.97835 9.7095 6.63501C9.84972 7.22352 9.84817 7.83314 9.70499 8.42104C9.46044 8.97271 9.02341 9.43387 8.4627 9.7319C8.35676 9.80537 8.25519 9.86648 8.15604 9.93042C7.55568 10.3134 7.4075 10.4321 7.37889 10.7137C7.47535 12.204 7.92775 13.6564 8.70386 14.9674C9.39063 16.2954 10.3953 17.4631 11.6424 18.3829C11.9193 18.5309 12.1138 18.4913 12.8285 18.2602C12.9303 18.2275 13.0362 18.193 13.1453 18.1593C13.7435 17.8992 14.4198 17.8327 15.0643 17.9707C15.6715 18.2184 16.2066 18.5946 16.6261 19.0685C17.9083 20.2412 19.0302 21.5535 19.9667 22.9764C20.2353 23.3809 20.4105 23.832 20.4815 24.3015C20.4854 24.5054 20.4423 24.7076 20.355 24.895C20.2678 25.0824 20.1384 25.2507 19.9753 25.3887C19.9398 25.4244 19.9006 25.4642 19.8587 25.5085C19.4462 25.947 18.9907 26.3497 18.498 26.7114C17.7016 27.3623 16.7147 27.7836 15.6602 27.9227C15.07 27.9926 14.4703 27.9381 13.9064 27.7632Z" fill="black"/>
</svg>
