<svg width="45" height="45" viewBox="0 0 45 45" fill="none" xmlns="http://www.w3.org/2000/svg">
<path d="M3 0C2.20435 0 1.44129 0.296316 0.87868 0.823762C0.31607 1.35121 0 2.06658 0 2.8125V42.1875C0 42.9334 0.31607 43.6488 0.87868 44.1762C1.44129 44.7037 2.20435 45 3 45H42C42.7957 45 43.5587 44.7037 44.1213 44.1762C44.6839 43.6488 45 42.9334 45 42.1875V2.8125C45 2.06658 44.6839 1.35121 44.1213 0.823762C43.5587 0.296316 42.7957 0 42 0L3 0ZM39 15.3112V39.375H30V15.3112H39ZM27 8.4375V39.375H18V8.4375H27ZM15 25.6247V39.375H6V25.6247H15Z" fill="#A73A3A"/>
</svg>
