<svg width="42" height="42" viewBox="0 0 42 42" fill="none" xmlns="http://www.w3.org/2000/svg">
<path fill-rule="evenodd" clip-rule="evenodd" d="M14.9879 20.7588C14.9879 24.0806 17.6781 26.7708 21 26.7708C24.3219 26.7708 27.0121 24.0806 27.0121 20.7588H14.9879ZM40.178 16.5087H30.1799C29.7174 14.9224 28.8605 13.5199 27.7304 12.4021C29.0912 10.857 31.084 9.88202 33.3047 9.88202C36.9555 9.88202 39.9907 12.5168 40.6133 15.9885C40.6622 16.2611 40.455 16.5087 40.178 16.5087ZM40.6875 20.7588V23.4231L37.425 24.6788C37.0114 26.4171 36.3222 28.0773 35.3853 29.5988L36.8053 32.7959L33.0373 36.564L29.8412 35.1444C28.3195 36.0817 26.6586 36.7708 24.9199 37.1845L23.6644 40.4462H18.3356L17.0798 37.1837C15.3415 36.7701 13.6813 36.0809 12.1598 35.144L8.96273 36.564L5.19463 32.796L6.61418 29.5999C5.67689 28.0782 4.98783 26.4172 4.57406 24.6786L1.3125 23.4232V20.7588H11.7067C11.7067 25.8917 15.867 30.052 20.9999 30.052C26.1329 30.052 30.2932 25.8918 30.2932 20.7588H40.6875ZM21.0002 1.78185C23.304 1.78185 25.1716 3.64954 25.1716 5.9533C25.1716 8.25707 23.3039 10.1248 21.0002 10.1248C18.6963 10.1248 16.8286 8.25707 16.8286 5.9533C16.8286 3.64954 18.6962 1.78185 21.0002 1.78185ZM13.3633 18.3079L28.6368 18.3079C28.9446 18.3079 29.1747 18.0328 29.1204 17.7299C28.4219 13.835 25.0185 10.9451 21.0001 10.9451C16.9437 10.9451 13.5714 13.8726 12.8797 17.7299C12.8254 18.0329 13.0555 18.3079 13.3633 18.3079ZM8.69539 1.55273C10.7689 1.55273 12.4499 3.23364 12.4499 5.30722C12.4499 7.38073 10.7689 9.06171 8.69539 9.06171C6.62181 9.06171 4.94091 7.38073 4.94091 5.30722C4.94091 3.23364 6.62181 1.55273 8.69539 1.55273ZM1.82208 16.5087C1.54506 16.5087 1.33793 16.2611 1.38682 15.9884C2.00936 12.5167 5.04459 9.88194 8.69539 9.88194C10.9161 9.88194 12.9089 10.8569 14.2697 12.402C13.1395 13.5199 12.2826 14.9223 11.8201 16.5086L1.82208 16.5087ZM33.3048 1.55273C35.3783 1.55273 37.0593 3.23364 37.0593 5.30722C37.0593 7.38073 35.3783 9.06171 33.3048 9.06171C31.2312 9.06171 29.5503 7.38073 29.5503 5.30722C29.5503 3.23364 31.2313 1.55273 33.3048 1.55273Z" fill="#A73A3A"/>
</svg>
