<svg width="42" height="42" viewBox="0 0 42 42" fill="none" xmlns="http://www.w3.org/2000/svg">
<g clip-path="url(#clip0_4918_1823)">
<path d="M21 16.9512C24.9415 16.9512 28.1367 13.756 28.1367 9.81445C28.1367 5.87295 24.9415 2.67773 21 2.67773C17.0585 2.67773 13.8633 5.87295 13.8633 9.81445C13.8633 13.756 17.0585 16.9512 21 16.9512Z" fill="#A73A3A"/>
<path d="M35.4375 16.9512C37.9293 16.9512 39.9492 14.9312 39.9492 12.4395C39.9492 9.9477 37.9293 7.92773 35.4375 7.92773C32.9457 7.92773 30.9258 9.9477 30.9258 12.4395C30.9258 14.9312 32.9457 16.9512 35.4375 16.9512Z" fill="#A73A3A"/>
<path d="M6.5625 16.9512C9.05425 16.9512 11.0742 14.9312 11.0742 12.4395C11.0742 9.9477 9.05425 7.92773 6.5625 7.92773C4.07075 7.92773 2.05078 9.9477 2.05078 12.4395C2.05078 14.9312 4.07075 16.9512 6.5625 16.9512Z" fill="#A73A3A"/>
<path d="M11.0078 21.0033C9.2318 19.5483 7.62341 19.7409 5.56992 19.7409C2.49867 19.7409 0 22.2248 0 25.2772V34.2358C0 35.5614 1.08199 36.6393 2.41254 36.6393C8.15686 36.6393 7.46484 36.7432 7.46484 36.3916C7.46484 30.0435 6.71295 25.3881 11.0078 21.0033Z" fill="#A73A3A"/>
<path d="M22.9536 19.7726C19.3669 19.4734 16.2493 19.776 13.5603 21.9956C9.06026 25.6001 9.92627 30.4533 9.92627 36.3905C9.92627 37.9613 11.2043 39.2632 12.799 39.2632C30.1143 39.2632 30.8035 39.8218 31.8303 37.5479C32.167 36.779 32.0747 37.0233 32.0747 29.6672C32.0747 23.8244 27.0156 19.7726 22.9536 19.7726Z" fill="#A73A3A"/>
<path d="M36.43 19.7407C34.3653 19.7407 32.7658 19.55 30.9922 21.0031C35.2549 25.3554 34.5351 29.6931 34.5351 36.3914C34.5351 36.7452 33.9607 36.6391 39.5013 36.6391C40.8794 36.6391 42 35.5227 42 34.1503V25.2769C42 22.2246 39.5013 19.7407 36.43 19.7407Z" fill="#A73A3A"/>
</g>
<defs>
<clipPath id="clip0_4918_1823">
<rect width="42" height="42" fill="white"/>
</clipPath>
</defs>
</svg>
