<svg width="42" height="42" viewBox="0 0 42 42" fill="none" xmlns="http://www.w3.org/2000/svg">
<path d="M38.0359 18.3088C36.7731 18.3103 35.6834 19.1951 35.4234 20.4309H31.848C31.7191 17.9288 30.7249 15.5496 29.0353 13.6993L31.5704 11.1643C32.706 11.922 34.2303 11.7011 35.1039 10.6524C35.9781 9.60374 35.9204 8.06439 34.9706 7.08405C34.0205 6.10371 32.4839 5.99756 31.4083 6.83771C30.3326 7.67836 30.0636 9.19501 30.785 10.3539L28.233 12.9061C26.3734 11.2402 23.9944 10.2699 21.5 10.1605V6.58254C22.8409 6.33493 23.7793 5.11581 23.6757 3.75624C23.5721 2.39667 22.4599 1.33388 21.0968 1.29228C19.7339 1.25067 18.5589 2.24337 18.3726 3.59436C18.1863 4.94485 19.0483 6.21869 20.3714 6.54799V10.169C17.9008 10.3145 15.5551 11.304 13.7263 12.9714L11.1933 10.4386C11.9091 9.37883 11.7735 7.96051 10.8693 7.05606C9.88413 6.07194 8.30797 6.01067 7.24972 6.91486C6.19096 7.81981 6.00613 9.38614 6.8246 10.5125C7.64331 11.6386 9.19022 11.9462 10.3773 11.2187L12.9318 13.7735C11.2631 15.6335 10.2913 18.0148 10.1814 20.5115H6.62465C6.38536 19.1696 5.17279 18.2241 3.81298 18.3191C2.45341 18.4139 1.38406 19.5188 1.33388 20.8809C1.28345 22.2428 2.26808 23.4238 3.61731 23.619C4.96604 23.8144 6.24517 22.9609 6.58279 21.6401H10.19C10.3352 24.1049 11.3201 26.4453 12.9807 28.2721L10.4623 30.7902C9.32689 30.0325 7.80267 30.2532 6.92848 31.3018C6.05455 32.3505 6.11204 33.8894 7.06161 34.8702C8.01145 35.8505 9.54777 35.9572 10.6239 35.1171C11.6996 34.2764 11.9689 32.7603 11.2477 31.6011L13.7813 29.0678C15.6224 30.7252 17.978 31.6992 20.452 31.8268V35.3884C19.1189 35.6768 18.2178 36.9247 18.3625 38.281C18.5077 39.6373 19.6525 40.666 21.0163 40.666C22.3804 40.666 23.5252 39.6373 23.6704 38.281C23.8152 36.9247 22.914 35.6768 21.5806 35.3884V31.8268C24.0766 31.6982 26.4506 30.7085 28.2988 29.026L30.8195 31.5469C30.0699 32.6874 30.3011 34.2098 31.3553 35.0765C32.41 35.9431 33.9484 35.8748 34.9219 34.9184C35.8957 33.962 35.9915 32.4252 35.144 31.3553C34.2963 30.2854 32.7784 30.0267 31.6246 30.7557L29.0943 28.2249C30.7486 26.3843 31.7207 24.0312 31.848 21.5595H35.4315C35.7366 22.9238 37.0429 23.8212 38.4257 23.6167C39.8085 23.4125 40.7991 22.1754 40.6968 20.7813C40.5942 19.3872 39.4335 18.3088 38.0356 18.3088H38.0359ZM23.0827 18.0123H24.6079C24.9193 18.0123 25.1722 18.2652 25.1722 18.5766C25.1722 18.8885 24.9193 19.1411 24.6079 19.1411H23.0827C22.8106 20.9145 21.299 22.2851 19.4805 22.2851H18.8436L22.9493 26.1477C23.0577 26.2468 23.1215 26.386 23.1258 26.5333C23.1298 26.6803 23.0746 26.823 22.9717 26.9281C22.7584 27.1551 22.4016 27.1669 22.1739 26.9544L17.0367 22.1043C16.8675 21.95 16.8131 21.7065 16.8998 21.4947C16.9866 21.2831 17.1963 21.148 17.425 21.1565H19.4805C20.6747 21.1565 21.6762 20.2697 21.9334 19.1411H17.425C17.1136 19.1411 16.8607 18.8885 16.8607 18.5766C16.8607 18.2652 17.1136 18.0123 17.425 18.0123H21.9334C21.6709 16.8718 20.6507 16.067 19.4805 16.0776H17.425C17.1136 16.0776 16.8607 15.8249 16.8607 15.5133C16.8607 15.2019 17.1136 14.949 17.425 14.949H24.6079C24.9193 14.949 25.1722 15.2019 25.1722 15.5133C25.1722 15.8249 24.9193 16.0776 24.6079 16.0776H22.1139C22.6172 16.6419 22.9652 17.2869 23.0827 18.0123Z" fill="#A73A3A"/>
</svg>
