<svg width="24" height="24" viewBox="0 0 24 24" fill="none" xmlns="http://www.w3.org/2000/svg">
<path d="M17.874 4.806C17.6129 4.806 17.3577 4.88342 17.1406 5.02846C16.9236 5.1735 16.7544 5.37966 16.6545 5.62086C16.5546 5.86206 16.5284 6.12746 16.5794 6.38352C16.6303 6.63957 16.756 6.87478 16.9406 7.05938C17.1252 7.24399 17.3604 7.3697 17.6165 7.42064C17.8725 7.47157 18.1379 7.44543 18.3791 7.34552C18.6203 7.24561 18.8265 7.07643 18.9715 6.85935C19.1166 6.64228 19.194 6.38707 19.194 6.126C19.194 5.77591 19.0549 5.44017 18.8074 5.19262C18.5598 4.94507 18.2241 4.806 17.874 4.806ZM22.934 7.468C22.9126 6.55533 22.7417 5.65234 22.428 4.795C22.1483 4.06145 21.713 3.39721 21.152 2.848C20.6073 2.28417 19.9415 1.85159 19.205 1.583C18.3499 1.25978 17.4459 1.08493 16.532 1.066C15.366 1 14.992 1 12 1C9.008 1 8.634 1 7.468 1.066C6.55407 1.08493 5.65008 1.25978 4.795 1.583C4.05984 1.85431 3.39463 2.28652 2.848 2.848C2.28417 3.3927 1.85159 4.05848 1.583 4.795C1.25978 5.65008 1.08493 6.55407 1.066 7.468C1 8.634 1 9.008 1 12C1 14.992 1 15.366 1.066 16.532C1.08493 17.4459 1.25978 18.3499 1.583 19.205C1.85159 19.9415 2.28417 20.6073 2.848 21.152C3.39463 21.7135 4.05984 22.1457 4.795 22.417C5.65008 22.7402 6.55407 22.9151 7.468 22.934C8.634 23 9.008 23 12 23C14.992 23 15.366 23 16.532 22.934C17.4459 22.9151 18.3499 22.7402 19.205 22.417C19.9415 22.1484 20.6073 21.7158 21.152 21.152C21.7155 20.6048 22.1512 19.94 22.428 19.205C22.7417 18.3477 22.9126 17.4447 22.934 16.532C22.934 15.366 23 14.992 23 12C23 9.008 23 8.634 22.934 7.468ZM20.954 16.4C20.946 17.0982 20.8195 17.7901 20.58 18.446C20.4044 18.9247 20.1223 19.3573 19.755 19.711C19.3982 20.0746 18.9665 20.3561 18.49 20.536C17.8341 20.7755 17.1423 20.902 16.444 20.91C15.344 20.965 14.937 20.976 12.044 20.976C9.151 20.976 8.744 20.976 7.644 20.91C6.91898 20.9236 6.19705 20.8119 5.51 20.58C5.05436 20.3909 4.64249 20.1101 4.3 19.755C3.9349 19.4016 3.65633 18.9687 3.486 18.49C3.21744 17.8247 3.06849 17.1171 3.046 16.4C3.046 15.3 2.98 14.893 2.98 12C2.98 9.107 2.98 8.7 3.046 7.6C3.05093 6.88616 3.18125 6.17874 3.431 5.51C3.62465 5.0457 3.92189 4.63182 4.3 4.3C4.63419 3.92179 5.04722 3.62141 5.51 3.42C6.18051 3.17805 6.8872 3.05159 7.6 3.046C8.7 3.046 9.107 2.98 12 2.98C14.893 2.98 15.3 2.98 16.4 3.046C17.0982 3.05401 17.7901 3.18047 18.446 3.42C18.9459 3.60552 19.3945 3.90713 19.755 4.3C20.1155 4.6379 20.3971 5.05101 20.58 5.51C20.8245 6.17983 20.951 6.88696 20.954 7.6C21.009 8.7 21.02 9.107 21.02 12C21.02 14.893 21.009 15.3 20.954 16.4ZM12 6.357C10.8844 6.35917 9.79446 6.69198 8.86792 7.31336C7.94138 7.93474 7.21982 8.81682 6.7944 9.84813C6.36898 10.8794 6.2588 12.0137 6.47777 13.1076C6.69675 14.2015 7.23506 15.206 8.02468 15.9941C8.81431 16.7822 9.81981 17.3185 10.9141 17.5354C12.0085 17.7522 13.1425 17.6398 14.173 17.2124C15.2035 16.785 16.0842 16.0617 16.7037 15.1339C17.3233 14.2062 17.654 13.1156 17.654 12C17.6555 11.2576 17.5101 10.5223 17.2264 9.83625C16.9426 9.15024 16.526 8.52709 16.0006 8.00266C15.4751 7.47822 14.8511 7.06285 14.1646 6.78042C13.478 6.498 12.7424 6.3541 12 6.357ZM12 15.663C11.2755 15.663 10.5673 15.4482 9.96495 15.0457C9.36257 14.6432 8.89307 14.0711 8.61583 13.4018C8.33859 12.7324 8.26605 11.9959 8.40738 11.2854C8.54872 10.5748 8.89759 9.92215 9.40987 9.40987C9.92215 8.89759 10.5748 8.54872 11.2854 8.40738C11.9959 8.26605 12.7324 8.33859 13.4018 8.61583C14.0711 8.89307 14.6432 9.36257 15.0457 9.96495C15.4482 10.5673 15.663 11.2755 15.663 12C15.663 12.481 15.5683 12.9574 15.3842 13.4018C15.2001 13.8462 14.9303 14.25 14.5901 14.5901C14.25 14.9303 13.8462 15.2001 13.4018 15.3842C12.9574 15.5683 12.481 15.663 12 15.663Z" fill="white"/>
</svg>
