<svg width="24" height="24" viewBox="0 0 24 24" fill="none" xmlns="http://www.w3.org/2000/svg">
<path d="M3.96869 6.2281H3.93683C3.59947 6.24913 3.2614 6.20046 2.94378 6.08514C2.62615 5.96981 2.33582 5.79032 2.09095 5.55789C1.84608 5.32546 1.65196 5.04511 1.52073 4.73438C1.38951 4.42366 1.324 4.08925 1.32833 3.7521C1.33265 3.41496 1.4067 3.08233 1.54585 2.77506C1.685 2.46778 1.88625 2.19247 2.137 1.96637C2.38774 1.74026 2.68258 1.56823 3.00306 1.46104C3.32354 1.35386 3.66275 1.31383 3.99945 1.34346C4.33681 1.31995 4.6754 1.36621 4.994 1.47933C5.31259 1.59246 5.60433 1.77001 5.85093 2.00085C6.09753 2.2317 6.29366 2.51087 6.42704 2.82087C6.56042 3.13087 6.62817 3.465 6.62605 3.80234C6.62392 4.13967 6.55197 4.47293 6.41469 4.78123C6.27742 5.08953 6.07778 5.36622 5.8283 5.59396C5.57882 5.8217 5.28486 5.99558 4.96487 6.10471C4.64487 6.21383 4.30572 6.25584 3.96869 6.2281ZM1.78673 9.51595H6.18141V22.6673H1.78673V9.51595ZM17.7174 9.51595C16.9769 9.51795 16.2465 9.68685 15.5806 10.01C14.9147 10.3332 14.3307 10.8024 13.8721 11.3823V9.51595H9.47742V22.6673H13.8721V16.6396C13.8721 16.0583 14.1036 15.5008 14.5157 15.0897C14.9278 14.6786 15.4867 14.4477 16.0694 14.4477C16.6522 14.4477 17.2111 14.6786 17.6232 15.0897C18.0353 15.5008 18.2668 16.0583 18.2668 16.6396V22.6673H22.6615V14.4477C22.6615 13.1397 22.1406 11.8853 21.2134 10.9604C20.2862 10.0355 19.0287 9.51595 17.7174 9.51595Z" fill="white"/>
</svg>
