<svg width="23" height="18" viewBox="0 0 23 18" fill="none" xmlns="http://www.w3.org/2000/svg">
<path d="M20.9785 0.240234H2.02148C0.90823 0.240234 0 1.14748 0 2.26172V15.7383C0 16.8487 0.904188 17.7598 2.02148 17.7598H20.9785C22.089 17.7598 23 16.8556 23 15.7383V2.26172C23 1.15125 22.0958 0.240234 20.9785 0.240234ZM20.6994 1.58789L11.5429 10.7445L2.30714 1.58789H20.6994ZM1.34766 15.4592V2.53435L7.83792 8.96896L1.34766 15.4592ZM2.30058 16.4121L8.79494 9.91775L11.0705 12.1738C11.334 12.435 11.7591 12.4341 12.0214 12.1718L14.2402 9.95293L20.6994 16.4121H2.30058ZM21.6523 15.4592L15.1932 9L21.6523 2.54077V15.4592Z" fill="#A73A3A"/>
</svg>
