<svg width="46" height="46" viewBox="0 0 46 46" fill="none" xmlns="http://www.w3.org/2000/svg">
<g clip-path="url(#clip0_4918_1352)">
<path d="M23 0.5C17.0326 0.5 11.3097 2.87053 7.0901 7.0901C2.87053 11.3097 0.5 17.0326 0.5 23C0.5 28.9674 2.87053 34.6903 7.0901 38.9099C11.3097 43.1295 17.0326 45.5 23 45.5C28.9674 45.5 34.6903 43.1295 38.9099 38.9099C43.1295 34.6903 45.5 28.9674 45.5 23C45.5 17.0326 43.1295 11.3097 38.9099 7.0901C34.6903 2.87053 28.9674 0.5 23 0.5ZM23 8.9375C25.2729 8.86782 27.5287 9.35036 29.5742 10.3438L10.3438 29.5742C9.35036 27.5287 8.86782 25.2729 8.9375 23C8.9375 19.2704 10.4191 15.6935 13.0563 13.0563C15.6935 10.4191 19.2704 8.9375 23 8.9375ZM37.0625 23C37.0625 26.7296 35.5809 30.3065 32.9437 32.9437C30.3065 35.5809 26.7296 37.0625 23 37.0625C20.7271 37.1322 18.4713 36.6496 16.4258 35.6562L35.6562 16.4258C36.6496 18.4713 37.1322 20.7271 37.0625 23Z" fill="#A73A3A"/>
</g>
<defs>
<clipPath id="clip0_4918_1352">
<rect width="45" height="45" fill="white" transform="translate(0.5 0.5)"/>
</clipPath>
</defs>
</svg>
