<svg width="60" height="60" viewBox="0 0 60 60" fill="none" xmlns="http://www.w3.org/2000/svg">
<path d="M33.9749 30.3843C34.9153 29.5719 35.5847 28.4912 35.893 27.2874C36.2014 26.0835 36.134 24.8141 35.6999 23.6496C35.2658 22.4851 34.4858 21.4814 33.4646 20.7731C32.4434 20.0649 31.23 19.686 29.9872 19.6875C28.7445 19.689 27.532 20.0707 26.5125 20.7813C25.493 21.492 24.7153 22.4976 24.284 23.6631C23.8526 24.8285 23.7882 26.0981 24.0994 27.3013C24.4106 28.5044 25.0825 29.5835 26.0249 30.3937C25.1095 31.0702 24.3672 31.9538 23.8589 32.9722C23.3505 33.9906 23.0904 35.1149 23.0999 36.2531V38.1281C23.1005 38.3108 23.1539 38.4894 23.2537 38.6424C23.3535 38.7955 23.4954 38.9164 23.6624 38.9906C25.6614 39.8625 27.8189 40.3125 29.9999 40.3125C32.1808 40.3125 34.3383 39.8625 36.3374 38.9906C36.5043 38.9164 36.6462 38.7955 36.746 38.6424C36.8458 38.4894 36.8993 38.3108 36.8999 38.1281V36.2531C36.9103 35.1134 36.6507 33.9874 36.1423 32.9674C35.6339 31.9473 34.8912 31.0621 33.9749 30.3843ZM25.7811 25.7812C25.7905 24.6685 26.2391 23.6045 27.0293 22.821C27.8194 22.0375 28.8871 21.5979 29.9999 21.5979C31.1126 21.5979 32.1803 22.0375 32.9705 22.821C33.7606 23.6045 34.2092 24.6685 34.2186 25.7812C34.2092 26.8939 33.7606 27.9579 32.9705 28.7414C32.1803 29.5249 31.1126 29.9645 29.9999 29.9645C28.8871 29.9645 27.8194 29.5249 27.0293 28.7414C26.2391 27.9579 25.7905 26.8939 25.7811 25.7812Z" fill="white"/>
<path d="M37.5008 28.5943C37.3776 28.5942 37.2557 28.6184 37.1419 28.6655C37.0282 28.7126 36.9248 28.7816 36.8377 28.8687C36.7506 28.9558 36.6816 29.0591 36.6345 29.1729C36.5874 29.2867 36.5632 29.4086 36.5633 29.5318V30.4693C36.5633 30.7179 36.6621 30.9564 36.8379 31.1322C37.0137 31.308 37.2521 31.4068 37.5008 31.4068C37.7494 31.4068 37.9879 31.308 38.1637 31.1322C38.3395 30.9564 38.4383 30.7179 38.4383 30.4693V29.5318C38.4384 29.4086 38.4142 29.2867 38.3671 29.1729C38.32 29.0591 38.2509 28.9558 38.1639 28.8687C38.0768 28.7816 37.9734 28.7126 37.8596 28.6655C37.7459 28.6184 37.6239 28.5942 37.5008 28.5943ZM39.6349 28.3031C40.0648 28.7638 40.3039 29.3705 40.3037 30.0007C40.3035 30.6308 40.0642 31.2374 39.6339 31.6978C39.549 31.787 39.4826 31.8921 39.4383 32.007C39.394 32.1219 39.3728 32.2444 39.3758 32.3675C39.3789 32.4906 39.4062 32.6119 39.4561 32.7245C39.5061 32.8371 39.5777 32.9387 39.667 33.0235C41.356 34.306 42.3524 30.3643 42.1882 30.0005C42.1825 28.8882 41.7549 27.8196 40.9917 27.0104C40.819 26.8359 40.5848 26.7361 40.3393 26.7325C40.0939 26.7289 39.8568 26.8218 39.6791 26.9911C39.5013 27.1604 39.3971 27.3927 39.3889 27.6381C39.3806 27.8834 39.4689 28.1222 39.6349 28.3031ZM23.4383 30.4693V29.5318C23.4348 29.2854 23.3345 29.0503 23.1591 28.8774C22.9836 28.7044 22.7472 28.6074 22.5008 28.6074C22.2544 28.6074 22.0179 28.7044 21.8425 28.8774C21.6671 29.0503 21.5668 29.2854 21.5633 29.5318V30.4693C21.5668 30.7156 21.6671 30.9507 21.8425 31.1237C22.0179 31.2966 22.2544 31.3936 22.5008 31.3936C22.7472 31.3936 22.9836 31.2966 23.1591 31.1237C23.3345 30.9507 23.4348 30.7156 23.4383 30.4693ZM19.6883 30.0005C19.6955 29.37 19.9373 28.7649 20.3667 28.3031C20.5325 28.1222 20.6207 27.8834 20.6124 27.6382C20.604 27.3929 20.4998 27.1607 20.3222 26.9914C20.1445 26.8221 19.9075 26.7293 19.6621 26.7329C19.4167 26.7364 19.1825 26.8361 19.0098 27.0105C18.2496 27.8204 17.8263 28.8895 17.8262 30.0004C17.826 31.1112 18.249 32.1804 19.009 32.9906C19.1817 33.1652 19.416 33.2652 19.6616 33.2689C19.9072 33.2727 20.1445 33.1799 20.3224 33.0106C20.5003 32.8413 20.6047 32.6089 20.6132 32.3634C20.6216 32.118 20.5334 31.879 20.3675 31.6978C19.9377 31.2364 19.6955 30.6311 19.6883 30.0005Z" fill="white"/>
<path d="M52.5 24.375C51.172 24.3776 49.8877 24.8495 48.8739 25.7072C47.86 26.5649 47.182 27.7533 46.9594 29.0625H45.8906C45.6819 25.4949 44.2746 22.1023 41.8969 19.4344L42.6656 18.6656C48.3094 22.5375 54.6375 15.0562 49.8844 10.1156C44.925 5.3625 37.4813 11.6906 41.3344 17.3344L40.5656 18.1031C37.8977 15.7254 34.5051 14.3181 30.9375 14.1094V13.0406C37.6406 11.7656 36.8812 2.03437 30 1.875C23.1187 2.03437 22.3594 11.775 29.0625 13.0406V14.1094C25.4949 14.3181 22.1023 15.7254 19.4344 18.1031L18.6656 17.3344C22.5187 11.6906 15.075 5.3625 10.1156 10.1156C5.3625 15.0562 11.6906 22.5375 17.3344 18.6656L18.1031 19.4344C15.7254 22.1023 14.3181 25.4949 14.1094 29.0625H13.0406C11.7656 22.3594 2.03437 23.1187 1.875 30C2.03437 36.8812 11.775 37.6406 13.0406 30.9375H14.1094C14.3181 34.5051 15.7254 37.8977 18.1031 40.5656L17.3344 41.3344C11.6906 37.4813 5.3625 44.925 10.1156 49.8844C15.075 54.6375 22.5187 48.3094 18.6656 42.6656L19.4344 41.8969C22.1023 44.2746 25.4949 45.6819 29.0625 45.8906V46.9594C22.3594 48.2344 23.1187 57.9656 30 58.125C36.8812 57.9656 37.6406 48.225 30.9375 46.9594V45.8906C34.5051 45.6819 37.8977 44.2746 40.5656 41.8969L41.3344 42.6656C37.4812 48.3094 44.925 54.6375 49.8844 49.8844C54.6375 44.925 48.3094 37.4813 42.6656 41.3344L41.8969 40.5656C44.2746 37.8977 45.6819 34.5051 45.8906 30.9375H46.9594C48.2344 37.65 57.9656 36.8719 58.125 30C58.1238 28.5085 57.5308 27.0785 56.4762 26.0238C55.4215 24.9692 53.9915 24.3762 52.5 24.375ZM30 44.0625C26.2718 44.058 22.6976 42.5749 20.0613 39.9387C17.4251 37.3024 15.942 33.7282 15.9375 30C16.7063 11.3438 43.2938 11.3531 44.0625 30C44.058 33.7282 42.5749 37.3024 39.9387 39.9387C37.3024 42.5749 33.7282 44.058 30 44.0625Z" fill="white"/>
</svg>
