<svg width="888" height="724" viewBox="0 0 888 724" fill="none" xmlns="http://www.w3.org/2000/svg">
<rect x="82" width="724" height="724" rx="362" fill="white"/>
<path d="M411.863 493.521H40.0003V89.9997C40.0003 40.2941 80.2947 -0.000305176 130 -0.000305176H411.863V493.521Z" fill="#A73A3A"/>
<path d="M476.135 230.479H847.998V634C847.998 683.706 807.703 724 757.998 724H476.135V230.479Z" fill="#4040DA"/>
<rect x="144" y="104" width="600" height="516" rx="72" fill="white"/>
<g filter="url(#filter0_d_4918_1530)">
<rect x="60" y="200" width="768" height="324" rx="24" fill="white" shape-rendering="crispEdges"/>
<rect x="78" y="218" width="732" height="72" fill="#F1F1FF"/>
<path d="M97.0938 260V248.727H101.32C103.492 248.727 104.914 250.055 104.914 252.086V252.102C104.914 253.664 104.055 254.875 102.648 255.32L105.258 260H103.609L101.195 255.539H98.5V260H97.0938ZM98.5 254.297H101.195C102.641 254.297 103.461 253.516 103.461 252.133V252.117C103.461 250.773 102.578 249.977 101.133 249.977H98.5V254.297ZM107.242 250.5C106.773 250.5 106.391 250.117 106.391 249.648C106.391 249.172 106.773 248.797 107.242 248.797C107.719 248.797 108.094 249.172 108.094 249.648C108.094 250.117 107.719 250.5 107.242 250.5ZM106.562 260V251.875H107.922V260H106.562ZM112.656 260.156C110.742 260.156 109.586 259.18 109.422 257.727L109.414 257.656H110.773L110.789 257.734C110.953 258.547 111.555 259.023 112.664 259.023C113.766 259.023 114.422 258.562 114.422 257.828V257.82C114.422 257.234 114.117 256.906 113.195 256.68L111.906 256.367C110.375 256 109.633 255.289 109.633 254.117V254.109C109.633 252.711 110.859 251.719 112.617 251.719C114.398 251.719 115.531 252.758 115.633 254.117L115.641 254.219H114.344L114.336 254.164C114.227 253.375 113.625 252.852 112.617 252.852C111.633 252.852 111.023 253.328 111.023 254.047V254.055C111.023 254.609 111.391 254.992 112.289 255.211L113.578 255.523C115.219 255.922 115.812 256.57 115.812 257.727V257.734C115.812 259.156 114.469 260.156 112.656 260.156ZM117.336 260V248.727H118.695V255.461H118.727L122.289 251.875H123.938L120.414 255.383L124.047 260H122.469L119.453 256.211L118.695 256.938V260H117.336ZM128.484 260V248.727H130.109L134.016 258.227H134.062L137.969 248.727H139.594V260H138.281V251.289H138.234L134.633 260H133.445L129.844 251.289H129.797V260H128.484ZM144.914 260.156C142.578 260.156 141.172 258.523 141.172 255.969V255.961C141.172 253.445 142.609 251.719 144.828 251.719C147.047 251.719 148.398 253.367 148.398 255.805V256.305H142.547C142.578 257.977 143.5 258.953 144.945 258.953C145.977 258.953 146.703 258.438 146.938 257.742L146.961 257.672H148.297L148.281 257.75C148.016 259.094 146.688 260.156 144.914 260.156ZM144.82 252.922C143.641 252.922 142.719 253.727 142.57 255.242H147.016C146.883 253.664 146.008 252.922 144.82 252.922ZM152.414 260.156C150.922 260.156 150.188 259.484 150.188 257.93V253H149V251.875H150.188V249.68H151.594V251.875H153.141V253H151.594V257.922C151.594 258.789 151.977 259.031 152.703 259.031C152.867 259.031 153.023 259.008 153.141 259V260.102C152.969 260.125 152.68 260.156 152.414 260.156ZM154.602 260V251.875H155.961V253.25H155.992C156.266 252.312 156.969 251.719 157.883 251.719C158.117 251.719 158.32 251.758 158.43 251.773V253.094C158.32 253.055 158.031 253.016 157.703 253.016C156.648 253.016 155.961 253.75 155.961 254.984V260H154.602ZM160.305 250.5C159.836 250.5 159.453 250.117 159.453 249.648C159.453 249.172 159.836 248.797 160.305 248.797C160.781 248.797 161.156 249.172 161.156 249.648C161.156 250.117 160.781 250.5 160.305 250.5ZM159.625 260V251.875H160.984V260H159.625ZM166.203 260.156C163.898 260.156 162.438 258.516 162.438 255.93V255.922C162.438 253.359 163.93 251.719 166.188 251.719C168.211 251.719 169.406 253.062 169.578 254.453L169.586 254.516H168.258L168.242 254.453C168.039 253.641 167.383 252.922 166.188 252.922C164.773 252.922 163.828 254.094 163.828 255.938V255.945C163.828 257.836 164.797 258.953 166.203 258.953C167.312 258.953 168.023 258.328 168.25 257.422L168.266 257.359H169.602L169.594 257.414C169.375 258.961 168.039 260.156 166.203 260.156ZM173.734 260.156C171.82 260.156 170.664 259.18 170.5 257.727L170.492 257.656H171.852L171.867 257.734C172.031 258.547 172.633 259.023 173.742 259.023C174.844 259.023 175.5 258.562 175.5 257.828V257.82C175.5 257.234 175.195 256.906 174.273 256.68L172.984 256.367C171.453 256 170.711 255.289 170.711 254.117V254.109C170.711 252.711 171.938 251.719 173.695 251.719C175.477 251.719 176.609 252.758 176.711 254.117L176.719 254.219H175.422L175.414 254.164C175.305 253.375 174.703 252.852 173.695 252.852C172.711 252.852 172.102 253.328 172.102 254.047V254.055C172.102 254.609 172.469 254.992 173.367 255.211L174.656 255.523C176.297 255.922 176.891 256.57 176.891 257.727V257.734C176.891 259.156 175.547 260.156 173.734 260.156ZM178.352 256.062V254.797H183.352V256.062H178.352ZM192.344 260.188C189.906 260.188 188.258 258.992 188.117 257.062L188.109 256.953H189.516L189.531 257.062C189.695 258.195 190.789 258.891 192.422 258.891C194.047 258.891 195.07 258.156 195.07 256.992V256.984C195.07 255.992 194.422 255.438 192.875 255.094L191.625 254.82C189.422 254.336 188.391 253.344 188.391 251.695V251.688C188.398 249.836 190.039 248.539 192.359 248.539C194.562 248.539 196.172 249.812 196.297 251.656L196.305 251.773H194.898L194.883 251.664C194.711 250.516 193.75 249.836 192.32 249.836C190.812 249.844 189.828 250.562 189.828 251.648V251.656C189.828 252.578 190.508 253.156 191.977 253.477L193.227 253.75C195.539 254.258 196.508 255.195 196.508 256.914V256.922C196.508 258.922 194.922 260.188 192.344 260.188ZM198.711 250.5C198.242 250.5 197.859 250.117 197.859 249.648C197.859 249.172 198.242 248.797 198.711 248.797C199.188 248.797 199.562 249.172 199.562 249.648C199.562 250.117 199.188 250.5 198.711 250.5ZM198.031 260V251.875H199.391V260H198.031ZM201.242 260V251.875H202.602V253.031H202.633C203.07 252.273 203.898 251.719 205.133 251.719C206.914 251.719 207.945 252.875 207.945 254.727V260H206.586V254.969C206.586 253.648 205.969 252.922 204.719 252.922C203.438 252.922 202.602 253.836 202.602 255.219V260H201.242ZM213.047 260.156C210.742 260.156 209.281 258.516 209.281 255.93V255.922C209.281 253.359 210.773 251.719 213.031 251.719C215.055 251.719 216.25 253.062 216.422 254.453L216.43 254.516H215.102L215.086 254.453C214.883 253.641 214.227 252.922 213.031 252.922C211.617 252.922 210.672 254.094 210.672 255.938V255.945C210.672 257.836 211.641 258.953 213.047 258.953C214.156 258.953 214.867 258.328 215.094 257.422L215.109 257.359H216.445L216.438 257.414C216.219 258.961 214.883 260.156 213.047 260.156ZM221.039 260.156C218.703 260.156 217.297 258.523 217.297 255.969V255.961C217.297 253.445 218.734 251.719 220.953 251.719C223.172 251.719 224.523 253.367 224.523 255.805V256.305H218.672C218.703 257.977 219.625 258.953 221.07 258.953C222.102 258.953 222.828 258.438 223.062 257.742L223.086 257.672H224.422L224.406 257.75C224.141 259.094 222.812 260.156 221.039 260.156ZM220.945 252.922C219.766 252.922 218.844 253.727 218.695 255.242H223.141C223.008 253.664 222.133 252.922 220.945 252.922ZM229.391 260V248.727H230.797V260H229.391ZM232.773 260V251.875H234.133V253.031H234.164C234.602 252.273 235.43 251.719 236.664 251.719C238.445 251.719 239.477 252.875 239.477 254.727V260H238.117V254.969C238.117 253.648 237.5 252.922 236.25 252.922C234.969 252.922 234.133 253.836 234.133 255.219V260H232.773ZM244.578 260.156C242.273 260.156 240.812 258.516 240.812 255.93V255.922C240.812 253.359 242.305 251.719 244.562 251.719C246.586 251.719 247.781 253.062 247.953 254.453L247.961 254.516H246.633L246.617 254.453C246.414 253.641 245.758 252.922 244.562 252.922C243.148 252.922 242.203 254.094 242.203 255.938V255.945C242.203 257.836 243.172 258.953 244.578 258.953C245.688 258.953 246.398 258.328 246.625 257.422L246.641 257.359H247.977L247.969 257.414C247.75 258.961 246.414 260.156 244.578 260.156ZM252.57 260.156C250.234 260.156 248.828 258.523 248.828 255.969V255.961C248.828 253.445 250.266 251.719 252.484 251.719C254.703 251.719 256.055 253.367 256.055 255.805V256.305H250.203C250.234 257.977 251.156 258.953 252.602 258.953C253.633 258.953 254.359 258.438 254.594 257.742L254.617 257.672H255.953L255.938 257.75C255.672 259.094 254.344 260.156 252.57 260.156ZM252.477 252.922C251.297 252.922 250.375 253.727 250.227 255.242H254.672C254.539 253.664 253.664 252.922 252.477 252.922ZM257.43 262.734V251.875H258.789V253.25H258.82C259.328 252.305 260.234 251.719 261.398 251.719C263.477 251.719 264.852 253.375 264.852 255.938V255.945C264.852 258.508 263.461 260.156 261.422 260.156C260.273 260.156 259.328 259.578 258.82 258.641H258.789V262.734H257.43ZM261.133 258.953C262.57 258.953 263.461 257.797 263.461 255.945V255.938C263.461 254.07 262.57 252.922 261.133 252.922C259.758 252.922 258.781 254.117 258.781 255.938V255.945C258.781 257.758 259.766 258.953 261.133 258.953ZM268.867 260.156C267.375 260.156 266.641 259.484 266.641 257.93V253H265.453V251.875H266.641V249.68H268.047V251.875H269.594V253H268.047V257.922C268.047 258.789 268.43 259.031 269.156 259.031C269.32 259.031 269.477 259.008 269.594 259V260.102C269.422 260.125 269.133 260.156 268.867 260.156ZM271.82 250.5C271.352 250.5 270.969 250.117 270.969 249.648C270.969 249.172 271.352 248.797 271.82 248.797C272.297 248.797 272.672 249.172 272.672 249.648C272.672 250.117 272.297 250.5 271.82 250.5ZM271.141 260V251.875H272.5V260H271.141ZM277.719 260.156C275.461 260.156 273.953 258.523 273.953 255.938V255.922C273.953 253.336 275.469 251.719 277.711 251.719C279.953 251.719 281.477 253.328 281.477 255.922V255.938C281.477 258.531 279.961 260.156 277.719 260.156ZM277.727 258.953C279.156 258.953 280.086 257.844 280.086 255.938V255.922C280.086 254.016 279.148 252.922 277.711 252.922C276.297 252.922 275.344 254.023 275.344 255.922V255.938C275.344 257.852 276.289 258.953 277.727 258.953ZM282.852 260V251.875H284.211V253.031H284.242C284.68 252.273 285.508 251.719 286.742 251.719C288.523 251.719 289.555 252.875 289.555 254.727V260H288.195V254.969C288.195 253.648 287.578 252.922 286.328 252.922C285.047 252.922 284.211 253.836 284.211 255.219V260H282.852Z" fill="#4040DA"/>
<path d="M429.078 258.734V260H422.094V248.727H429.078V249.992H423.5V253.609H428.789V254.859H423.5V258.734H429.078ZM430.586 254.117C430.586 252.727 431.828 251.734 433.617 251.734C435.297 251.734 436.531 252.734 436.594 254.109H435.297C435.203 253.328 434.57 252.844 433.57 252.844C432.578 252.844 431.922 253.336 431.922 254.047C431.922 254.609 432.352 254.984 433.273 255.219L434.531 255.523C436.172 255.938 436.766 256.531 436.766 257.727C436.766 259.141 435.43 260.141 433.531 260.141C431.75 260.141 430.508 259.172 430.367 257.734H431.727C431.875 258.578 432.516 259.031 433.617 259.031C434.719 259.031 435.398 258.562 435.398 257.828C435.398 257.25 435.062 256.938 434.148 256.695L432.719 256.328C431.289 255.961 430.586 255.227 430.586 254.117ZM438.617 249.914H439.977V251.875H441.555V252.992H439.977V257.82C439.977 258.562 440.289 258.898 440.984 258.898C441.141 258.898 441.453 258.875 441.547 258.859V260C441.383 260.039 441.008 260.062 440.688 260.062C439.195 260.062 438.617 259.453 438.617 257.891V252.992H437.406V251.875H438.617V249.914ZM446.031 252.914C444.758 252.914 443.867 253.891 443.781 255.242H448.195C448.164 253.883 447.312 252.914 446.031 252.914ZM448.164 257.672H449.5C449.266 259.094 447.891 260.141 446.117 260.141C443.789 260.141 442.375 258.523 442.375 255.969C442.375 253.445 443.812 251.734 446.055 251.734C448.25 251.734 449.602 253.328 449.602 255.789V256.305H443.773V256.383C443.773 257.938 444.688 258.961 446.148 258.961C447.18 258.961 447.938 258.438 448.164 257.672ZM454.234 252.914C452.961 252.914 452.07 253.891 451.984 255.242H456.398C456.367 253.883 455.516 252.914 454.234 252.914ZM456.367 257.672H457.703C457.469 259.094 456.094 260.141 454.32 260.141C451.992 260.141 450.578 258.523 450.578 255.969C450.578 253.445 452.016 251.734 454.258 251.734C456.453 251.734 457.805 253.328 457.805 255.789V256.305H451.977V256.383C451.977 257.938 452.891 258.961 454.352 258.961C455.383 258.961 456.141 258.438 456.367 257.672ZM469.516 258.734V260H462.672V248.727H464.078V258.734H469.516ZM473.984 260.141C471.734 260.141 470.219 258.523 470.219 255.938C470.219 253.344 471.734 251.734 473.984 251.734C476.227 251.734 477.742 253.344 477.742 255.938C477.742 258.523 476.227 260.141 473.984 260.141ZM473.984 258.945C475.422 258.945 476.359 257.852 476.359 255.938C476.359 254.023 475.422 252.93 473.984 252.93C472.547 252.93 471.602 254.023 471.602 255.938C471.602 257.852 472.547 258.945 473.984 258.945ZM479.117 260V251.875H480.398V253.172H480.43C480.883 252.297 481.75 251.734 483.008 251.734C484.789 251.734 485.82 252.883 485.82 254.727V260H484.461V254.969C484.461 253.656 483.844 252.938 482.594 252.938C481.312 252.938 480.477 253.844 480.477 255.219V260H479.117ZM490.859 258.867C492.273 258.867 493.219 257.695 493.219 255.906C493.219 254.117 492.273 252.93 490.859 252.93C489.461 252.93 488.547 254.086 488.547 255.906C488.547 257.727 489.461 258.867 490.859 258.867ZM490.906 263.062C489.117 263.062 487.703 262.055 487.477 260.672H488.875C489.141 261.414 489.945 261.906 490.961 261.906C492.367 261.906 493.219 261.094 493.219 259.883V258.602H493.188C492.688 259.484 491.727 260.062 490.586 260.062C488.516 260.062 487.156 258.43 487.156 255.906C487.156 253.359 488.516 251.734 490.617 251.734C491.766 251.734 492.719 252.297 493.258 253.242H493.281V251.875H494.578V259.836C494.578 261.773 493.148 263.062 490.906 263.062ZM507.172 260L506.039 256.773H501.555L500.422 260H498.945L503.102 248.727H504.492L508.648 260H507.172ZM503.773 250.438L501.969 255.578H505.625L503.82 250.438H503.773ZM509.797 260V248.727H511.156V260H509.797ZM516.938 251.734C519.008 251.734 520.414 253.391 520.414 255.938C520.414 258.484 519.016 260.141 516.969 260.141C515.805 260.141 514.867 259.57 514.383 258.68H514.352V262.711H512.992V251.875H514.281V253.25H514.312C514.812 252.336 515.758 251.734 516.938 251.734ZM516.672 258.945C518.117 258.945 519.023 257.781 519.023 255.938C519.023 254.102 518.117 252.93 516.672 252.93C515.281 252.93 514.344 254.133 514.344 255.938C514.344 257.75 515.281 258.945 516.672 258.945ZM521.859 260V248.727H523.219V253.172H523.25C523.703 252.266 524.594 251.734 525.828 251.734C527.609 251.734 528.688 252.938 528.688 254.75V260H527.328V255C527.328 253.711 526.68 252.938 525.406 252.938C524.055 252.938 523.219 253.859 523.219 255.266V260H521.859ZM533.094 258.984C534.375 258.984 535.359 258.086 535.359 256.914V256.25L533.188 256.383C532.094 256.453 531.469 256.938 531.469 257.703C531.469 258.477 532.117 258.984 533.094 258.984ZM532.789 260.141C531.172 260.141 530.086 259.164 530.086 257.703C530.086 256.312 531.156 255.438 533.031 255.328L535.359 255.195V254.516C535.359 253.523 534.703 252.93 533.578 252.93C532.531 252.93 531.875 253.422 531.703 254.219H530.391C530.484 252.812 531.688 251.734 533.609 251.734C535.516 251.734 536.719 252.766 536.719 254.383V260H535.43V258.602H535.398C534.914 259.531 533.883 260.141 532.789 260.141Z" fill="#4040DA"/>
<path d="M617.555 256.898H618.969C619.102 258.117 620.258 258.922 621.867 258.922C623.391 258.922 624.5 258.117 624.5 257.008C624.5 256.055 623.836 255.469 622.32 255.078L620.875 254.703C618.797 254.172 617.875 253.258 617.875 251.727C617.875 249.852 619.516 248.539 621.859 248.539C624.102 248.539 625.727 249.867 625.789 251.758H624.383C624.258 250.547 623.281 249.805 621.812 249.805C620.352 249.805 619.336 250.562 619.336 251.664C619.336 252.516 619.961 253.023 621.492 253.422L622.672 253.734C625.008 254.32 625.953 255.219 625.953 256.836C625.953 258.898 624.328 260.188 621.734 260.188C619.344 260.188 617.688 258.891 617.555 256.898ZM635.57 260L634.523 258.867C633.57 259.711 632.258 260.188 630.922 260.188C628.695 260.188 627.141 258.875 627.141 257C627.141 255.68 627.859 254.664 629.352 253.875C629.578 253.758 629.719 253.68 629.781 253.656C628.773 252.586 628.383 251.859 628.383 251.039C628.383 249.609 629.602 248.539 631.227 248.539C632.883 248.539 634.078 249.594 634.078 251.055C634.078 252.203 633.383 253.039 631.664 253.945L634.453 256.953C634.82 256.266 634.992 255.344 634.992 253.953V253.617H636.289V253.961C636.289 255.68 635.977 256.93 635.359 257.898L637.336 260H635.57ZM630.156 254.695C628.992 255.406 628.531 256.039 628.531 256.906C628.531 258.164 629.547 259.016 631.047 259.016C632.055 259.016 633.102 258.609 633.703 257.969L630.531 254.492C630.43 254.539 630.227 254.648 630.156 254.695ZM630.914 253.156C632.266 252.469 632.766 251.906 632.766 251.102C632.766 250.242 632.148 249.641 631.234 249.641C630.344 249.641 629.711 250.258 629.711 251.117C629.711 251.734 630.039 252.281 630.914 253.156ZM638.688 248.727H642.711C644.828 248.727 646.32 250.211 646.32 252.344C646.32 254.484 644.812 255.977 642.695 255.977H640.094V260H638.688V248.727ZM640.094 249.977V254.727H642.344C643.953 254.727 644.875 253.844 644.875 252.344C644.875 250.852 643.961 249.977 642.344 249.977H640.094ZM655.477 260H651.219V248.727H655.492C657.422 248.727 658.727 249.852 658.727 251.539C658.727 252.711 657.867 253.805 656.781 254V254.062C658.312 254.258 659.297 255.336 659.297 256.836C659.297 258.82 657.875 260 655.477 260ZM652.625 249.969V253.586H654.734C656.398 253.586 657.305 252.922 657.305 251.703C657.305 250.586 656.539 249.969 655.172 249.969H652.625ZM652.625 258.758H655.266C656.961 258.758 657.852 258.07 657.852 256.766C657.852 255.461 656.93 254.797 655.133 254.797H652.625V258.758ZM660.352 256.898H661.766C661.898 258.117 663.055 258.922 664.664 258.922C666.188 258.922 667.297 258.117 667.297 257.008C667.297 256.055 666.633 255.469 665.117 255.078L663.672 254.703C661.594 254.172 660.672 253.258 660.672 251.727C660.672 249.852 662.312 248.539 664.656 248.539C666.898 248.539 668.523 249.867 668.586 251.758H667.18C667.055 250.547 666.078 249.805 664.609 249.805C663.148 249.805 662.133 250.562 662.133 251.664C662.133 252.516 662.758 253.023 664.289 253.422L665.469 253.734C667.805 254.32 668.75 255.219 668.75 256.836C668.75 258.898 667.125 260.188 664.531 260.188C662.141 260.188 660.484 258.891 660.352 256.898ZM677.375 258.734V260H670.391V248.727H677.375V249.992H671.797V253.609H677.086V254.859H671.797V258.734H677.375ZM686.211 260.188C684.055 260.188 682.461 258.844 682.344 256.922H683.727C683.852 258.125 684.875 258.953 686.227 258.953C687.758 258.953 688.82 257.891 688.82 256.375C688.82 254.859 687.75 253.773 686.25 253.773C685.195 253.773 684.297 254.25 683.836 255.039H682.516L683.133 248.727H689.586V249.977H684.289L683.945 253.648H683.977C684.484 252.969 685.422 252.562 686.5 252.562C688.664 252.562 690.227 254.148 690.227 256.336C690.227 258.602 688.562 260.188 686.211 260.188ZM695.641 260.188C693.008 260.188 691.484 257.922 691.484 254.359C691.484 250.828 693.023 248.539 695.641 248.539C698.258 248.539 699.781 250.812 699.781 254.352C699.781 257.914 698.266 260.188 695.641 260.188ZM695.641 258.961C697.398 258.961 698.367 257.172 698.367 254.359C698.367 251.586 697.383 249.773 695.641 249.773C693.898 249.773 692.898 251.602 692.898 254.352C692.898 257.164 693.875 258.961 695.641 258.961ZM705.344 260.188C702.711 260.188 701.188 257.922 701.188 254.359C701.188 250.828 702.727 248.539 705.344 248.539C707.961 248.539 709.484 250.812 709.484 254.352C709.484 257.914 707.969 260.188 705.344 260.188ZM705.344 258.961C707.102 258.961 708.07 257.172 708.07 254.359C708.07 251.586 707.086 249.773 705.344 249.773C703.602 249.773 702.602 251.602 702.602 254.352C702.602 257.164 703.578 258.961 705.344 258.961ZM716.18 256.062H711.055V254.797H716.18V256.062ZM721.227 260H719.82V249.992H716.266V248.727H724.781V249.992H721.227V260ZM727.672 249.977V254.297H730.367C731.812 254.297 732.633 253.516 732.633 252.133C732.633 250.781 731.758 249.977 730.305 249.977H727.672ZM727.672 255.539V260H726.266V248.727H730.492C732.664 248.727 734.086 250.055 734.086 252.086C734.086 253.656 733.234 254.875 731.82 255.32L734.43 260H732.781L730.367 255.539H727.672ZM737.266 260H735.859V248.727H737.266V260Z" fill="#4040DA"/>
<mask id="path-10-inside-1_4918_1530" fill="white">
<path d="M78 290H810V362H78V290Z"/>
</mask>
<path d="M78 290H810V362H78V290Z" fill="white"/>
<path d="M810 361H78V363H810V361Z" fill="#E1E1E1" mask="url(#path-10-inside-1_4918_1530)"/>
<path d="M96.5547 328.898H97.9688C98.1016 330.117 99.2578 330.922 100.867 330.922C102.391 330.922 103.5 330.117 103.5 329.008C103.5 328.055 102.836 327.469 101.32 327.078L99.875 326.703C97.7969 326.172 96.875 325.258 96.875 323.727C96.875 321.852 98.5156 320.539 100.859 320.539C103.102 320.539 104.727 321.867 104.789 323.758H103.383C103.258 322.547 102.281 321.805 100.812 321.805C99.3516 321.805 98.3359 322.562 98.3359 323.664C98.3359 324.516 98.9609 325.023 100.492 325.422L101.672 325.734C104.008 326.32 104.953 327.219 104.953 328.836C104.953 330.898 103.328 332.188 100.734 332.188C98.3438 332.188 96.6875 330.891 96.5547 328.898ZM106.453 332V320.727H107.812V325.172H107.844C108.297 324.266 109.188 323.734 110.422 323.734C112.203 323.734 113.281 324.938 113.281 326.75V332H111.922V327C111.922 325.711 111.273 324.938 110 324.938C108.648 324.938 107.812 325.859 107.812 327.266V332H106.453ZM117.688 330.984C118.969 330.984 119.953 330.086 119.953 328.914V328.25L117.781 328.383C116.688 328.453 116.062 328.938 116.062 329.703C116.062 330.477 116.711 330.984 117.688 330.984ZM117.383 332.141C115.766 332.141 114.68 331.164 114.68 329.703C114.68 328.312 115.75 327.438 117.625 327.328L119.953 327.195V326.516C119.953 325.523 119.297 324.93 118.172 324.93C117.125 324.93 116.469 325.422 116.297 326.219H114.984C115.078 324.812 116.281 323.734 118.203 323.734C120.109 323.734 121.312 324.766 121.312 326.383V332H120.023V330.602H119.992C119.508 331.531 118.477 332.141 117.383 332.141ZM123.039 332V323.875H124.32V325.203H124.352C124.617 324.305 125.367 323.734 126.32 323.734C126.555 323.734 126.758 323.773 126.867 323.789V325.109C126.758 325.07 126.469 325.031 126.141 325.031C125.086 325.031 124.398 325.789 124.398 326.938V332H123.039ZM131.922 323.734C133.992 323.734 135.398 325.391 135.398 327.938C135.398 330.484 134 332.141 131.953 332.141C130.789 332.141 129.852 331.57 129.367 330.68H129.336V334.711H127.977V323.875H129.266V325.25H129.297C129.797 324.336 130.742 323.734 131.922 323.734ZM131.656 330.945C133.102 330.945 134.008 329.781 134.008 327.938C134.008 326.102 133.102 324.93 131.656 324.93C130.266 324.93 129.328 326.133 129.328 327.938C129.328 329.75 130.266 330.945 131.656 330.945ZM140.031 324.914C138.758 324.914 137.867 325.891 137.781 327.242H142.195C142.164 325.883 141.312 324.914 140.031 324.914ZM142.164 329.672H143.5C143.266 331.094 141.891 332.141 140.117 332.141C137.789 332.141 136.375 330.523 136.375 327.969C136.375 325.445 137.812 323.734 140.055 323.734C142.25 323.734 143.602 325.328 143.602 327.789V328.305H137.773V328.383C137.773 329.938 138.688 330.961 140.148 330.961C141.18 330.961 141.938 330.438 142.164 329.672ZM149.875 321.977V326.297H152.57C154.016 326.297 154.836 325.516 154.836 324.133C154.836 322.781 153.961 321.977 152.508 321.977H149.875ZM149.875 327.539V332H148.469V320.727H152.695C154.867 320.727 156.289 322.055 156.289 324.086C156.289 325.656 155.438 326.875 154.023 327.32L156.633 332H154.984L152.57 327.539H149.875ZM160.531 330.984C161.812 330.984 162.797 330.086 162.797 328.914V328.25L160.625 328.383C159.531 328.453 158.906 328.938 158.906 329.703C158.906 330.477 159.555 330.984 160.531 330.984ZM160.227 332.141C158.609 332.141 157.523 331.164 157.523 329.703C157.523 328.312 158.594 327.438 160.469 327.328L162.797 327.195V326.516C162.797 325.523 162.141 324.93 161.016 324.93C159.969 324.93 159.312 325.422 159.141 326.219H157.828C157.922 324.812 159.125 323.734 161.047 323.734C162.953 323.734 164.156 324.766 164.156 326.383V332H162.867V330.602H162.836C162.352 331.531 161.32 332.141 160.227 332.141ZM166.32 321.914H167.68V323.875H169.258V324.992H167.68V329.82C167.68 330.562 167.992 330.898 168.688 330.898C168.844 330.898 169.156 330.875 169.25 330.859V332C169.086 332.039 168.711 332.062 168.391 332.062C166.898 332.062 166.32 331.453 166.32 329.891V324.992H165.109V323.875H166.32V321.914ZM170.781 332V323.875H172.141V332H170.781ZM171.461 322.508C171 322.508 170.617 322.125 170.617 321.664C170.617 321.195 171 320.82 171.461 320.82C171.93 320.82 172.312 321.195 172.312 321.664C172.312 322.125 171.93 322.508 171.461 322.508ZM177.344 332.141C175.094 332.141 173.578 330.523 173.578 327.938C173.578 325.344 175.094 323.734 177.344 323.734C179.586 323.734 181.102 325.344 181.102 327.938C181.102 330.523 179.586 332.141 177.344 332.141ZM177.344 330.945C178.781 330.945 179.719 329.852 179.719 327.938C179.719 326.023 178.781 324.93 177.344 324.93C175.906 324.93 174.961 326.023 174.961 327.938C174.961 329.852 175.906 330.945 177.344 330.945Z" fill="#24242E"/>
<path d="M424.789 332V322.219H424.758L421.773 324.297V322.883L424.773 320.727H426.148V332H424.789ZM429.422 332.109C428.922 332.109 428.531 331.719 428.531 331.219C428.531 330.719 428.922 330.328 429.422 330.328C429.922 330.328 430.312 330.719 430.312 331.219C430.312 331.719 429.922 332.109 429.422 332.109ZM434.305 332V322.219H434.273L431.289 324.297V322.883L434.289 320.727H435.664V332H434.305ZM442.453 332.188C439.859 332.188 438.32 329.945 438.32 326.367V326.352C438.32 322.773 439.859 320.539 442.453 320.539C445.047 320.539 446.602 322.773 446.602 326.352V326.367C446.602 329.945 445.047 332.188 442.453 332.188ZM442.453 330.961C444.172 330.961 445.188 329.195 445.188 326.367V326.352C445.188 323.523 444.172 321.773 442.453 321.773C440.734 321.773 439.734 323.523 439.734 326.352V326.367C439.734 329.195 440.734 330.961 442.453 330.961Z" fill="#24242E"/>
<path d="M621.844 332.188C619.25 332.188 617.711 329.945 617.711 326.367V326.352C617.711 322.773 619.25 320.539 621.844 320.539C624.438 320.539 625.992 322.773 625.992 326.352V326.367C625.992 329.945 624.438 332.188 621.844 332.188ZM621.844 330.961C623.562 330.961 624.578 329.195 624.578 326.367V326.352C624.578 323.523 623.562 321.773 621.844 321.773C620.125 321.773 619.125 323.523 619.125 326.352V326.367C619.125 329.195 620.125 330.961 621.844 330.961ZM628.109 332.109C627.609 332.109 627.219 331.719 627.219 331.219C627.219 330.719 627.609 330.328 628.109 330.328C628.609 330.328 629 330.719 629 331.219C629 331.719 628.609 332.109 628.109 332.109ZM634.773 332.188C632.617 332.188 631.078 330.844 630.914 329.008L630.906 328.922H632.289L632.297 328.984C632.438 330.102 633.438 330.953 634.789 330.953C636.32 330.953 637.383 329.891 637.383 328.375V328.359C637.375 326.875 636.305 325.812 634.812 325.812C634.047 325.812 633.391 326.039 632.891 326.492C632.688 326.68 632.508 326.898 632.359 327.156H631.117L631.695 320.727H638.148V321.977H632.852L632.469 325.766H632.5C633.031 325.008 633.969 324.602 635.062 324.602C637.227 324.602 638.789 326.172 638.789 328.336V328.352C638.781 330.609 637.117 332.188 634.773 332.188ZM644.227 320.539C646.305 320.539 648.508 321.977 648.508 326.156V326.172C648.508 329.969 646.891 332.188 644.133 332.188C642.219 332.188 640.789 331.094 640.414 329.453L640.391 329.352H641.82L641.852 329.438C642.188 330.367 642.992 330.945 644.148 330.945C646.25 330.945 647.078 328.906 647.141 326.539C647.148 326.461 647.148 326.383 647.148 326.297H647.117C646.664 327.297 645.508 328.109 643.977 328.109C641.828 328.109 640.234 326.523 640.234 324.383V324.367C640.234 322.148 641.922 320.539 644.227 320.539ZM644.219 326.875C645.695 326.875 646.812 325.828 646.812 324.391V324.383C646.812 322.938 645.688 321.789 644.242 321.789C642.805 321.789 641.664 322.914 641.664 324.336V324.352C641.664 325.82 642.734 326.875 644.219 326.875Z" fill="#24242E"/>
<mask id="path-15-inside-2_4918_1530" fill="white">
<path d="M78 362H810V434H78V362Z"/>
</mask>
<path d="M78 362H810V434H78V362Z" fill="white"/>
<path d="M810 433H78V435H810V433Z" fill="#E1E1E1" mask="url(#path-15-inside-2_4918_1530)"/>
<path d="M101.742 404H100.352L96.1953 392.727H97.6719L101.023 402.289H101.07L104.422 392.727H105.898L101.742 404ZM109.25 404.141C107 404.141 105.484 402.523 105.484 399.938C105.484 397.344 107 395.734 109.25 395.734C111.492 395.734 113.008 397.344 113.008 399.938C113.008 402.523 111.492 404.141 109.25 404.141ZM109.25 402.945C110.688 402.945 111.625 401.852 111.625 399.938C111.625 398.023 110.688 396.93 109.25 396.93C107.812 396.93 106.867 398.023 106.867 399.938C106.867 401.852 107.812 402.945 109.25 402.945ZM114.453 404V392.727H115.812V404H114.453ZM120.328 402.984C121.609 402.984 122.594 402.086 122.594 400.914V400.25L120.422 400.383C119.328 400.453 118.703 400.938 118.703 401.703C118.703 402.477 119.352 402.984 120.328 402.984ZM120.023 404.141C118.406 404.141 117.32 403.164 117.32 401.703C117.32 400.312 118.391 399.438 120.266 399.328L122.594 399.195V398.516C122.594 397.523 121.938 396.93 120.812 396.93C119.766 396.93 119.109 397.422 118.938 398.219H117.625C117.719 396.812 118.922 395.734 120.844 395.734C122.75 395.734 123.953 396.766 123.953 398.383V404H122.664V402.602H122.633C122.148 403.531 121.117 404.141 120.023 404.141ZM126.117 393.914H127.477V395.875H129.055V396.992H127.477V401.82C127.477 402.562 127.789 402.898 128.484 402.898C128.641 402.898 128.953 402.875 129.047 402.859V404C128.883 404.039 128.508 404.062 128.188 404.062C126.695 404.062 126.117 403.453 126.117 401.891V396.992H124.906V395.875H126.117V393.914ZM130.578 404V395.875H131.938V404H130.578ZM131.258 394.508C130.797 394.508 130.414 394.125 130.414 393.664C130.414 393.195 130.797 392.82 131.258 392.82C131.727 392.82 132.109 393.195 132.109 393.664C132.109 394.125 131.727 394.508 131.258 394.508ZM133.844 404V392.727H135.203V404H133.844ZM137.109 404V395.875H138.469V404H137.109ZM137.789 394.508C137.328 394.508 136.945 394.125 136.945 393.664C136.945 393.195 137.328 392.82 137.789 392.82C138.258 392.82 138.641 393.195 138.641 393.664C138.641 394.125 138.258 394.508 137.789 394.508ZM140.742 393.914H142.102V395.875H143.68V396.992H142.102V401.82C142.102 402.562 142.414 402.898 143.109 402.898C143.266 402.898 143.578 402.875 143.672 402.859V404C143.508 404.039 143.133 404.062 142.812 404.062C141.32 404.062 140.742 403.453 140.742 401.891V396.992H139.531V395.875H140.742V393.914ZM145.805 407.039C145.641 407.039 145.367 407.023 145.219 406.992V405.852C145.367 405.883 145.578 405.891 145.75 405.891C146.508 405.891 146.93 405.523 147.242 404.578L147.43 404.008L144.43 395.875H145.883L148.133 402.641H148.156L150.406 395.875H151.836L148.641 404.57C147.945 406.469 147.273 407.039 145.805 407.039Z" fill="#24242E"/>
<path d="M424.789 404V394.219H424.758L421.773 396.297V394.883L424.773 392.727H426.148V404H424.789ZM429.656 404L434.758 394.008V393.977H428.688V392.727H436.148V394.031L431.133 404H429.656ZM437.156 404.109C436.656 404.109 436.266 403.719 436.266 403.219C436.266 402.719 436.656 402.328 437.156 402.328C437.656 402.328 438.047 402.719 438.047 403.219C438.047 403.719 437.656 404.109 437.156 404.109ZM443.672 404.188C441.281 404.188 439.578 402.844 439.578 400.953V400.938C439.578 399.547 440.555 398.391 442 398.055V398.023C440.766 397.641 439.984 396.703 439.984 395.516V395.5C439.984 393.797 441.539 392.539 443.672 392.539C445.805 392.539 447.359 393.797 447.359 395.5V395.516C447.359 396.703 446.578 397.641 445.344 398.023V398.055C446.789 398.391 447.766 399.547 447.766 400.938V400.953C447.766 402.844 446.062 404.188 443.672 404.188ZM443.672 397.5C445.031 397.5 445.961 396.727 445.961 395.633V395.617C445.961 394.523 445.031 393.75 443.672 393.75C442.312 393.75 441.383 394.523 441.383 395.617V395.633C441.383 396.727 442.312 397.5 443.672 397.5ZM443.672 402.961C445.227 402.961 446.336 402.086 446.336 400.867V400.852C446.336 399.617 445.234 398.734 443.672 398.734C442.109 398.734 441.008 399.617 441.008 400.852V400.867C441.008 402.086 442.117 402.961 443.672 402.961ZM453.18 404.188C450.852 404.188 449.344 402.891 449.195 401.109L449.188 401.016H450.539L450.547 401.094C450.664 402.203 451.68 402.969 453.18 402.969C454.656 402.969 455.664 402.141 455.664 400.945V400.93C455.664 399.547 454.672 398.773 453.094 398.773H451.68V397.586H453.031C454.375 397.586 455.312 396.758 455.312 395.633V395.617C455.312 394.438 454.539 393.758 453.164 393.758C451.836 393.758 450.891 394.461 450.773 395.602L450.766 395.68H449.414L449.422 395.602C449.602 393.766 451.055 392.539 453.164 392.539C455.312 392.539 456.727 393.734 456.727 395.445V395.461C456.727 396.852 455.742 397.805 454.336 398.102V398.133C455.977 398.273 457.094 399.297 457.094 400.898V400.914C457.094 402.797 455.438 404.188 453.18 404.188ZM460.93 398.289C459.508 398.289 458.648 397.203 458.648 395.461V395.453C458.648 393.719 459.508 392.633 460.93 392.633C462.352 392.633 463.211 393.719 463.211 395.453V395.461C463.211 397.203 462.352 398.289 460.93 398.289ZM461.438 404H460.156L467.391 392.727H468.656L461.438 404ZM460.93 397.352C461.688 397.352 462.125 396.648 462.125 395.461V395.453C462.125 394.266 461.688 393.57 460.93 393.57C460.172 393.57 459.734 394.266 459.734 395.453V395.461C459.734 396.648 460.172 397.352 460.93 397.352ZM467.875 404.094C466.453 404.094 465.594 403.008 465.594 401.266V401.258C465.594 399.523 466.453 398.438 467.875 398.438C469.297 398.438 470.156 399.523 470.156 401.258V401.266C470.156 403.008 469.297 404.094 467.875 404.094ZM467.875 403.156C468.633 403.156 469.07 402.453 469.07 401.266V401.258C469.07 400.07 468.633 399.375 467.875 399.375C467.117 399.375 466.68 400.07 466.68 401.258V401.266C466.68 402.453 467.117 403.156 467.875 403.156Z" fill="#24242E"/>
<path d="M620.789 404V394.219H620.758L617.773 396.297V394.883L620.773 392.727H622.148V404H620.789ZM628.891 404.188C626.5 404.188 624.797 402.844 624.797 400.953V400.938C624.797 399.547 625.773 398.391 627.219 398.055V398.023C625.984 397.641 625.203 396.703 625.203 395.516V395.5C625.203 393.797 626.758 392.539 628.891 392.539C631.023 392.539 632.578 393.797 632.578 395.5V395.516C632.578 396.703 631.797 397.641 630.562 398.023V398.055C632.008 398.391 632.984 399.547 632.984 400.938V400.953C632.984 402.844 631.281 404.188 628.891 404.188ZM628.891 397.5C630.25 397.5 631.18 396.727 631.18 395.633V395.617C631.18 394.523 630.25 393.75 628.891 393.75C627.531 393.75 626.602 394.523 626.602 395.617V395.633C626.602 396.727 627.531 397.5 628.891 397.5ZM628.891 402.961C630.445 402.961 631.555 402.086 631.555 400.867V400.852C631.555 399.617 630.453 398.734 628.891 398.734C627.328 398.734 626.227 399.617 626.227 400.852V400.867C626.227 402.086 627.336 402.961 628.891 402.961ZM635.172 404.109C634.672 404.109 634.281 403.719 634.281 403.219C634.281 402.719 634.672 402.328 635.172 402.328C635.672 402.328 636.062 402.719 636.062 403.219C636.062 403.719 635.672 404.109 635.172 404.109ZM641.539 404.188C639.211 404.188 637.703 402.891 637.555 401.109L637.547 401.016H638.898L638.906 401.094C639.023 402.203 640.039 402.969 641.539 402.969C643.016 402.969 644.023 402.141 644.023 400.945V400.93C644.023 399.547 643.031 398.773 641.453 398.773H640.039V397.586H641.391C642.734 397.586 643.672 396.758 643.672 395.633V395.617C643.672 394.438 642.898 393.758 641.523 393.758C640.195 393.758 639.25 394.461 639.133 395.602L639.125 395.68H637.773L637.781 395.602C637.961 393.766 639.414 392.539 641.523 392.539C643.672 392.539 645.086 393.734 645.086 395.445V395.461C645.086 396.852 644.102 397.805 642.695 398.102V398.133C644.336 398.273 645.453 399.297 645.453 400.898V400.914C645.453 402.797 643.797 404.188 641.539 404.188ZM651.008 404.188C648.68 404.188 647.172 402.891 647.023 401.109L647.016 401.016H648.367L648.375 401.094C648.492 402.203 649.508 402.969 651.008 402.969C652.484 402.969 653.492 402.141 653.492 400.945V400.93C653.492 399.547 652.5 398.773 650.922 398.773H649.508V397.586H650.859C652.203 397.586 653.141 396.758 653.141 395.633V395.617C653.141 394.438 652.367 393.758 650.992 393.758C649.664 393.758 648.719 394.461 648.602 395.602L648.594 395.68H647.242L647.25 395.602C647.43 393.766 648.883 392.539 650.992 392.539C653.141 392.539 654.555 393.734 654.555 395.445V395.461C654.555 396.852 653.57 397.805 652.164 398.102V398.133C653.805 398.273 654.922 399.297 654.922 400.898V400.914C654.922 402.797 653.266 404.188 651.008 404.188ZM658.758 398.289C657.336 398.289 656.477 397.203 656.477 395.461V395.453C656.477 393.719 657.336 392.633 658.758 392.633C660.18 392.633 661.039 393.719 661.039 395.453V395.461C661.039 397.203 660.18 398.289 658.758 398.289ZM659.266 404H657.984L665.219 392.727H666.484L659.266 404ZM658.758 397.352C659.516 397.352 659.953 396.648 659.953 395.461V395.453C659.953 394.266 659.516 393.57 658.758 393.57C658 393.57 657.562 394.266 657.562 395.453V395.461C657.562 396.648 658 397.352 658.758 397.352ZM665.703 404.094C664.281 404.094 663.422 403.008 663.422 401.266V401.258C663.422 399.523 664.281 398.438 665.703 398.438C667.125 398.438 667.984 399.523 667.984 401.258V401.266C667.984 403.008 667.125 404.094 665.703 404.094ZM665.703 403.156C666.461 403.156 666.898 402.453 666.898 401.266V401.258C666.898 400.07 666.461 399.375 665.703 399.375C664.945 399.375 664.508 400.07 664.508 401.258V401.266C664.508 402.453 664.945 403.156 665.703 403.156Z" fill="#24242E"/>
<mask id="path-20-inside-3_4918_1530" fill="white">
<path d="M78 434H810V506H78V434Z"/>
</mask>
<path d="M78 434H810V506H78V434Z" fill="white"/>
<path d="M810 505H78V507H810V505Z" fill="#E1E1E1" mask="url(#path-20-inside-3_4918_1530)"/>
<path d="M97.0938 476V464.727H98.7188L102.625 474.227H102.672L106.578 464.727H108.203V476H106.891V467.289H106.844L103.242 476H102.055L98.4531 467.289H98.4062V476H97.0938ZM112.32 476.156C110.703 476.156 109.617 475.18 109.617 473.703V473.688C109.617 472.305 110.695 471.438 112.562 471.328L114.891 471.195V470.516C114.891 469.523 114.242 468.922 113.109 468.922C112.062 468.922 111.406 469.422 111.25 470.148L111.234 470.219H109.922L109.93 470.133C110.047 468.797 111.211 467.719 113.125 467.719C115.047 467.719 116.25 468.758 116.25 470.383V476H114.891V474.68H114.859C114.383 475.57 113.406 476.156 112.32 476.156ZM111.008 473.703C111.008 474.484 111.648 474.977 112.625 474.977C113.906 474.977 114.891 474.094 114.891 472.914V472.25L112.719 472.383C111.633 472.445 111.008 472.93 111.008 473.688V473.703ZM117.344 476L120.109 471.938L117.391 467.875H118.906L120.859 470.922H120.891L122.82 467.875H124.336L121.594 471.883L124.297 476H122.789L120.844 472.906H120.812L118.852 476H117.344ZM128.969 476V464.727H132.758C136.094 464.727 138.078 466.805 138.078 470.344V470.359C138.078 473.914 136.109 476 132.758 476H128.969ZM130.375 474.734H132.664C135.219 474.734 136.641 473.172 136.641 470.375V470.359C136.641 467.547 135.219 465.992 132.664 465.992H130.375V474.734ZM139.617 476V467.875H140.977V469.25H141.008C141.281 468.312 141.984 467.719 142.898 467.719C143.133 467.719 143.336 467.758 143.445 467.773V469.094C143.336 469.055 143.047 469.016 142.719 469.016C141.664 469.016 140.977 469.75 140.977 470.984V476H139.617ZM146.773 476.156C145.156 476.156 144.07 475.18 144.07 473.703V473.688C144.07 472.305 145.148 471.438 147.016 471.328L149.344 471.195V470.516C149.344 469.523 148.695 468.922 147.562 468.922C146.516 468.922 145.859 469.422 145.703 470.148L145.688 470.219H144.375L144.383 470.133C144.5 468.797 145.664 467.719 147.578 467.719C149.5 467.719 150.703 468.758 150.703 470.383V476H149.344V474.68H149.312C148.836 475.57 147.859 476.156 146.773 476.156ZM145.461 473.703C145.461 474.484 146.102 474.977 147.078 474.977C148.359 474.977 149.344 474.094 149.344 472.914V472.25L147.172 472.383C146.086 472.445 145.461 472.93 145.461 473.688V473.703ZM154.039 476L151.766 467.875H153.117L154.742 474.484H154.773L156.609 467.875H157.922L159.766 474.484H159.797L161.422 467.875H162.766L160.5 476H159.117L157.281 469.711H157.25L155.422 476H154.039ZM166.938 476.156C164.859 476.156 163.484 474.5 163.484 471.938V471.93C163.484 469.367 164.875 467.719 166.914 467.719C168.062 467.719 169.008 468.297 169.516 469.234H169.547V464.727H170.906V476H169.547V474.625H169.516C169.008 475.57 168.102 476.156 166.938 476.156ZM167.203 474.953C168.578 474.953 169.555 473.758 169.555 471.938V471.93C169.555 470.117 168.57 468.922 167.203 468.922C165.766 468.922 164.875 470.078 164.875 471.93V471.938C164.875 473.805 165.766 474.953 167.203 474.953ZM176.109 476.156C173.852 476.156 172.344 474.523 172.344 471.938V471.922C172.344 469.336 173.859 467.719 176.102 467.719C178.344 467.719 179.867 469.328 179.867 471.922V471.938C179.867 474.531 178.352 476.156 176.109 476.156ZM176.117 474.953C177.547 474.953 178.477 473.844 178.477 471.938V471.922C178.477 470.016 177.539 468.922 176.102 468.922C174.688 468.922 173.734 470.023 173.734 471.922V471.938C173.734 473.852 174.68 474.953 176.117 474.953ZM182.852 476L180.578 467.875H181.93L183.555 474.484H183.586L185.422 467.875H186.734L188.578 474.484H188.609L190.234 467.875H191.578L189.312 476H187.93L186.094 469.711H186.062L184.234 476H182.852ZM192.695 476V467.875H194.055V469.031H194.086C194.523 468.273 195.352 467.719 196.586 467.719C198.367 467.719 199.398 468.875 199.398 470.727V476H198.039V470.969C198.039 469.648 197.422 468.922 196.172 468.922C194.891 468.922 194.055 469.836 194.055 471.219V476H192.695Z" fill="#24242E"/>
<path d="M421.93 472.062V470.797H426.93V472.062H421.93ZM431.18 476V466.219H431.148L428.164 468.297V466.883L431.164 464.727H432.539V476H431.18ZM436.047 476L441.148 466.008V465.977H435.078V464.727H442.539V466.031L437.523 476H436.047ZM443.547 476.109C443.047 476.109 442.656 475.719 442.656 475.219C442.656 474.719 443.047 474.328 443.547 474.328C444.047 474.328 444.438 474.719 444.438 475.219C444.438 475.719 444.047 476.109 443.547 476.109ZM446.359 476L451.461 466.008V465.977H445.391V464.727H452.852V466.031L447.836 476H446.359ZM458.383 476.188C456.305 476.188 454.102 474.75 454.102 470.57V470.555C454.102 466.758 455.719 464.539 458.477 464.539C460.391 464.539 461.82 465.633 462.195 467.273L462.219 467.375H460.789L460.758 467.289C460.422 466.359 459.617 465.781 458.461 465.781C456.359 465.781 455.531 467.82 455.469 470.188C455.461 470.266 455.461 470.344 455.461 470.43H455.492C455.945 469.43 457.102 468.617 458.633 468.617C460.781 468.617 462.375 470.203 462.375 472.344V472.359C462.375 474.578 460.688 476.188 458.383 476.188ZM455.797 472.344C455.797 473.789 456.922 474.938 458.367 474.938C459.805 474.938 460.945 473.812 460.945 472.391V472.375C460.945 470.906 459.875 469.852 458.391 469.852C456.914 469.852 455.797 470.898 455.797 472.336V472.344ZM466.258 470.289C464.836 470.289 463.977 469.203 463.977 467.461V467.453C463.977 465.719 464.836 464.633 466.258 464.633C467.68 464.633 468.539 465.719 468.539 467.453V467.461C468.539 469.203 467.68 470.289 466.258 470.289ZM466.766 476H465.484L472.719 464.727H473.984L466.766 476ZM466.258 469.352C467.016 469.352 467.453 468.648 467.453 467.461V467.453C467.453 466.266 467.016 465.57 466.258 465.57C465.5 465.57 465.062 466.266 465.062 467.453V467.461C465.062 468.648 465.5 469.352 466.258 469.352ZM473.203 476.094C471.781 476.094 470.922 475.008 470.922 473.266V473.258C470.922 471.523 471.781 470.438 473.203 470.438C474.625 470.438 475.484 471.523 475.484 473.258V473.266C475.484 475.008 474.625 476.094 473.203 476.094ZM473.203 475.156C473.961 475.156 474.398 474.453 474.398 473.266V473.258C474.398 472.07 473.961 471.375 473.203 471.375C472.445 471.375 472.008 472.07 472.008 473.258V473.266C472.008 474.453 472.445 475.156 473.203 475.156Z" fill="#24242E"/>
<path d="M617.93 472.062V470.797H622.93V472.062H617.93ZM628.57 476.188C626.242 476.188 624.734 474.891 624.586 473.109L624.578 473.016H625.93L625.938 473.094C626.055 474.203 627.07 474.969 628.57 474.969C630.047 474.969 631.055 474.141 631.055 472.945V472.93C631.055 471.547 630.062 470.773 628.484 470.773H627.07V469.586H628.422C629.766 469.586 630.703 468.758 630.703 467.633V467.617C630.703 466.438 629.93 465.758 628.555 465.758C627.227 465.758 626.281 466.461 626.164 467.602L626.156 467.68H624.805L624.812 467.602C624.992 465.766 626.445 464.539 628.555 464.539C630.703 464.539 632.117 465.734 632.117 467.445V467.461C632.117 468.852 631.133 469.805 629.727 470.102V470.133C631.367 470.273 632.484 471.297 632.484 472.898V472.914C632.484 474.797 630.828 476.188 628.57 476.188ZM638.172 476.188C635.578 476.188 634.039 473.945 634.039 470.367V470.352C634.039 466.773 635.578 464.539 638.172 464.539C640.766 464.539 642.32 466.773 642.32 470.352V470.367C642.32 473.945 640.766 476.188 638.172 476.188ZM638.172 474.961C639.891 474.961 640.906 473.195 640.906 470.367V470.352C640.906 467.523 639.891 465.773 638.172 465.773C636.453 465.773 635.453 467.523 635.453 470.352V470.367C635.453 473.195 636.453 474.961 638.172 474.961ZM644.438 476.109C643.938 476.109 643.547 475.719 643.547 475.219C643.547 474.719 643.938 474.328 644.438 474.328C644.938 474.328 645.328 474.719 645.328 475.219C645.328 475.719 644.938 476.109 644.438 476.109ZM650.805 476.188C648.477 476.188 646.969 474.891 646.82 473.109L646.812 473.016H648.164L648.172 473.094C648.289 474.203 649.305 474.969 650.805 474.969C652.281 474.969 653.289 474.141 653.289 472.945V472.93C653.289 471.547 652.297 470.773 650.719 470.773H649.305V469.586H650.656C652 469.586 652.938 468.758 652.938 467.633V467.617C652.938 466.438 652.164 465.758 650.789 465.758C649.461 465.758 648.516 466.461 648.398 467.602L648.391 467.68H647.039L647.047 467.602C647.227 465.766 648.68 464.539 650.789 464.539C652.938 464.539 654.352 465.734 654.352 467.445V467.461C654.352 468.852 653.367 469.805 651.961 470.102V470.133C653.602 470.273 654.719 471.297 654.719 472.898V472.914C654.719 474.797 653.062 476.188 650.805 476.188ZM657.125 476L662.227 466.008V465.977H656.156V464.727H663.617V466.031L658.602 476H657.125ZM667.305 470.289C665.883 470.289 665.023 469.203 665.023 467.461V467.453C665.023 465.719 665.883 464.633 667.305 464.633C668.727 464.633 669.586 465.719 669.586 467.453V467.461C669.586 469.203 668.727 470.289 667.305 470.289ZM667.812 476H666.531L673.766 464.727H675.031L667.812 476ZM667.305 469.352C668.062 469.352 668.5 468.648 668.5 467.461V467.453C668.5 466.266 668.062 465.57 667.305 465.57C666.547 465.57 666.109 466.266 666.109 467.453V467.461C666.109 468.648 666.547 469.352 667.305 469.352ZM674.25 476.094C672.828 476.094 671.969 475.008 671.969 473.266V473.258C671.969 471.523 672.828 470.438 674.25 470.438C675.672 470.438 676.531 471.523 676.531 473.258V473.266C676.531 475.008 675.672 476.094 674.25 476.094ZM674.25 475.156C675.008 475.156 675.445 474.453 675.445 473.266V473.258C675.445 472.07 675.008 471.375 674.25 471.375C673.492 471.375 673.055 472.07 673.055 473.258V473.266C673.055 474.453 673.492 475.156 674.25 475.156Z" fill="#24242E"/>
</g>
<defs>
<filter id="filter0_d_4918_1530" x="0" y="176" width="888" height="444" filterUnits="userSpaceOnUse" color-interpolation-filters="sRGB">
<feFlood flood-opacity="0" result="BackgroundImageFix"/>
<feColorMatrix in="SourceAlpha" type="matrix" values="0 0 0 0 0 0 0 0 0 0 0 0 0 0 0 0 0 0 127 0" result="hardAlpha"/>
<feOffset dy="36"/>
<feGaussianBlur stdDeviation="30"/>
<feComposite in2="hardAlpha" operator="out"/>
<feColorMatrix type="matrix" values="0 0 0 0 0.369345 0 0 0 0 0.369345 0 0 0 0 0.369345 0 0 0 0.12 0"/>
<feBlend mode="normal" in2="BackgroundImageFix" result="effect1_dropShadow_4918_1530"/>
<feBlend mode="normal" in="SourceGraphic" in2="effect1_dropShadow_4918_1530" result="shape"/>
</filter>
</defs>
</svg>
