<svg width="36" height="37" viewBox="0 0 36 37" fill="none" xmlns="http://www.w3.org/2000/svg">
<g clip-path="url(#clip0_4918_1459)">
<path d="M18 36.5C27.9411 36.5 36 28.4411 36 18.5C36 8.55888 27.9411 0.5 18 0.5C8.05888 0.5 0 8.55888 0 18.5C0 28.4411 8.05888 36.5 18 36.5Z" fill="#A73A3A"/>
<path opacity="0.36" d="M13.4004 26.6203L22.6559 35.8758C30.3215 33.8316 35.9998 26.8474 35.9998 18.5004C35.9998 18.3301 35.9998 18.1597 35.9998 17.9894L28.7316 11.2891L13.4004 26.6203Z" fill="#24242E"/>
<path d="M18.4538 22.5323C19.2488 23.3273 19.2488 24.6901 18.4538 25.485L16.8071 27.1317C16.0122 27.9266 14.6494 27.9266 13.8544 27.1317L6.64309 19.8636C5.84814 19.0686 5.84814 17.7058 6.64309 16.9109L8.28978 15.2642C9.08473 14.4692 10.4475 14.4692 11.2425 15.2642L18.4538 22.5323Z" fill="white"/>
<path d="M24.7563 9.98293C25.5512 9.18798 26.914 9.18798 27.709 9.98293L29.3557 11.6296C30.1506 12.4246 30.1506 13.7873 29.3557 14.5823L16.8636 27.0176C16.0686 27.8126 14.7058 27.8126 13.9109 27.0176L12.2642 25.3709C11.4692 24.576 11.4692 23.2132 12.2642 22.4183L24.7563 9.98293Z" fill="white"/>
</g>
<defs>
<clipPath id="clip0_4918_1459">
<rect width="36" height="36" fill="white" transform="translate(0 0.5)"/>
</clipPath>
</defs>
</svg>
