<svg width="24" height="24" viewBox="0 0 24 24" fill="none" xmlns="http://www.w3.org/2000/svg">
<circle cx="12" cy="12" r="12" fill="#A73A3A"/>
<g clip-path="url(#clip0_4918_1301)">
<path d="M10.6539 16C10.5684 15.9997 10.4839 15.9807 10.4056 15.9441C10.3273 15.9076 10.2569 15.8542 10.1988 15.7874L7.16898 12.3533C7.05573 12.2247 6.99505 12.0535 7.00032 11.8772C7.00558 11.7009 7.07634 11.5341 7.19704 11.4134C7.31773 11.2928 7.47848 11.2281 7.64391 11.2337C7.80934 11.2393 7.96591 11.3147 8.07916 11.4433L10.6476 14.3593L15.8905 8.24833C15.9437 8.17774 16.0099 8.11948 16.085 8.07713C16.1601 8.03478 16.2426 8.00925 16.3273 8.00208C16.412 7.99492 16.4972 8.00628 16.5776 8.03547C16.658 8.06467 16.732 8.11107 16.795 8.17184C16.858 8.23261 16.9087 8.30645 16.9439 8.38884C16.9791 8.47124 16.9982 8.56043 16.9999 8.65095C17.0016 8.74147 16.9859 8.83141 16.9538 8.91523C16.9217 8.99906 16.8738 9.07501 16.8132 9.13841L11.1152 15.7808C11.0576 15.8488 10.9875 15.9034 10.9091 15.9411C10.8308 15.9788 10.746 15.9989 10.6601 16H10.6539Z" fill="white"/>
</g>
<defs>
<clipPath id="clip0_4918_1301">
<rect width="12" height="12" fill="white" transform="translate(6 6)"/>
</clipPath>
</defs>
</svg>
