<svg width="24" height="24" viewBox="0 0 24 24" fill="none" xmlns="http://www.w3.org/2000/svg">
<path d="M24 5.19033C23.098 5.58164 22.1441 5.84033 21.168 5.95833C22.1978 5.34311 22.9695 4.37527 23.34 3.23433C22.3723 3.81041 21.3129 4.21629 20.208 4.43433C19.4695 3.63342 18.486 3.10029 17.4118 2.91855C16.3376 2.73682 15.2335 2.91676 14.2725 3.43016C13.3116 3.94355 12.5483 4.76137 12.1023 5.75533C11.6563 6.7493 11.5528 7.8632 11.808 8.92233C9.85131 8.82336 7.93733 8.31387 6.19039 7.42696C4.44344 6.54005 2.90262 5.29556 1.668 3.77433C1.23497 4.53053 1.00742 5.38692 1.008 6.25833C1.00646 7.06759 1.20506 7.86467 1.58611 8.57861C1.96715 9.29254 2.51882 9.90118 3.192 10.3503C2.40957 10.329 1.64386 10.1191 0.96 9.73833V9.79833C0.965864 10.9322 1.36319 12.0292 2.08478 12.9039C2.80636 13.7785 3.80791 14.3771 4.92 14.5983C4.49191 14.7286 4.04745 14.7973 3.6 14.8023C3.29027 14.7987 2.98131 14.7706 2.676 14.7183C2.99269 15.6937 3.60555 16.5461 4.42929 17.1569C5.25303 17.7677 6.24669 18.1066 7.272 18.1263C5.54064 19.4886 3.40306 20.2322 1.2 20.2383C0.798882 20.2396 0.398083 20.2156 0 20.1663C2.24931 21.6186 4.87058 22.3896 7.548 22.3863C9.39563 22.4055 11.2286 22.0564 12.9397 21.3592C14.6509 20.6621 16.206 19.631 17.5142 18.3261C18.8225 17.0213 19.8576 15.4688 20.5591 13.7594C21.2606 12.05 21.6144 10.218 21.6 8.37033C21.6 8.16633 21.6 7.95033 21.6 7.73433C22.5416 7.0321 23.3538 6.17124 24 5.19033Z" fill="white"/>
</svg>
