<svg width="46" height="46" viewBox="0 0 46 46" fill="none" xmlns="http://www.w3.org/2000/svg">
<g clip-path="url(#clip0_4918_1513)">
<path d="M23 0.5C17.0347 0.50667 11.3156 2.87934 7.09746 7.09746C2.87934 11.3156 0.50667 17.0347 0.5 23C0.509995 28.9643 2.88373 34.6815 7.10114 38.8989C11.3185 43.1163 17.0357 45.49 23 45.5C28.9674 45.5 34.6903 43.1295 38.9099 38.9099C43.1295 34.6903 45.5 28.9674 45.5 23C45.5 17.0326 43.1295 11.3097 38.9099 7.0901C34.6903 2.87053 28.9674 0.5 23 0.5ZM36.6854 35.9834C35.4218 33.4346 33.471 31.2897 31.0531 29.7906C28.6353 28.2915 25.8467 27.498 23.0018 27.4995C20.157 27.501 17.3692 28.2975 14.9529 29.7991C12.5367 31.3007 10.5882 33.4477 9.3272 35.9978C5.96285 32.5085 4.08819 27.847 4.1 23C4.1 17.9874 6.09124 13.1801 9.63568 9.63568C13.1801 6.09124 17.9874 4.1 23 4.1C28.0126 4.1 32.8199 6.09124 36.3643 9.63568C39.9088 13.1801 41.9 17.9874 41.9 23C41.9113 27.8403 40.0415 32.4956 36.6854 35.9834ZM23 9.5C21.398 9.5 19.8319 9.97506 18.4999 10.8651C17.1678 11.7551 16.1296 13.0202 15.5166 14.5003C14.9035 15.9803 14.7431 17.609 15.0556 19.1802C15.3682 20.7515 16.1396 22.1948 17.2724 23.3276C18.4052 24.4604 19.8485 25.2318 21.4198 25.5444C22.991 25.8569 24.6197 25.6965 26.0997 25.0834C27.5798 24.4704 28.8449 23.4322 29.7349 22.1001C30.6249 20.7681 31.1 19.202 31.1 17.6C31.1 16.5363 30.8905 15.483 30.4834 14.5003C30.0764 13.5175 29.4797 12.6246 28.7276 11.8724C27.9754 11.1203 27.0825 10.5236 26.0997 10.1166C25.117 9.70951 24.0637 9.5 23 9.5Z" fill="#A73A3A"/>
</g>
<defs>
<clipPath id="clip0_4918_1513">
<rect width="45" height="45" fill="white" transform="translate(0.5 0.5)"/>
</clipPath>
</defs>
</svg>
