<svg width="46" height="46" viewBox="0 0 46 46" fill="none" xmlns="http://www.w3.org/2000/svg">
<g clip-path="url(#clip0_4918_1521)">
<path d="M42.0983 41.8687C42.4934 41.8687 42.8156 42.19 42.8156 42.586C42.8156 42.9811 42.4943 43.3033 42.0983 43.3033H1.22121C0.823406 43.3033 0.503906 42.982 0.503906 42.586V29.491V8.72171V3.41261C0.503906 3.01481 0.822506 2.69531 1.22121 2.69531C1.61631 2.69531 1.93851 3.01391 1.93851 3.41261V8.00441H4.85991C5.25501 8.00441 5.57721 8.32571 5.57721 8.72171C5.57721 9.11681 5.25591 9.43901 4.85991 9.43901H1.93761V28.7746H17.2475L22.7735 19.2022C22.9724 18.8602 23.4116 18.7459 23.7527 18.9421C24.0947 19.141 24.209 19.5775 24.0128 19.9222L18.3059 29.8051C18.1889 30.0445 17.9432 30.2083 17.6606 30.2083H1.93761V41.8696H3.31281V32.7994C3.31281 32.5033 3.55491 32.2639 3.85101 32.2639H8.58051C8.87661 32.2639 9.11871 32.5033 9.11871 32.7994V41.8687H11.2283V32.7994C11.2283 32.5033 11.4677 32.2639 11.7638 32.2639H16.4933C16.7894 32.2639 17.0315 32.5033 17.0315 32.7994V41.8687H19.1411V32.7994C19.1411 32.5033 19.3805 32.2639 19.6793 32.2639H24.407C24.7031 32.2639 24.9452 32.5033 24.9452 32.7994V41.8687H42.0983ZM27.7685 17.2708C27.7586 17.2582 27.7505 17.2456 27.7433 17.2303L27.3122 16.5238C27.0899 16.144 26.7641 16.0108 26.4653 16.0495C26.3456 16.0648 26.2304 16.1035 26.126 16.1647C26.0162 16.2259 25.9244 16.3024 25.856 16.3942C25.685 16.6183 25.6418 16.9477 25.8533 17.3149C28.0367 21.0958 28.43 21.823 29.2364 23.3152C29.5856 23.9578 30.0122 24.7489 30.7286 26.0503C30.7313 26.0575 30.7358 26.0656 30.7385 26.0728L32.1263 28.4758C32.2739 28.7305 32.1848 29.0599 31.9301 29.2084C31.6727 29.3542 31.346 29.2669 31.1975 29.0095L29.8124 26.611C29.8052 26.5957 29.7944 26.5831 29.7872 26.5678L29.7719 26.5399C29.519 26.1313 29.1419 25.9891 28.7918 26.0323C28.646 26.0503 28.5038 26.1016 28.3706 26.1781C28.2401 26.2546 28.1258 26.3545 28.0367 26.4742C27.8099 26.7802 27.7559 27.232 28.052 27.7477C28.3706 28.294 28.7279 28.888 29.0546 29.4109C29.3327 29.8573 29.5802 30.2371 29.7539 30.4693C30.2543 31.156 30.9302 31.8778 31.7564 32.5897C32.5043 33.235 33.371 33.8677 34.3457 34.4599L42.479 29.7628C41.849 27.9952 41.5655 26.8522 41.3234 25.8721C40.9022 24.181 40.6088 22.9948 38.7521 19.78C38.4947 19.3363 38.1905 19.0933 37.8971 19.0015C37.7261 18.9502 37.5605 18.9475 37.4102 18.9862C37.2671 19.0222 37.142 19.0906 37.0502 19.1878C36.9656 19.2769 36.9071 19.3867 36.8873 19.5118L38.2112 21.8077C38.3588 22.0624 38.2697 22.3918 38.015 22.5403C37.7576 22.6861 37.4309 22.5988 37.2824 22.3414L35.8892 19.9276C35.8865 19.9222 35.882 19.915 35.8793 19.9096H35.8766C35.657 19.5271 35.3897 19.3156 35.1188 19.2256C34.9253 19.159 34.7237 19.159 34.5401 19.2076C34.3511 19.2535 34.1828 19.348 34.055 19.4731C33.9479 19.5802 33.8687 19.7053 33.8381 19.8376L35.1548 22.1209C35.3024 22.3756 35.2133 22.7023 34.9586 22.8508C34.7012 22.9984 34.3745 22.9093 34.226 22.6546L32.8328 20.239C32.8274 20.2336 32.8256 20.2291 32.8202 20.221C32.5907 19.8205 32.2613 19.6576 31.958 19.6621C31.8275 19.6621 31.6952 19.6954 31.5755 19.7539C31.4558 19.8124 31.3532 19.8943 31.2767 19.9915C31.1138 20.1958 31.0571 20.4937 31.1975 20.8411L32.5799 23.2396C32.7275 23.497 32.6384 23.8237 32.3837 23.9722C32.1263 24.118 31.7996 24.0307 31.6511 23.7733L30.266 21.373C30.2588 21.3631 30.2534 21.3523 30.248 21.3451L27.7685 17.2708ZM28.0646 15.7219C28.07 15.6526 28.0718 15.5815 28.0718 15.5077C28.0718 14.8624 27.8117 14.2783 27.3878 13.8544C26.9639 13.4305 26.3798 13.1677 25.7318 13.1677C25.0865 13.1677 24.5024 13.4305 24.0785 13.8544C23.6546 14.2783 23.3918 14.8624 23.3918 15.5077C23.3918 16.1557 23.6546 16.7398 24.0785 17.1637C24.29 17.3752 24.5456 17.5489 24.8264 17.6659C24.4817 16.9333 24.6194 16.2475 25.0028 15.7453C25.1639 15.5338 25.3646 15.3574 25.5896 15.2296C25.8164 15.0991 26.072 15.0127 26.3348 14.9794C26.9477 14.9056 27.5975 15.1126 28.0646 15.7219ZM33.866 36.2059L35.4986 39.0355L35.5085 39.0508C35.5337 39.0895 35.5778 39.1174 35.6237 39.1273C35.675 39.1426 35.7335 39.1372 35.7794 39.1093L45.4022 33.5554V33.5527C45.4481 33.5248 45.4814 33.4816 45.4967 33.4303C45.5093 33.3763 45.5039 33.3232 45.476 33.2746L43.8434 30.4477L43.8362 30.4324C43.8083 30.3919 43.7669 30.3658 43.721 30.3532C43.667 30.3379 43.6112 30.3433 43.5626 30.3712L33.9398 35.9278C33.8939 35.953 33.8606 35.9989 33.848 36.0529C33.8354 36.1033 33.8381 36.16 33.866 36.2059ZM35.1188 9.43811C34.7237 9.43811 34.4015 9.11681 34.4015 8.72081C34.4015 8.32571 34.7228 8.00351 35.1188 8.00351H38.7566C39.1517 8.00351 39.4739 8.32481 39.4739 8.72081C39.4739 9.11591 39.1526 9.43811 38.7566 9.43811H35.1188ZM28.3373 9.43811C27.9422 9.43811 27.62 9.11681 27.62 8.72081C27.62 8.32571 27.9413 8.00351 28.3373 8.00351H31.9778C32.3729 8.00351 32.6951 8.32481 32.6951 8.72081C32.6951 9.11591 32.3738 9.43811 31.9778 9.43811H28.3373ZM21.5594 9.43811C21.1643 9.43811 20.8421 9.11681 20.8421 8.72081C20.8421 8.32571 21.1634 8.00351 21.5594 8.00351H25.1972C25.5923 8.00351 25.9145 8.32481 25.9145 8.72081C25.9145 9.11591 25.5932 9.43811 25.1972 9.43811H21.5594ZM14.7806 9.43811C14.3828 9.43811 14.0615 9.11681 14.0615 8.72081C14.0615 8.32571 14.3828 8.00351 14.7806 8.00351H18.4184C18.8135 8.00351 19.1357 8.32481 19.1357 8.72081C19.1357 9.11591 18.8144 9.43811 18.4184 9.43811H14.7806ZM8.00001 9.43811C7.60491 9.43811 7.28271 9.11681 7.28271 8.72081C7.28271 8.32571 7.60401 8.00351 8.00001 8.00351H11.6378C12.0356 8.00351 12.3551 8.32481 12.3551 8.72081C12.3551 9.11591 12.0365 9.43811 11.6378 9.43811H8.00001Z" fill="#A73A3A"/>
</g>
<defs>
<clipPath id="clip0_4918_1521">
<rect width="45" height="45" fill="white" transform="translate(0.503906 0.5)"/>
</clipPath>
</defs>
</svg>
