<svg width="46" height="46" viewBox="0 0 46 46" fill="none" xmlns="http://www.w3.org/2000/svg">
<g clip-path="url(#clip0_4918_1343)">
<path d="M17.375 17.375C17.375 15.304 19.054 13.625 21.125 13.625H24.875C25.2846 13.625 25.6782 13.6902 26.0464 13.8111L17.375 28.0445V17.375ZM19.3872 31.9494L28.5882 16.8465C28.6124 17.0192 28.625 17.1956 28.625 17.375V28.625C28.625 30.696 26.946 32.375 24.875 32.375H21.125C20.4976 32.375 19.9068 32.2217 19.3872 31.9494Z" fill="#A73A3A"/>
<path fill-rule="evenodd" clip-rule="evenodd" d="M45.5 0.5H0.5V45.5H45.5V0.5ZM21.125 9.875C16.9828 9.875 13.625 13.2328 13.625 17.375V28.625C13.625 30.5447 14.3487 32.2998 15.5352 33.6254C16.9058 35.1568 18.9036 36.125 21.125 36.125H24.875C29.0172 36.125 32.375 32.7672 32.375 28.625V17.375C32.375 15.1536 31.4068 13.1558 29.8754 11.7852C28.5498 10.5987 26.7947 9.875 24.875 9.875H21.125Z" fill="#A73A3A"/>
</g>
<defs>
<clipPath id="clip0_4918_1343">
<rect x="0.5" y="0.5" width="45" height="45" rx="4" fill="white"/>
</clipPath>
</defs>
</svg>
